%TF.GenerationSoftware,KiCad,Pcbnew,9.0.6*%
%TF.CreationDate,2026-01-15T20:49:05+01:00*%
%TF.ProjectId,OpenBikeSensorLiteLidar,4f70656e-4269-46b6-9553-656e736f724c,0.1*%
%TF.SameCoordinates,Original*%
%TF.FileFunction,Legend,Bot*%
%TF.FilePolarity,Positive*%
%FSLAX46Y46*%
G04 Gerber Fmt 4.6, Leading zero omitted, Abs format (unit mm)*
G04 Created by KiCad (PCBNEW 9.0.6) date 2026-01-15 20:49:05*
%MOMM*%
%LPD*%
G01*
G04 APERTURE LIST*
%ADD10C,0.000000*%
%ADD11C,0.150000*%
%ADD12C,0.100000*%
%ADD13C,0.200000*%
%ADD14C,0.120000*%
G04 APERTURE END LIST*
D10*
G36*
X68456172Y-92303062D02*
G01*
X68119655Y-92303062D01*
X68119655Y-91492362D01*
X67946022Y-91492362D01*
X67711205Y-92303062D01*
X67340788Y-92303062D01*
X67609506Y-91401412D01*
X67582614Y-91375864D01*
X67557360Y-91348987D01*
X67533776Y-91320863D01*
X67511894Y-91291570D01*
X67491748Y-91261189D01*
X67473371Y-91229799D01*
X67456796Y-91197481D01*
X67442055Y-91164315D01*
X67429181Y-91130380D01*
X67418208Y-91095756D01*
X67409168Y-91060524D01*
X67402094Y-91024763D01*
X67397019Y-90988554D01*
X67393976Y-90951976D01*
X67392998Y-90915109D01*
X67394118Y-90878033D01*
X67394771Y-90867056D01*
X67395608Y-90856091D01*
X67396630Y-90845142D01*
X67397837Y-90834214D01*
X67736421Y-90834214D01*
X67736425Y-90834641D01*
X67736438Y-90835053D01*
X67736484Y-90835842D01*
X67736549Y-90836597D01*
X67736624Y-90837334D01*
X67736701Y-90838072D01*
X67736769Y-90838827D01*
X67736820Y-90839615D01*
X67736836Y-90840028D01*
X67736844Y-90840454D01*
X67737260Y-90858596D01*
X67738153Y-90875738D01*
X67739517Y-90891907D01*
X67741347Y-90907131D01*
X67743638Y-90921439D01*
X67746384Y-90934857D01*
X67749582Y-90947414D01*
X67753225Y-90959138D01*
X67757308Y-90970057D01*
X67761826Y-90980197D01*
X67766775Y-90989588D01*
X67772148Y-90998257D01*
X67777941Y-91006231D01*
X67784149Y-91013539D01*
X67790766Y-91020209D01*
X67797788Y-91026268D01*
X67805209Y-91031744D01*
X67813023Y-91036665D01*
X67821227Y-91041059D01*
X67829814Y-91044953D01*
X67838780Y-91048376D01*
X67848119Y-91051356D01*
X67857826Y-91053919D01*
X67867897Y-91056094D01*
X67889106Y-91059393D01*
X67911706Y-91061473D01*
X67935656Y-91062557D01*
X67960913Y-91062870D01*
X68119664Y-91062870D01*
X68119654Y-90588648D01*
X67969171Y-90588648D01*
X67944233Y-90589150D01*
X67920277Y-90590778D01*
X67897388Y-90593716D01*
X67875654Y-90598145D01*
X67865247Y-90600976D01*
X67855161Y-90604249D01*
X67845407Y-90607986D01*
X67835996Y-90612210D01*
X67826939Y-90616944D01*
X67818246Y-90622212D01*
X67809928Y-90628035D01*
X67801996Y-90634437D01*
X67794461Y-90641440D01*
X67787334Y-90649068D01*
X67780625Y-90657343D01*
X67774346Y-90666288D01*
X67768506Y-90675926D01*
X67763118Y-90686279D01*
X67758192Y-90697372D01*
X67753738Y-90709226D01*
X67749768Y-90721864D01*
X67746292Y-90735310D01*
X67743321Y-90749585D01*
X67740865Y-90764714D01*
X67738937Y-90780718D01*
X67737546Y-90797621D01*
X67736704Y-90815446D01*
X67736421Y-90834214D01*
X67397837Y-90834214D01*
X67397837Y-90834211D01*
X67400292Y-90752675D01*
X67407555Y-90676349D01*
X67419474Y-90605239D01*
X67427132Y-90571642D01*
X67435897Y-90539352D01*
X67445750Y-90508369D01*
X67456673Y-90478695D01*
X67468646Y-90450330D01*
X67481650Y-90423276D01*
X67495666Y-90397533D01*
X67510676Y-90373101D01*
X67526659Y-90349983D01*
X67543599Y-90328178D01*
X67561474Y-90307688D01*
X67580267Y-90288513D01*
X67599959Y-90270655D01*
X67620530Y-90254114D01*
X67641961Y-90238892D01*
X67664234Y-90224988D01*
X67687329Y-90212404D01*
X67711228Y-90201141D01*
X67735912Y-90191200D01*
X67761361Y-90182582D01*
X67787557Y-90175287D01*
X67814481Y-90169316D01*
X67842113Y-90164671D01*
X67870435Y-90161351D01*
X67899428Y-90159359D01*
X67929072Y-90158695D01*
X68456172Y-90158700D01*
X68456172Y-91062870D01*
X68456172Y-92303062D01*
G37*
G36*
X74045885Y-90128053D02*
G01*
X74076186Y-90130341D01*
X74105396Y-90134115D01*
X74133522Y-90139344D01*
X74160570Y-90145996D01*
X74186548Y-90154039D01*
X74211462Y-90163441D01*
X74235318Y-90174171D01*
X74258123Y-90186197D01*
X74279883Y-90199486D01*
X74300606Y-90214008D01*
X74320297Y-90229731D01*
X74338964Y-90246623D01*
X74356612Y-90264651D01*
X74373249Y-90283785D01*
X74388881Y-90303993D01*
X74403515Y-90325242D01*
X74417156Y-90347501D01*
X74429813Y-90370739D01*
X74441491Y-90394923D01*
X74452197Y-90420022D01*
X74461937Y-90446004D01*
X74470718Y-90472837D01*
X74478547Y-90500489D01*
X74485431Y-90528930D01*
X74491375Y-90558126D01*
X74496387Y-90588047D01*
X74500473Y-90618660D01*
X74505892Y-90681836D01*
X74507687Y-90747401D01*
X74510228Y-90801328D01*
X74508453Y-90854651D01*
X74502488Y-90907162D01*
X74492460Y-90958651D01*
X74478496Y-91008908D01*
X74460721Y-91057723D01*
X74439264Y-91104886D01*
X74414250Y-91150189D01*
X74385807Y-91193420D01*
X74354060Y-91234371D01*
X74319136Y-91272831D01*
X74281163Y-91308591D01*
X74240267Y-91341441D01*
X74196574Y-91371172D01*
X74150211Y-91397573D01*
X74101304Y-91420435D01*
X74063451Y-91439409D01*
X74029164Y-91457543D01*
X73998287Y-91474991D01*
X73970666Y-91491910D01*
X73946146Y-91508454D01*
X73924571Y-91524780D01*
X73905787Y-91541043D01*
X73889638Y-91557398D01*
X73875969Y-91574001D01*
X73870017Y-91582445D01*
X73864626Y-91591008D01*
X73859778Y-91599712D01*
X73855454Y-91608574D01*
X73848297Y-91626855D01*
X73843000Y-91646006D01*
X73839408Y-91666183D01*
X73837367Y-91687541D01*
X73836721Y-91710236D01*
X73835856Y-91719655D01*
X73835525Y-91729053D01*
X73835721Y-91738412D01*
X73836437Y-91747709D01*
X73837667Y-91756924D01*
X73839402Y-91766037D01*
X73841636Y-91775028D01*
X73844362Y-91783874D01*
X73847574Y-91792556D01*
X73851263Y-91801053D01*
X73855424Y-91809345D01*
X73860048Y-91817410D01*
X73865130Y-91825228D01*
X73870662Y-91832779D01*
X73876637Y-91840042D01*
X73883048Y-91846996D01*
X73889841Y-91853576D01*
X73896954Y-91859729D01*
X73904366Y-91865445D01*
X73912057Y-91870719D01*
X73920005Y-91875541D01*
X73928192Y-91879905D01*
X73936595Y-91883803D01*
X73945195Y-91887228D01*
X73953972Y-91890172D01*
X73962904Y-91892627D01*
X73971971Y-91894587D01*
X73981154Y-91896043D01*
X73990430Y-91896989D01*
X73999781Y-91897416D01*
X74009185Y-91897317D01*
X74018622Y-91896685D01*
X74041775Y-91895930D01*
X74064548Y-91893409D01*
X74086860Y-91889179D01*
X74108630Y-91883295D01*
X74129778Y-91875813D01*
X74150221Y-91866788D01*
X74169879Y-91856278D01*
X74188671Y-91844338D01*
X74206516Y-91831023D01*
X74223332Y-91816390D01*
X74239038Y-91800494D01*
X74253554Y-91783392D01*
X74266798Y-91765139D01*
X74278689Y-91745791D01*
X74289146Y-91725405D01*
X74298088Y-91704035D01*
X74549855Y-91983501D01*
X74540738Y-92004290D01*
X74530871Y-92024577D01*
X74520273Y-92044350D01*
X74508966Y-92063594D01*
X74496972Y-92082297D01*
X74484310Y-92100446D01*
X74471001Y-92118028D01*
X74457068Y-92135029D01*
X74442529Y-92151436D01*
X74427407Y-92167237D01*
X74411722Y-92182418D01*
X74395495Y-92196966D01*
X74378747Y-92210869D01*
X74361498Y-92224112D01*
X74343770Y-92236684D01*
X74325584Y-92248570D01*
X74306960Y-92259758D01*
X74287919Y-92270235D01*
X74268482Y-92279988D01*
X74248670Y-92289003D01*
X74228504Y-92297267D01*
X74208004Y-92304768D01*
X74187193Y-92311493D01*
X74166089Y-92317427D01*
X74144715Y-92322559D01*
X74123091Y-92326874D01*
X74101238Y-92330361D01*
X74079177Y-92333005D01*
X74056929Y-92334795D01*
X74034515Y-92335716D01*
X74011955Y-92335755D01*
X73989270Y-92334901D01*
X73959933Y-92334166D01*
X73931455Y-92331978D01*
X73903842Y-92328359D01*
X73877098Y-92323329D01*
X73851228Y-92316912D01*
X73826237Y-92309130D01*
X73802128Y-92300005D01*
X73778908Y-92289558D01*
X73756580Y-92277812D01*
X73735150Y-92264789D01*
X73714622Y-92250511D01*
X73695000Y-92235000D01*
X73676290Y-92218278D01*
X73658496Y-92200368D01*
X73641622Y-92181291D01*
X73625675Y-92161070D01*
X73610657Y-92139726D01*
X73596574Y-92117282D01*
X73583431Y-92093759D01*
X73571232Y-92069181D01*
X73559982Y-92043568D01*
X73549686Y-92016944D01*
X73540347Y-91989329D01*
X73531972Y-91960747D01*
X73524565Y-91931219D01*
X73518130Y-91900768D01*
X73512672Y-91869415D01*
X73508196Y-91837182D01*
X73504707Y-91804093D01*
X73502209Y-91770168D01*
X73500706Y-91735430D01*
X73500204Y-91699901D01*
X73496819Y-91671936D01*
X73494706Y-91644076D01*
X73493844Y-91616354D01*
X73494213Y-91588802D01*
X73495793Y-91561453D01*
X73498563Y-91534341D01*
X73502502Y-91507498D01*
X73507591Y-91480957D01*
X73521136Y-91428914D01*
X73539033Y-91378475D01*
X73561119Y-91329903D01*
X73587231Y-91283462D01*
X73617206Y-91239415D01*
X73650881Y-91198025D01*
X73688091Y-91159557D01*
X73728674Y-91124273D01*
X73750180Y-91107908D01*
X73772467Y-91092438D01*
X73795516Y-91077895D01*
X73819306Y-91064313D01*
X73843817Y-91051725D01*
X73869028Y-91040164D01*
X73894919Y-91029662D01*
X73921470Y-91020252D01*
X73953226Y-91005630D01*
X73982640Y-90991073D01*
X74009752Y-90976491D01*
X74034602Y-90961792D01*
X74057232Y-90946885D01*
X74077682Y-90931681D01*
X74095991Y-90916088D01*
X74112202Y-90900015D01*
X74126353Y-90883371D01*
X74132670Y-90874807D01*
X74138487Y-90866067D01*
X74143809Y-90857138D01*
X74148642Y-90848010D01*
X74152991Y-90838671D01*
X74156860Y-90829110D01*
X74160256Y-90819316D01*
X74163182Y-90809277D01*
X74165644Y-90798982D01*
X74167647Y-90788419D01*
X74170297Y-90766446D01*
X74171171Y-90743267D01*
X74170597Y-90720244D01*
X74168862Y-90698793D01*
X74165943Y-90678901D01*
X74164033Y-90669536D01*
X74161819Y-90660556D01*
X74159298Y-90651961D01*
X74156468Y-90643748D01*
X74153325Y-90635916D01*
X74149867Y-90628463D01*
X74146092Y-90621389D01*
X74141996Y-90614691D01*
X74137577Y-90608368D01*
X74132832Y-90602418D01*
X74127758Y-90596841D01*
X74122353Y-90591634D01*
X74116613Y-90586796D01*
X74110537Y-90582326D01*
X74104122Y-90578222D01*
X74097364Y-90574483D01*
X74090260Y-90571107D01*
X74082809Y-90568092D01*
X74075008Y-90565438D01*
X74066853Y-90563142D01*
X74058343Y-90561204D01*
X74049473Y-90559622D01*
X74040242Y-90558393D01*
X74030647Y-90557518D01*
X74010354Y-90556819D01*
X73989667Y-90557448D01*
X73969673Y-90559369D01*
X73950368Y-90562635D01*
X73931750Y-90567300D01*
X73922697Y-90570173D01*
X73913814Y-90573416D01*
X73905102Y-90577034D01*
X73896559Y-90581035D01*
X73888184Y-90585424D01*
X73879979Y-90590210D01*
X73871942Y-90595398D01*
X73864072Y-90600995D01*
X73856370Y-90607007D01*
X73848836Y-90613441D01*
X73841467Y-90620304D01*
X73834265Y-90627603D01*
X73827229Y-90635343D01*
X73820358Y-90643532D01*
X73813652Y-90652175D01*
X73807110Y-90661281D01*
X73800733Y-90670854D01*
X73794519Y-90680903D01*
X73782582Y-90702451D01*
X73771294Y-90725978D01*
X73760653Y-90751536D01*
X73510952Y-90478684D01*
X73518327Y-90458897D01*
X73526433Y-90439545D01*
X73535252Y-90420640D01*
X73544764Y-90402195D01*
X73554950Y-90384225D01*
X73565791Y-90366742D01*
X73577267Y-90349760D01*
X73589360Y-90333292D01*
X73602049Y-90317353D01*
X73615317Y-90301954D01*
X73629143Y-90287111D01*
X73643509Y-90272835D01*
X73658395Y-90259141D01*
X73673782Y-90246042D01*
X73689651Y-90233551D01*
X73705982Y-90221681D01*
X73722756Y-90210447D01*
X73739954Y-90199862D01*
X73757558Y-90189939D01*
X73775546Y-90180691D01*
X73793902Y-90172132D01*
X73812604Y-90164275D01*
X73831634Y-90157134D01*
X73850973Y-90150722D01*
X73870601Y-90145052D01*
X73890499Y-90140139D01*
X73910649Y-90135994D01*
X73931030Y-90132633D01*
X73951624Y-90130068D01*
X73972411Y-90128312D01*
X73993372Y-90127380D01*
X74014487Y-90127284D01*
X74014488Y-90127284D01*
X74045885Y-90128053D01*
G37*
G36*
X70473376Y-90128053D02*
G01*
X70503857Y-90130341D01*
X70533235Y-90134115D01*
X70561517Y-90139344D01*
X70588711Y-90145996D01*
X70614824Y-90154039D01*
X70639862Y-90163441D01*
X70663833Y-90174171D01*
X70686743Y-90186197D01*
X70708600Y-90199486D01*
X70729410Y-90214008D01*
X70749181Y-90229731D01*
X70767919Y-90246623D01*
X70785631Y-90264651D01*
X70802325Y-90283785D01*
X70818008Y-90303993D01*
X70832685Y-90325242D01*
X70846365Y-90347501D01*
X70859055Y-90370739D01*
X70870761Y-90394923D01*
X70881490Y-90420022D01*
X70891250Y-90446004D01*
X70900047Y-90472837D01*
X70907888Y-90500489D01*
X70914781Y-90528930D01*
X70920732Y-90558126D01*
X70925748Y-90588047D01*
X70929837Y-90618660D01*
X70935259Y-90681836D01*
X70937054Y-90747401D01*
X70939315Y-90801720D01*
X70937204Y-90855398D01*
X70930852Y-90908222D01*
X70920389Y-90959979D01*
X70905947Y-91010457D01*
X70887658Y-91059443D01*
X70865651Y-91106724D01*
X70840059Y-91152087D01*
X70811013Y-91195321D01*
X70778643Y-91236211D01*
X70743082Y-91274545D01*
X70704460Y-91310111D01*
X70662908Y-91342696D01*
X70618558Y-91372086D01*
X70571541Y-91398070D01*
X70521989Y-91420435D01*
X70484136Y-91439409D01*
X70449848Y-91457543D01*
X70418972Y-91474991D01*
X70391351Y-91491910D01*
X70366830Y-91508454D01*
X70345255Y-91524780D01*
X70326471Y-91541043D01*
X70310322Y-91557398D01*
X70296654Y-91574001D01*
X70290701Y-91582445D01*
X70285311Y-91591008D01*
X70280463Y-91599712D01*
X70276138Y-91608574D01*
X70268981Y-91626855D01*
X70263684Y-91646006D01*
X70260092Y-91666183D01*
X70258051Y-91687541D01*
X70257405Y-91710236D01*
X70256556Y-91719582D01*
X70256231Y-91728907D01*
X70256426Y-91738194D01*
X70257133Y-91747420D01*
X70258345Y-91756567D01*
X70260056Y-91765613D01*
X70262259Y-91774539D01*
X70264946Y-91783324D01*
X70268112Y-91791949D01*
X70271749Y-91800393D01*
X70275850Y-91808635D01*
X70280410Y-91816657D01*
X70285420Y-91824436D01*
X70290875Y-91831954D01*
X70296767Y-91839190D01*
X70303089Y-91846124D01*
X70309791Y-91852693D01*
X70316809Y-91858843D01*
X70324125Y-91864565D01*
X70331719Y-91869853D01*
X70339570Y-91874699D01*
X70347659Y-91879096D01*
X70355966Y-91883035D01*
X70364471Y-91886510D01*
X70373153Y-91889513D01*
X70381994Y-91892036D01*
X70390973Y-91894073D01*
X70400069Y-91895614D01*
X70409264Y-91896654D01*
X70418538Y-91897184D01*
X70427869Y-91897197D01*
X70437239Y-91896685D01*
X70460499Y-91895975D01*
X70483384Y-91893494D01*
X70505811Y-91889299D01*
X70527700Y-91883444D01*
X70548969Y-91875987D01*
X70569536Y-91866981D01*
X70589322Y-91856484D01*
X70608243Y-91844549D01*
X70626220Y-91831234D01*
X70643171Y-91816594D01*
X70659014Y-91800684D01*
X70673668Y-91783560D01*
X70687052Y-91765277D01*
X70699085Y-91745892D01*
X70709686Y-91725459D01*
X70718772Y-91704035D01*
X70970953Y-91974819D01*
X70961786Y-91995583D01*
X70951871Y-92015845D01*
X70941231Y-92035592D01*
X70929885Y-92054813D01*
X70917854Y-92073493D01*
X70905160Y-92091620D01*
X70891822Y-92109181D01*
X70877862Y-92126163D01*
X70863300Y-92142553D01*
X70848157Y-92158337D01*
X70832453Y-92173503D01*
X70816211Y-92188038D01*
X70799449Y-92201930D01*
X70782189Y-92215164D01*
X70764452Y-92227728D01*
X70746258Y-92239609D01*
X70727628Y-92250793D01*
X70708582Y-92261269D01*
X70689143Y-92271023D01*
X70669329Y-92280042D01*
X70649162Y-92288314D01*
X70628663Y-92295824D01*
X70607853Y-92302560D01*
X70586751Y-92308509D01*
X70565380Y-92313659D01*
X70543759Y-92317996D01*
X70521909Y-92321506D01*
X70499851Y-92324179D01*
X70477606Y-92325999D01*
X70455194Y-92326954D01*
X70432637Y-92327032D01*
X70409954Y-92326219D01*
X70380424Y-92325485D01*
X70351767Y-92323297D01*
X70323986Y-92319677D01*
X70297086Y-92314648D01*
X70271070Y-92308231D01*
X70245944Y-92300449D01*
X70221711Y-92291323D01*
X70198376Y-92280876D01*
X70175943Y-92269130D01*
X70154417Y-92256107D01*
X70133801Y-92241829D01*
X70114100Y-92226318D01*
X70095318Y-92209597D01*
X70077460Y-92191686D01*
X70060530Y-92172609D01*
X70044531Y-92152388D01*
X70029469Y-92131044D01*
X70015348Y-92108600D01*
X70002172Y-92085078D01*
X69989945Y-92060499D01*
X69978671Y-92034887D01*
X69968355Y-92008262D01*
X69959002Y-91980648D01*
X69950615Y-91952065D01*
X69943198Y-91922538D01*
X69936756Y-91892086D01*
X69931294Y-91860733D01*
X69926815Y-91828501D01*
X69923324Y-91795411D01*
X69920825Y-91761486D01*
X69919323Y-91726748D01*
X69918821Y-91691219D01*
X69915842Y-91663544D01*
X69914103Y-91635985D01*
X69913585Y-91608573D01*
X69914268Y-91581339D01*
X69916132Y-91554316D01*
X69919158Y-91527535D01*
X69923324Y-91501029D01*
X69928612Y-91474828D01*
X69942471Y-91423471D01*
X69960577Y-91373717D01*
X69982769Y-91325821D01*
X70008888Y-91280037D01*
X70038774Y-91236619D01*
X70072269Y-91195820D01*
X70109213Y-91157894D01*
X70149447Y-91123096D01*
X70170747Y-91106949D01*
X70192810Y-91091679D01*
X70215616Y-91077317D01*
X70239145Y-91063896D01*
X70263376Y-91051448D01*
X70288290Y-91040003D01*
X70313867Y-91029594D01*
X70340088Y-91020252D01*
X70372193Y-91005630D01*
X70401865Y-90991073D01*
X70429155Y-90976491D01*
X70454113Y-90961792D01*
X70476788Y-90946885D01*
X70497229Y-90931681D01*
X70515488Y-90916088D01*
X70531613Y-90900015D01*
X70545655Y-90883371D01*
X70551910Y-90874807D01*
X70557662Y-90866067D01*
X70562919Y-90857138D01*
X70567686Y-90848010D01*
X70571970Y-90838671D01*
X70575776Y-90829110D01*
X70579111Y-90819316D01*
X70581981Y-90809277D01*
X70586352Y-90788419D01*
X70588937Y-90766446D01*
X70589788Y-90743267D01*
X70589215Y-90720244D01*
X70587479Y-90698793D01*
X70584561Y-90678901D01*
X70582651Y-90669536D01*
X70580436Y-90660556D01*
X70577915Y-90651961D01*
X70575085Y-90643748D01*
X70571942Y-90635916D01*
X70568484Y-90628463D01*
X70564709Y-90621389D01*
X70560613Y-90614691D01*
X70556194Y-90608368D01*
X70551449Y-90602418D01*
X70546375Y-90596841D01*
X70540970Y-90591634D01*
X70535230Y-90586796D01*
X70529154Y-90582326D01*
X70522738Y-90578222D01*
X70515980Y-90574483D01*
X70508877Y-90571107D01*
X70501426Y-90568092D01*
X70493625Y-90565438D01*
X70485470Y-90563142D01*
X70476960Y-90561204D01*
X70468090Y-90559622D01*
X70458860Y-90558393D01*
X70449265Y-90557518D01*
X70428971Y-90556819D01*
X70408284Y-90557448D01*
X70388290Y-90559369D01*
X70368986Y-90562635D01*
X70350367Y-90567300D01*
X70341314Y-90570173D01*
X70332432Y-90573416D01*
X70323719Y-90577034D01*
X70315176Y-90581035D01*
X70306802Y-90585424D01*
X70298596Y-90590210D01*
X70290559Y-90595398D01*
X70282690Y-90600995D01*
X70274988Y-90607007D01*
X70267453Y-90613441D01*
X70260085Y-90620304D01*
X70252883Y-90627603D01*
X70245846Y-90635343D01*
X70238975Y-90643532D01*
X70232269Y-90652175D01*
X70225728Y-90661281D01*
X70219351Y-90670854D01*
X70213137Y-90680903D01*
X70201199Y-90702451D01*
X70189912Y-90725978D01*
X70179271Y-90751536D01*
X69937839Y-90478684D01*
X69945267Y-90458922D01*
X69953423Y-90439595D01*
X69962287Y-90420713D01*
X69971841Y-90402292D01*
X69982065Y-90384344D01*
X69992941Y-90366883D01*
X70004448Y-90349922D01*
X70016569Y-90333474D01*
X70029284Y-90317552D01*
X70042573Y-90302170D01*
X70056419Y-90287342D01*
X70070801Y-90273080D01*
X70085701Y-90259397D01*
X70101100Y-90246308D01*
X70116978Y-90233825D01*
X70133317Y-90221962D01*
X70150097Y-90210732D01*
X70167299Y-90200148D01*
X70184905Y-90190223D01*
X70202894Y-90180972D01*
X70221249Y-90172407D01*
X70239950Y-90164541D01*
X70258977Y-90157388D01*
X70278313Y-90150961D01*
X70297937Y-90145274D01*
X70317831Y-90140339D01*
X70337975Y-90136171D01*
X70358351Y-90132781D01*
X70378939Y-90130185D01*
X70399721Y-90128394D01*
X70420676Y-90127423D01*
X70441787Y-90127284D01*
X70473376Y-90128053D01*
G37*
G36*
X74490738Y-89367408D02*
G01*
X74490738Y-89794901D01*
X73959508Y-89794901D01*
X73925232Y-89794107D01*
X73892244Y-89791751D01*
X73860531Y-89787868D01*
X73830079Y-89782497D01*
X73800877Y-89775675D01*
X73772911Y-89767439D01*
X73746167Y-89757827D01*
X73720633Y-89746874D01*
X73696295Y-89734619D01*
X73673140Y-89721100D01*
X73651155Y-89706352D01*
X73630328Y-89690413D01*
X73610644Y-89673322D01*
X73592091Y-89655113D01*
X73574656Y-89635826D01*
X73558326Y-89615497D01*
X73543086Y-89594164D01*
X73528925Y-89571863D01*
X73515830Y-89548632D01*
X73503786Y-89524507D01*
X73492781Y-89499528D01*
X73482802Y-89473729D01*
X73473836Y-89447150D01*
X73465869Y-89419826D01*
X73458888Y-89391796D01*
X73452881Y-89363096D01*
X73443734Y-89303836D01*
X73438323Y-89242344D01*
X73436543Y-89178918D01*
X73433582Y-89142778D01*
X73433329Y-89130110D01*
X73768921Y-89130110D01*
X73769768Y-89161378D01*
X73770828Y-89176067D01*
X73772314Y-89190139D01*
X73774227Y-89203601D01*
X73776568Y-89216461D01*
X73779339Y-89228728D01*
X73782539Y-89240411D01*
X73786172Y-89251518D01*
X73790236Y-89262057D01*
X73794735Y-89272038D01*
X73799668Y-89281467D01*
X73805037Y-89290354D01*
X73810843Y-89298708D01*
X73817088Y-89306536D01*
X73823771Y-89313847D01*
X73830895Y-89320649D01*
X73838460Y-89326952D01*
X73846467Y-89332762D01*
X73854919Y-89338090D01*
X73863814Y-89342943D01*
X73873156Y-89347330D01*
X73882945Y-89351259D01*
X73893182Y-89354738D01*
X73903867Y-89357776D01*
X73915003Y-89360382D01*
X73926591Y-89362564D01*
X73938631Y-89364331D01*
X73964072Y-89366650D01*
X73991336Y-89367408D01*
X74152155Y-89367408D01*
X74152154Y-88897386D01*
X74016555Y-88897386D01*
X74014552Y-88897416D01*
X74012612Y-88897496D01*
X74010716Y-88897612D01*
X74008847Y-88897748D01*
X74005111Y-88898018D01*
X74003209Y-88898122D01*
X74001259Y-88898186D01*
X73972263Y-88899551D01*
X73945305Y-88902316D01*
X73920361Y-88906557D01*
X73908637Y-88909253D01*
X73897408Y-88912347D01*
X73886671Y-88915848D01*
X73876423Y-88919764D01*
X73866661Y-88924105D01*
X73857383Y-88928881D01*
X73848585Y-88934101D01*
X73840265Y-88939774D01*
X73832420Y-88945909D01*
X73825047Y-88952517D01*
X73818143Y-88959607D01*
X73811705Y-88967187D01*
X73805731Y-88975267D01*
X73800217Y-88983857D01*
X73795160Y-88992967D01*
X73790558Y-89002604D01*
X73786409Y-89012780D01*
X73782708Y-89023502D01*
X73779453Y-89034782D01*
X73776642Y-89046627D01*
X73774271Y-89059047D01*
X73772337Y-89072053D01*
X73770838Y-89085652D01*
X73769771Y-89099855D01*
X73768921Y-89130110D01*
X73433329Y-89130110D01*
X73432864Y-89106771D01*
X73434354Y-89070992D01*
X73438014Y-89035532D01*
X73443807Y-89000485D01*
X73451698Y-88965944D01*
X73461649Y-88932001D01*
X73473623Y-88898749D01*
X73487585Y-88866282D01*
X73503497Y-88834691D01*
X73521322Y-88804071D01*
X73541025Y-88774513D01*
X73562568Y-88746112D01*
X73585915Y-88718958D01*
X73611029Y-88693146D01*
X73637874Y-88668769D01*
X73616923Y-88645992D01*
X73597323Y-88622248D01*
X73579096Y-88597597D01*
X73562264Y-88572099D01*
X73546849Y-88545817D01*
X73532872Y-88518810D01*
X73520356Y-88491140D01*
X73509323Y-88462867D01*
X73499794Y-88434052D01*
X73491791Y-88404756D01*
X73485337Y-88375039D01*
X73480453Y-88344964D01*
X73477161Y-88314589D01*
X73475684Y-88287643D01*
X73813571Y-88287643D01*
X73814225Y-88310796D01*
X73815045Y-88321730D01*
X73816196Y-88332243D01*
X73817679Y-88342338D01*
X73819496Y-88352021D01*
X73821650Y-88361297D01*
X73824141Y-88370171D01*
X73826971Y-88378647D01*
X73830143Y-88386730D01*
X73833658Y-88394425D01*
X73837517Y-88401736D01*
X73841722Y-88408670D01*
X73846275Y-88415229D01*
X73851178Y-88421420D01*
X73856433Y-88427247D01*
X73862040Y-88432715D01*
X73868002Y-88437829D01*
X73874321Y-88442593D01*
X73880998Y-88447013D01*
X73888035Y-88451092D01*
X73895433Y-88454837D01*
X73903195Y-88458252D01*
X73911322Y-88461341D01*
X73919816Y-88464109D01*
X73928678Y-88466562D01*
X73937910Y-88468704D01*
X73947514Y-88470540D01*
X73967845Y-88473313D01*
X73989684Y-88474919D01*
X73992269Y-88475065D01*
X73994814Y-88475253D01*
X73999867Y-88475678D01*
X74002413Y-88475877D01*
X74004997Y-88476043D01*
X74007638Y-88476157D01*
X74010356Y-88476199D01*
X74152156Y-88476199D01*
X74152154Y-88075937D01*
X74042187Y-88075937D01*
X74033500Y-88076000D01*
X74025029Y-88076187D01*
X74016770Y-88076494D01*
X74008720Y-88076917D01*
X74000874Y-88077452D01*
X73993228Y-88078097D01*
X73985779Y-88078846D01*
X73978523Y-88079697D01*
X73966389Y-88081413D01*
X73954829Y-88083458D01*
X73943831Y-88085829D01*
X73933383Y-88088526D01*
X73923471Y-88091544D01*
X73914085Y-88094884D01*
X73905210Y-88098542D01*
X73896835Y-88102517D01*
X73888948Y-88106806D01*
X73881536Y-88111408D01*
X73874587Y-88116321D01*
X73868088Y-88121542D01*
X73862027Y-88127069D01*
X73856391Y-88132901D01*
X73851168Y-88139036D01*
X73846346Y-88145471D01*
X73841912Y-88152204D01*
X73837855Y-88159234D01*
X73834160Y-88166558D01*
X73830817Y-88174175D01*
X73827813Y-88182082D01*
X73825134Y-88190277D01*
X73822770Y-88198759D01*
X73820707Y-88207524D01*
X73817437Y-88225901D01*
X73815223Y-88245390D01*
X73813968Y-88265977D01*
X73813571Y-88287643D01*
X73475684Y-88287643D01*
X73475483Y-88283978D01*
X73475441Y-88253189D01*
X73477057Y-88222284D01*
X73479153Y-88153680D01*
X73481760Y-88121120D01*
X73485393Y-88089713D01*
X73490044Y-88059452D01*
X73495704Y-88030333D01*
X73502363Y-88002349D01*
X73510012Y-87975493D01*
X73518642Y-87949761D01*
X73528245Y-87925145D01*
X73538810Y-87901639D01*
X73550329Y-87879238D01*
X73562793Y-87857936D01*
X73576192Y-87837726D01*
X73590518Y-87818603D01*
X73605761Y-87800560D01*
X73621912Y-87783591D01*
X73638962Y-87767690D01*
X73656902Y-87752851D01*
X73675723Y-87739069D01*
X73695416Y-87726336D01*
X73715970Y-87714648D01*
X73737379Y-87703997D01*
X73759631Y-87694378D01*
X73782719Y-87685785D01*
X73806633Y-87678211D01*
X73831363Y-87671651D01*
X73856901Y-87666099D01*
X73910365Y-87657993D01*
X73966949Y-87653844D01*
X73975058Y-87653474D01*
X73983157Y-87653053D01*
X73991317Y-87652707D01*
X73995440Y-87652603D01*
X73999605Y-87652564D01*
X74490738Y-87652610D01*
X74490738Y-88476199D01*
X74490738Y-89367408D01*
G37*
G36*
X71309537Y-89794896D02*
G01*
X70424837Y-89794896D01*
X70424837Y-89367429D01*
X70973020Y-89367429D01*
X70973020Y-88899446D01*
X70486022Y-88899446D01*
X70486022Y-88471979D01*
X70973020Y-88471979D01*
X70973020Y-88080478D01*
X70424837Y-88080478D01*
X70424837Y-87650530D01*
X71309537Y-87650530D01*
X71309537Y-89794896D01*
G37*
G36*
X71470354Y-91361314D02*
G01*
X71990839Y-90158699D01*
X72257903Y-90158700D01*
X72257903Y-92303065D01*
X71940403Y-92303065D01*
X71940403Y-91115747D01*
X71425706Y-92303065D01*
X71152854Y-92303065D01*
X71152854Y-90158699D01*
X71470354Y-90158699D01*
X71470354Y-91361314D01*
G37*
G36*
X69766272Y-91399351D02*
G01*
X69763581Y-91514502D01*
X69755649Y-91621865D01*
X69742691Y-91721488D01*
X69724919Y-91813421D01*
X69702547Y-91897714D01*
X69675789Y-91974417D01*
X69644859Y-92043579D01*
X69609970Y-92105251D01*
X69571335Y-92159480D01*
X69529168Y-92206318D01*
X69506827Y-92226981D01*
X69483683Y-92245814D01*
X69459762Y-92262825D01*
X69435093Y-92278018D01*
X69409700Y-92291400D01*
X69383611Y-92302979D01*
X69356853Y-92312758D01*
X69329452Y-92320746D01*
X69272829Y-92331370D01*
X69213955Y-92334901D01*
X69186781Y-92334162D01*
X69160097Y-92331945D01*
X69133919Y-92328245D01*
X69108264Y-92323058D01*
X69083148Y-92316381D01*
X69058589Y-92308210D01*
X69034602Y-92298541D01*
X69011205Y-92287371D01*
X68988415Y-92274695D01*
X68966247Y-92260509D01*
X68944719Y-92244811D01*
X68923847Y-92227596D01*
X68903649Y-92208860D01*
X68884140Y-92188600D01*
X68865338Y-92166811D01*
X68847259Y-92143491D01*
X68826779Y-92113834D01*
X68807379Y-92081993D01*
X68789093Y-92047956D01*
X68771954Y-92011708D01*
X68755995Y-91973236D01*
X68741249Y-91932527D01*
X68727750Y-91889566D01*
X68715531Y-91844341D01*
X68704624Y-91796836D01*
X68695064Y-91747039D01*
X68686884Y-91694937D01*
X68680116Y-91640514D01*
X68674794Y-91583757D01*
X68670952Y-91524654D01*
X68668622Y-91463190D01*
X68667838Y-91399351D01*
X68667838Y-91062834D01*
X68667838Y-91062831D01*
X69002288Y-91062831D01*
X69002288Y-91397280D01*
X69003073Y-91456995D01*
X69005413Y-91512572D01*
X69009282Y-91564106D01*
X69014654Y-91611689D01*
X69021503Y-91655416D01*
X69029803Y-91695379D01*
X69034490Y-91713979D01*
X69039530Y-91731673D01*
X69044920Y-91748472D01*
X69050657Y-91764390D01*
X69057566Y-91781341D01*
X69064918Y-91797164D01*
X69072712Y-91811863D01*
X69080947Y-91825443D01*
X69089623Y-91837909D01*
X69098740Y-91849265D01*
X69108296Y-91859518D01*
X69118290Y-91868670D01*
X69123452Y-91872836D01*
X69128723Y-91876728D01*
X69134103Y-91880348D01*
X69139593Y-91883696D01*
X69145192Y-91886772D01*
X69150899Y-91889578D01*
X69156716Y-91892114D01*
X69162641Y-91894381D01*
X69168676Y-91896378D01*
X69174819Y-91898107D01*
X69181070Y-91899569D01*
X69187431Y-91900763D01*
X69193899Y-91901691D01*
X69200476Y-91902353D01*
X69213954Y-91902882D01*
X69226666Y-91902429D01*
X69239005Y-91901064D01*
X69250967Y-91898780D01*
X69262551Y-91895569D01*
X69273755Y-91891422D01*
X69284578Y-91886333D01*
X69295017Y-91880292D01*
X69305070Y-91873293D01*
X69314736Y-91865327D01*
X69324012Y-91856387D01*
X69332897Y-91846465D01*
X69341388Y-91835552D01*
X69349484Y-91823642D01*
X69357183Y-91810725D01*
X69364483Y-91796795D01*
X69371381Y-91781844D01*
X69377877Y-91765863D01*
X69383967Y-91748845D01*
X69389651Y-91730781D01*
X69394925Y-91711665D01*
X69399789Y-91691488D01*
X69404240Y-91670242D01*
X69408276Y-91647920D01*
X69411896Y-91624513D01*
X69415097Y-91600015D01*
X69417877Y-91574416D01*
X69420235Y-91547709D01*
X69422169Y-91519886D01*
X69423676Y-91490940D01*
X69424755Y-91460862D01*
X69425404Y-91429645D01*
X69425621Y-91397280D01*
X69425621Y-91062791D01*
X69424755Y-90999205D01*
X69422169Y-90940168D01*
X69417877Y-90885618D01*
X69411896Y-90835493D01*
X69404240Y-90789733D01*
X69394925Y-90748275D01*
X69383967Y-90711058D01*
X69371381Y-90678021D01*
X69357183Y-90649100D01*
X69341388Y-90624236D01*
X69324012Y-90603366D01*
X69305070Y-90586429D01*
X69295017Y-90579416D01*
X69284578Y-90573363D01*
X69273755Y-90568263D01*
X69262551Y-90564107D01*
X69239005Y-90558598D01*
X69213954Y-90556775D01*
X69213954Y-90556816D01*
X69201242Y-90557270D01*
X69188904Y-90558638D01*
X69176942Y-90560928D01*
X69165358Y-90564147D01*
X69154153Y-90568303D01*
X69143331Y-90573404D01*
X69132892Y-90579457D01*
X69122838Y-90586470D01*
X69113173Y-90594451D01*
X69103896Y-90603407D01*
X69095012Y-90613346D01*
X69086520Y-90624277D01*
X69078424Y-90636206D01*
X69070725Y-90649141D01*
X69063426Y-90663090D01*
X69056527Y-90678061D01*
X69050032Y-90694061D01*
X69043941Y-90711099D01*
X69038258Y-90729181D01*
X69032983Y-90748315D01*
X69028120Y-90768510D01*
X69023669Y-90789773D01*
X69019632Y-90812112D01*
X69016013Y-90835533D01*
X69012812Y-90860046D01*
X69010031Y-90885657D01*
X69007673Y-90912375D01*
X69005740Y-90940207D01*
X69004232Y-90969161D01*
X69003153Y-90999245D01*
X69002504Y-91030465D01*
X69002288Y-91062831D01*
X68667838Y-91062831D01*
X68670483Y-90945939D01*
X68678282Y-90837282D01*
X68691029Y-90736767D01*
X68708520Y-90644299D01*
X68730551Y-90559781D01*
X68756917Y-90483117D01*
X68787413Y-90414210D01*
X68821834Y-90352965D01*
X68859976Y-90299286D01*
X68880378Y-90275253D01*
X68901634Y-90253076D01*
X68923717Y-90232741D01*
X68946603Y-90214239D01*
X68970265Y-90197555D01*
X68994679Y-90182678D01*
X69019818Y-90169597D01*
X69045656Y-90158299D01*
X69072169Y-90148772D01*
X69099331Y-90141004D01*
X69155499Y-90130698D01*
X69213954Y-90127284D01*
X69213955Y-90127284D01*
X69234306Y-90127681D01*
X69254411Y-90128876D01*
X69274262Y-90130872D01*
X69293850Y-90133673D01*
X69313167Y-90137282D01*
X69332204Y-90141705D01*
X69350952Y-90146943D01*
X69369403Y-90153002D01*
X69387549Y-90159885D01*
X69405381Y-90167595D01*
X69422890Y-90176137D01*
X69440068Y-90185514D01*
X69456906Y-90195731D01*
X69473396Y-90206790D01*
X69489530Y-90218696D01*
X69505298Y-90231453D01*
X69520692Y-90245064D01*
X69535704Y-90259534D01*
X69550326Y-90274865D01*
X69564548Y-90291062D01*
X69578361Y-90308128D01*
X69591759Y-90326068D01*
X69604732Y-90344885D01*
X69617271Y-90364584D01*
X69629368Y-90385166D01*
X69641014Y-90406638D01*
X69652201Y-90429001D01*
X69662921Y-90452261D01*
X69682924Y-90501485D01*
X69700953Y-90554338D01*
X69708624Y-90580088D01*
X69715846Y-90606625D01*
X69722612Y-90633955D01*
X69728918Y-90662080D01*
X69734756Y-90691004D01*
X69740119Y-90720730D01*
X69749398Y-90782601D01*
X69756704Y-90847720D01*
X69761986Y-90916114D01*
X69765192Y-90987810D01*
X69766272Y-91062835D01*
X69766272Y-91397280D01*
X69766272Y-91399351D01*
G37*
G36*
X74492805Y-86888617D02*
G01*
X74069471Y-86888617D01*
X74069471Y-86376400D01*
X72338104Y-86376400D01*
X72338104Y-85953067D01*
X74069471Y-85953067D01*
X74069471Y-85442917D01*
X74492805Y-85442917D01*
X74492805Y-86888617D01*
G37*
G36*
X73226939Y-89794896D02*
G01*
X72890422Y-89794896D01*
X72890422Y-87650530D01*
X73226939Y-87650530D01*
X73226939Y-89794896D01*
G37*
G36*
X72625839Y-89794896D02*
G01*
X72289322Y-89794896D01*
X72289322Y-89227695D01*
X72166539Y-88971381D01*
X71863922Y-89794896D01*
X71461673Y-89794896D01*
X71950738Y-88518282D01*
X71536087Y-87650531D01*
X71927587Y-87650531D01*
X72289322Y-88446348D01*
X72289322Y-87650530D01*
X72625839Y-87650530D01*
X72625839Y-89794896D01*
G37*
G36*
X69495488Y-87286732D02*
G01*
X68610787Y-87286732D01*
X68610787Y-86858852D01*
X69158971Y-86858852D01*
X69158971Y-86391283D01*
X68671973Y-86391283D01*
X68671973Y-85963816D01*
X69158971Y-85963816D01*
X69158971Y-85571901D01*
X68610787Y-85571901D01*
X68610787Y-85142367D01*
X69495488Y-85142367D01*
X69495488Y-87286732D01*
G37*
G36*
X70699755Y-87286732D02*
G01*
X70361172Y-87286732D01*
X70361172Y-86562848D01*
X70170589Y-86562848D01*
X70160993Y-86562743D01*
X70151503Y-86562438D01*
X70142106Y-86561954D01*
X70132793Y-86561308D01*
X70123554Y-86560520D01*
X70114378Y-86559608D01*
X70096175Y-86557488D01*
X70070067Y-86553512D01*
X70044610Y-86548320D01*
X70019816Y-86541914D01*
X69995695Y-86534295D01*
X69972261Y-86525468D01*
X69949524Y-86515434D01*
X69927496Y-86504196D01*
X69906188Y-86491756D01*
X69885614Y-86478116D01*
X69865783Y-86463279D01*
X69846709Y-86447248D01*
X69828401Y-86430025D01*
X69810874Y-86411612D01*
X69794136Y-86392011D01*
X69778202Y-86371226D01*
X69763082Y-86349259D01*
X69748787Y-86326112D01*
X69735331Y-86301787D01*
X69722723Y-86276288D01*
X69710977Y-86249616D01*
X69700103Y-86221773D01*
X69690113Y-86192763D01*
X69681020Y-86162588D01*
X69672834Y-86131250D01*
X69665567Y-86098752D01*
X69659231Y-86065095D01*
X69653838Y-86030284D01*
X69649400Y-85994319D01*
X69645927Y-85957204D01*
X69643432Y-85918940D01*
X69641927Y-85879531D01*
X69641423Y-85838979D01*
X69641423Y-85838961D01*
X69977939Y-85838961D01*
X69978404Y-85866472D01*
X69979807Y-85892474D01*
X69982159Y-85916991D01*
X69985471Y-85940049D01*
X69989753Y-85961673D01*
X69995016Y-85981889D01*
X70001272Y-86000723D01*
X70008531Y-86018199D01*
X70016805Y-86034345D01*
X70026103Y-86049184D01*
X70036437Y-86062743D01*
X70047819Y-86075047D01*
X70060257Y-86086122D01*
X70073765Y-86095993D01*
X70088352Y-86104685D01*
X70104029Y-86112225D01*
X70110663Y-86114954D01*
X70117467Y-86117511D01*
X70124446Y-86119896D01*
X70131600Y-86122109D01*
X70138933Y-86124149D01*
X70146448Y-86126014D01*
X70154147Y-86127705D01*
X70162034Y-86129221D01*
X70170110Y-86130561D01*
X70178379Y-86131725D01*
X70186843Y-86132711D01*
X70195505Y-86133519D01*
X70204368Y-86134149D01*
X70213434Y-86134600D01*
X70222706Y-86134871D01*
X70232187Y-86134961D01*
X70361171Y-86134961D01*
X70361172Y-85571898D01*
X70232187Y-85571898D01*
X70215147Y-85572208D01*
X70198751Y-85573129D01*
X70182991Y-85574652D01*
X70167863Y-85576765D01*
X70153360Y-85579459D01*
X70146340Y-85581020D01*
X70139475Y-85582722D01*
X70132763Y-85584564D01*
X70126203Y-85586544D01*
X70119795Y-85588661D01*
X70113538Y-85590914D01*
X70104911Y-85594362D01*
X70096584Y-85598097D01*
X70088557Y-85602118D01*
X70080828Y-85606425D01*
X70073394Y-85611016D01*
X70066254Y-85615891D01*
X70059406Y-85621048D01*
X70052848Y-85626487D01*
X70046579Y-85632206D01*
X70040597Y-85638205D01*
X70034899Y-85644482D01*
X70029485Y-85651037D01*
X70024353Y-85657869D01*
X70019500Y-85664977D01*
X70014924Y-85672359D01*
X70010625Y-85680015D01*
X70006600Y-85687944D01*
X70002848Y-85696145D01*
X69999367Y-85704616D01*
X69996154Y-85713358D01*
X69993209Y-85722368D01*
X69990529Y-85731647D01*
X69988113Y-85741193D01*
X69985959Y-85751004D01*
X69984064Y-85761081D01*
X69982429Y-85771422D01*
X69981049Y-85782026D01*
X69979925Y-85792892D01*
X69978433Y-85815408D01*
X69977939Y-85838961D01*
X69641423Y-85838961D01*
X69643628Y-85757078D01*
X69650156Y-85680519D01*
X69660874Y-85609256D01*
X69675651Y-85543245D01*
X69694354Y-85482442D01*
X69705136Y-85453978D01*
X69716850Y-85426800D01*
X69729480Y-85400901D01*
X69743008Y-85376276D01*
X69757419Y-85352919D01*
X69772696Y-85330825D01*
X69788822Y-85309987D01*
X69805781Y-85290401D01*
X69823556Y-85272061D01*
X69842131Y-85254961D01*
X69861489Y-85239095D01*
X69881614Y-85224458D01*
X69902488Y-85211044D01*
X69924097Y-85198849D01*
X69946423Y-85187865D01*
X69969449Y-85178088D01*
X70017537Y-85162131D01*
X70068229Y-85150932D01*
X70121393Y-85144448D01*
X70133535Y-85143617D01*
X70145764Y-85142958D01*
X70158107Y-85142524D01*
X70164329Y-85142408D01*
X70170589Y-85142368D01*
X70699755Y-85142367D01*
X70699755Y-85571898D01*
X70699755Y-87286732D01*
G37*
G36*
X67649607Y-86346635D02*
G01*
X68168437Y-85142367D01*
X68437155Y-85142367D01*
X68437155Y-87286732D01*
X68119655Y-87286732D01*
X68119655Y-86101068D01*
X67605371Y-87286732D01*
X67332106Y-87286732D01*
X67332106Y-85142367D01*
X67649607Y-85142367D01*
X67649607Y-86346635D01*
G37*
G36*
X73316236Y-90158700D02*
G01*
X73316236Y-92303065D01*
X72431122Y-92303065D01*
X72431122Y-91873529D01*
X72979306Y-91873529D01*
X72979306Y-91407613D01*
X72492720Y-91407613D01*
X72492720Y-90980147D01*
X72979306Y-90980147D01*
X72979306Y-90588646D01*
X72431122Y-90588646D01*
X72431122Y-90158698D01*
X73316236Y-90158700D01*
G37*
G36*
X72015898Y-86435043D02*
G01*
X72014206Y-86485838D01*
X72011430Y-86535012D01*
X72007606Y-86582593D01*
X72002772Y-86628611D01*
X71996964Y-86673093D01*
X71990218Y-86716067D01*
X71982570Y-86757563D01*
X71967017Y-86826546D01*
X71948721Y-86890867D01*
X71927782Y-86950554D01*
X71904305Y-87005636D01*
X71878390Y-87056143D01*
X71850140Y-87102104D01*
X71819658Y-87143549D01*
X71803611Y-87162586D01*
X71787044Y-87180506D01*
X71769970Y-87197311D01*
X71752401Y-87213006D01*
X71734351Y-87227593D01*
X71715832Y-87241077D01*
X71696857Y-87253461D01*
X71677438Y-87264749D01*
X71657589Y-87274944D01*
X71637321Y-87284051D01*
X71616649Y-87292073D01*
X71595585Y-87299013D01*
X71574140Y-87304875D01*
X71552329Y-87309664D01*
X71507658Y-87316033D01*
X71461672Y-87318149D01*
X71432154Y-87317279D01*
X71403147Y-87314665D01*
X71374681Y-87310298D01*
X71346783Y-87304168D01*
X71319481Y-87296268D01*
X71292802Y-87286590D01*
X71266775Y-87275124D01*
X71241428Y-87261861D01*
X71216787Y-87246795D01*
X71192882Y-87229915D01*
X71169740Y-87211214D01*
X71147389Y-87190683D01*
X71125857Y-87168313D01*
X71105171Y-87144096D01*
X71085360Y-87118023D01*
X71066451Y-87090086D01*
X71048472Y-87060277D01*
X71031452Y-87028586D01*
X71015417Y-86995005D01*
X71000396Y-86959526D01*
X70986416Y-86922140D01*
X70973506Y-86882838D01*
X70961693Y-86841613D01*
X70951006Y-86798455D01*
X70941471Y-86753356D01*
X70933118Y-86706308D01*
X70925973Y-86657301D01*
X70920065Y-86606328D01*
X70915421Y-86553380D01*
X70912069Y-86498448D01*
X70910038Y-86441523D01*
X70909355Y-86382598D01*
X70909355Y-86048152D01*
X71250006Y-86048152D01*
X71250006Y-86382601D01*
X71250872Y-86446187D01*
X71253458Y-86505225D01*
X71257750Y-86559775D01*
X71263731Y-86609899D01*
X71271387Y-86655659D01*
X71280702Y-86697117D01*
X71291660Y-86734334D01*
X71304246Y-86767372D01*
X71318444Y-86796292D01*
X71334239Y-86821156D01*
X71351615Y-86842026D01*
X71370557Y-86858963D01*
X71380610Y-86865976D01*
X71391049Y-86872029D01*
X71401872Y-86877130D01*
X71413076Y-86881286D01*
X71436623Y-86886795D01*
X71461673Y-86888617D01*
X71474385Y-86888163D01*
X71486723Y-86886795D01*
X71498685Y-86884505D01*
X71510269Y-86881286D01*
X71521474Y-86877130D01*
X71532296Y-86872029D01*
X71542735Y-86865976D01*
X71552789Y-86858963D01*
X71562454Y-86850982D01*
X71571731Y-86842026D01*
X71580615Y-86832086D01*
X71589107Y-86821156D01*
X71597203Y-86809227D01*
X71604902Y-86796292D01*
X71612201Y-86782343D01*
X71619100Y-86767372D01*
X71625595Y-86751371D01*
X71631686Y-86734334D01*
X71637369Y-86716252D01*
X71642644Y-86697117D01*
X71647507Y-86676922D01*
X71651958Y-86655659D01*
X71655994Y-86633321D01*
X71659614Y-86609899D01*
X71662815Y-86585386D01*
X71665596Y-86559775D01*
X71667954Y-86533057D01*
X71669887Y-86505225D01*
X71671395Y-86476271D01*
X71672474Y-86446187D01*
X71673123Y-86414967D01*
X71673339Y-86382601D01*
X71673339Y-86048153D01*
X71672474Y-85984548D01*
X71669887Y-85925459D01*
X71665596Y-85870827D01*
X71659614Y-85820597D01*
X71651958Y-85774712D01*
X71642644Y-85733114D01*
X71631686Y-85695748D01*
X71619100Y-85662556D01*
X71604902Y-85633482D01*
X71589107Y-85608468D01*
X71571731Y-85587458D01*
X71552789Y-85570396D01*
X71542735Y-85563327D01*
X71532296Y-85557224D01*
X71521474Y-85552079D01*
X71510269Y-85547886D01*
X71486723Y-85542325D01*
X71461673Y-85540484D01*
X71461673Y-85540482D01*
X71453749Y-85540659D01*
X71445970Y-85541191D01*
X71438337Y-85542079D01*
X71430849Y-85543325D01*
X71423508Y-85544931D01*
X71416314Y-85546898D01*
X71409266Y-85549228D01*
X71402365Y-85551923D01*
X71395613Y-85554984D01*
X71389008Y-85558413D01*
X71382551Y-85562211D01*
X71376243Y-85566381D01*
X71370085Y-85570923D01*
X71364075Y-85575840D01*
X71358215Y-85581133D01*
X71352506Y-85586804D01*
X71346946Y-85592854D01*
X71341538Y-85599285D01*
X71336280Y-85606098D01*
X71331174Y-85613296D01*
X71326220Y-85620880D01*
X71321417Y-85628851D01*
X71316768Y-85637211D01*
X71312271Y-85645963D01*
X71307927Y-85655106D01*
X71303737Y-85664644D01*
X71295818Y-85684908D01*
X71288518Y-85706769D01*
X71281839Y-85730238D01*
X71274494Y-85761211D01*
X71268082Y-85794620D01*
X71262618Y-85830501D01*
X71258115Y-85868885D01*
X71254589Y-85909809D01*
X71252052Y-85953305D01*
X71250520Y-85999408D01*
X71250006Y-86048152D01*
X70909355Y-86048152D01*
X70909355Y-86048149D01*
X70909933Y-85993587D01*
X70911652Y-85940793D01*
X70914488Y-85889752D01*
X70918419Y-85840454D01*
X70923420Y-85792884D01*
X70929470Y-85747030D01*
X70936543Y-85702880D01*
X70944618Y-85660420D01*
X70953671Y-85619638D01*
X70963679Y-85580522D01*
X70974618Y-85543058D01*
X70986466Y-85507233D01*
X70999198Y-85473035D01*
X71012793Y-85440452D01*
X71027225Y-85409470D01*
X71042473Y-85380076D01*
X71061654Y-85347152D01*
X71081926Y-85316455D01*
X71092461Y-85301938D01*
X71103257Y-85287971D01*
X71114309Y-85274555D01*
X71125613Y-85261687D01*
X71137165Y-85249365D01*
X71148961Y-85237587D01*
X71160996Y-85226351D01*
X71173267Y-85215657D01*
X71185768Y-85205502D01*
X71198497Y-85195884D01*
X71211449Y-85186801D01*
X71224619Y-85178252D01*
X71238004Y-85170235D01*
X71251599Y-85162748D01*
X71265401Y-85155790D01*
X71279404Y-85149358D01*
X71293605Y-85143451D01*
X71307999Y-85138066D01*
X71322583Y-85133204D01*
X71337353Y-85128860D01*
X71352303Y-85125034D01*
X71367430Y-85121724D01*
X71398198Y-85116645D01*
X71429623Y-85113608D01*
X71461673Y-85112599D01*
X71491199Y-85113445D01*
X71520226Y-85115990D01*
X71548725Y-85120248D01*
X71576669Y-85126233D01*
X71604027Y-85133957D01*
X71630772Y-85143433D01*
X71656874Y-85154675D01*
X71682305Y-85167696D01*
X71707036Y-85182509D01*
X71731038Y-85199127D01*
X71754283Y-85217564D01*
X71776741Y-85237833D01*
X71798384Y-85259946D01*
X71819183Y-85283917D01*
X71839109Y-85309760D01*
X71858134Y-85337487D01*
X71876229Y-85367111D01*
X71893365Y-85398646D01*
X71909513Y-85432105D01*
X71924645Y-85467502D01*
X71938731Y-85504848D01*
X71951744Y-85544158D01*
X71963654Y-85585445D01*
X71974432Y-85628721D01*
X71984050Y-85674001D01*
X71992479Y-85721296D01*
X71999690Y-85770621D01*
X72005654Y-85821989D01*
X72010343Y-85875413D01*
X72013728Y-85930905D01*
X72015780Y-85988479D01*
X72016471Y-86048149D01*
X72016471Y-86382599D01*
X72016471Y-86382601D01*
X72015898Y-86435043D01*
G37*
G36*
X67759988Y-87961842D02*
G01*
X67759988Y-88471992D01*
X70189606Y-88471992D01*
X70189606Y-88899459D01*
X67759987Y-88899459D01*
X67759987Y-89407543D01*
X67332106Y-89407543D01*
X67332106Y-87961835D01*
X67759988Y-87961842D01*
G37*
D11*
X59195000Y-57235000D02*
X69195000Y-57235000D01*
X69195000Y-60235000D01*
X59195000Y-60235000D01*
X59195000Y-57235000D01*
D12*
X72438734Y-79131895D02*
X72438734Y-78331895D01*
X72438734Y-78331895D02*
X71981591Y-79131895D01*
X71981591Y-79131895D02*
X71981591Y-78331895D01*
X71143496Y-79055704D02*
X71181592Y-79093800D01*
X71181592Y-79093800D02*
X71295877Y-79131895D01*
X71295877Y-79131895D02*
X71372068Y-79131895D01*
X71372068Y-79131895D02*
X71486354Y-79093800D01*
X71486354Y-79093800D02*
X71562544Y-79017609D01*
X71562544Y-79017609D02*
X71600639Y-78941419D01*
X71600639Y-78941419D02*
X71638735Y-78789038D01*
X71638735Y-78789038D02*
X71638735Y-78674752D01*
X71638735Y-78674752D02*
X71600639Y-78522371D01*
X71600639Y-78522371D02*
X71562544Y-78446180D01*
X71562544Y-78446180D02*
X71486354Y-78369990D01*
X71486354Y-78369990D02*
X71372068Y-78331895D01*
X71372068Y-78331895D02*
X71295877Y-78331895D01*
X71295877Y-78331895D02*
X71181592Y-78369990D01*
X71181592Y-78369990D02*
X71143496Y-78408085D01*
X72438734Y-76631895D02*
X72438734Y-75831895D01*
X72438734Y-75831895D02*
X71981591Y-76631895D01*
X71981591Y-76631895D02*
X71981591Y-75831895D01*
X71143496Y-76555704D02*
X71181592Y-76593800D01*
X71181592Y-76593800D02*
X71295877Y-76631895D01*
X71295877Y-76631895D02*
X71372068Y-76631895D01*
X71372068Y-76631895D02*
X71486354Y-76593800D01*
X71486354Y-76593800D02*
X71562544Y-76517609D01*
X71562544Y-76517609D02*
X71600639Y-76441419D01*
X71600639Y-76441419D02*
X71638735Y-76289038D01*
X71638735Y-76289038D02*
X71638735Y-76174752D01*
X71638735Y-76174752D02*
X71600639Y-76022371D01*
X71600639Y-76022371D02*
X71562544Y-75946180D01*
X71562544Y-75946180D02*
X71486354Y-75869990D01*
X71486354Y-75869990D02*
X71372068Y-75831895D01*
X71372068Y-75831895D02*
X71295877Y-75831895D01*
X71295877Y-75831895D02*
X71181592Y-75869990D01*
X71181592Y-75869990D02*
X71143496Y-75908085D01*
X56476830Y-74093800D02*
X56362544Y-74131895D01*
X56362544Y-74131895D02*
X56172068Y-74131895D01*
X56172068Y-74131895D02*
X56095877Y-74093800D01*
X56095877Y-74093800D02*
X56057782Y-74055704D01*
X56057782Y-74055704D02*
X56019687Y-73979514D01*
X56019687Y-73979514D02*
X56019687Y-73903323D01*
X56019687Y-73903323D02*
X56057782Y-73827133D01*
X56057782Y-73827133D02*
X56095877Y-73789038D01*
X56095877Y-73789038D02*
X56172068Y-73750942D01*
X56172068Y-73750942D02*
X56324449Y-73712847D01*
X56324449Y-73712847D02*
X56400639Y-73674752D01*
X56400639Y-73674752D02*
X56438734Y-73636657D01*
X56438734Y-73636657D02*
X56476830Y-73560466D01*
X56476830Y-73560466D02*
X56476830Y-73484276D01*
X56476830Y-73484276D02*
X56438734Y-73408085D01*
X56438734Y-73408085D02*
X56400639Y-73369990D01*
X56400639Y-73369990D02*
X56324449Y-73331895D01*
X56324449Y-73331895D02*
X56133972Y-73331895D01*
X56133972Y-73331895D02*
X56019687Y-73369990D01*
X55295877Y-74131895D02*
X55676829Y-74131895D01*
X55676829Y-74131895D02*
X55676829Y-73331895D01*
X55219687Y-74208085D02*
X54610163Y-74208085D01*
X54533972Y-73331895D02*
X54076829Y-73331895D01*
X54305401Y-74131895D02*
X54305401Y-73331895D01*
X53886353Y-73331895D02*
X53353019Y-74131895D01*
X53353019Y-73331895D02*
X53886353Y-74131895D01*
X69557782Y-62631895D02*
X69938734Y-62631895D01*
X69938734Y-62631895D02*
X69938734Y-61831895D01*
X69291115Y-62631895D02*
X69291115Y-61831895D01*
X68910163Y-62631895D02*
X68910163Y-61831895D01*
X68910163Y-61831895D02*
X68453020Y-62631895D01*
X68453020Y-62631895D02*
X68453020Y-61831895D01*
X68072068Y-62631895D02*
X68072068Y-61831895D01*
X67614925Y-62631895D02*
X67957783Y-62174752D01*
X67614925Y-61831895D02*
X68072068Y-62289038D01*
X67310164Y-62593800D02*
X67195878Y-62631895D01*
X67195878Y-62631895D02*
X67005402Y-62631895D01*
X67005402Y-62631895D02*
X66929211Y-62593800D01*
X66929211Y-62593800D02*
X66891116Y-62555704D01*
X66891116Y-62555704D02*
X66853021Y-62479514D01*
X66853021Y-62479514D02*
X66853021Y-62403323D01*
X66853021Y-62403323D02*
X66891116Y-62327133D01*
X66891116Y-62327133D02*
X66929211Y-62289038D01*
X66929211Y-62289038D02*
X67005402Y-62250942D01*
X67005402Y-62250942D02*
X67157783Y-62212847D01*
X67157783Y-62212847D02*
X67233973Y-62174752D01*
X67233973Y-62174752D02*
X67272068Y-62136657D01*
X67272068Y-62136657D02*
X67310164Y-62060466D01*
X67310164Y-62060466D02*
X67310164Y-61984276D01*
X67310164Y-61984276D02*
X67272068Y-61908085D01*
X67272068Y-61908085D02*
X67233973Y-61869990D01*
X67233973Y-61869990D02*
X67157783Y-61831895D01*
X67157783Y-61831895D02*
X66967306Y-61831895D01*
X66967306Y-61831895D02*
X66853021Y-61869990D01*
X56019687Y-70869990D02*
X56095877Y-70831895D01*
X56095877Y-70831895D02*
X56210163Y-70831895D01*
X56210163Y-70831895D02*
X56324449Y-70869990D01*
X56324449Y-70869990D02*
X56400639Y-70946180D01*
X56400639Y-70946180D02*
X56438734Y-71022371D01*
X56438734Y-71022371D02*
X56476830Y-71174752D01*
X56476830Y-71174752D02*
X56476830Y-71289038D01*
X56476830Y-71289038D02*
X56438734Y-71441419D01*
X56438734Y-71441419D02*
X56400639Y-71517609D01*
X56400639Y-71517609D02*
X56324449Y-71593800D01*
X56324449Y-71593800D02*
X56210163Y-71631895D01*
X56210163Y-71631895D02*
X56133972Y-71631895D01*
X56133972Y-71631895D02*
X56019687Y-71593800D01*
X56019687Y-71593800D02*
X55981591Y-71555704D01*
X55981591Y-71555704D02*
X55981591Y-71289038D01*
X55981591Y-71289038D02*
X56133972Y-71289038D01*
X55638734Y-71631895D02*
X55638734Y-70831895D01*
X55638734Y-70831895D02*
X55181591Y-71631895D01*
X55181591Y-71631895D02*
X55181591Y-70831895D01*
X54800639Y-71631895D02*
X54800639Y-70831895D01*
X54800639Y-70831895D02*
X54610163Y-70831895D01*
X54610163Y-70831895D02*
X54495877Y-70869990D01*
X54495877Y-70869990D02*
X54419687Y-70946180D01*
X54419687Y-70946180D02*
X54381592Y-71022371D01*
X54381592Y-71022371D02*
X54343496Y-71174752D01*
X54343496Y-71174752D02*
X54343496Y-71289038D01*
X54343496Y-71289038D02*
X54381592Y-71441419D01*
X54381592Y-71441419D02*
X54419687Y-71517609D01*
X54419687Y-71517609D02*
X54495877Y-71593800D01*
X54495877Y-71593800D02*
X54610163Y-71631895D01*
X54610163Y-71631895D02*
X54800639Y-71631895D01*
X60981591Y-62631895D02*
X61248258Y-62250942D01*
X61438734Y-62631895D02*
X61438734Y-61831895D01*
X61438734Y-61831895D02*
X61133972Y-61831895D01*
X61133972Y-61831895D02*
X61057782Y-61869990D01*
X61057782Y-61869990D02*
X61019687Y-61908085D01*
X61019687Y-61908085D02*
X60981591Y-61984276D01*
X60981591Y-61984276D02*
X60981591Y-62098561D01*
X60981591Y-62098561D02*
X61019687Y-62174752D01*
X61019687Y-62174752D02*
X61057782Y-62212847D01*
X61057782Y-62212847D02*
X61133972Y-62250942D01*
X61133972Y-62250942D02*
X61438734Y-62250942D01*
X60638734Y-62212847D02*
X60372068Y-62212847D01*
X60257782Y-62631895D02*
X60638734Y-62631895D01*
X60638734Y-62631895D02*
X60638734Y-61831895D01*
X60638734Y-61831895D02*
X60257782Y-61831895D01*
X59457781Y-62555704D02*
X59495877Y-62593800D01*
X59495877Y-62593800D02*
X59610162Y-62631895D01*
X59610162Y-62631895D02*
X59686353Y-62631895D01*
X59686353Y-62631895D02*
X59800639Y-62593800D01*
X59800639Y-62593800D02*
X59876829Y-62517609D01*
X59876829Y-62517609D02*
X59914924Y-62441419D01*
X59914924Y-62441419D02*
X59953020Y-62289038D01*
X59953020Y-62289038D02*
X59953020Y-62174752D01*
X59953020Y-62174752D02*
X59914924Y-62022371D01*
X59914924Y-62022371D02*
X59876829Y-61946180D01*
X59876829Y-61946180D02*
X59800639Y-61869990D01*
X59800639Y-61869990D02*
X59686353Y-61831895D01*
X59686353Y-61831895D02*
X59610162Y-61831895D01*
X59610162Y-61831895D02*
X59495877Y-61869990D01*
X59495877Y-61869990D02*
X59457781Y-61908085D01*
X59114924Y-62631895D02*
X59114924Y-61831895D01*
X59114924Y-62212847D02*
X58657781Y-62212847D01*
X58657781Y-62631895D02*
X58657781Y-61831895D01*
X58391115Y-61831895D02*
X57933972Y-61831895D01*
X58162544Y-62631895D02*
X58162544Y-61831895D01*
X57705401Y-62593800D02*
X57591115Y-62631895D01*
X57591115Y-62631895D02*
X57400639Y-62631895D01*
X57400639Y-62631895D02*
X57324448Y-62593800D01*
X57324448Y-62593800D02*
X57286353Y-62555704D01*
X57286353Y-62555704D02*
X57248258Y-62479514D01*
X57248258Y-62479514D02*
X57248258Y-62403323D01*
X57248258Y-62403323D02*
X57286353Y-62327133D01*
X57286353Y-62327133D02*
X57324448Y-62289038D01*
X57324448Y-62289038D02*
X57400639Y-62250942D01*
X57400639Y-62250942D02*
X57553020Y-62212847D01*
X57553020Y-62212847D02*
X57629210Y-62174752D01*
X57629210Y-62174752D02*
X57667305Y-62136657D01*
X57667305Y-62136657D02*
X57705401Y-62060466D01*
X57705401Y-62060466D02*
X57705401Y-61984276D01*
X57705401Y-61984276D02*
X57667305Y-61908085D01*
X57667305Y-61908085D02*
X57629210Y-61869990D01*
X57629210Y-61869990D02*
X57553020Y-61831895D01*
X57553020Y-61831895D02*
X57362543Y-61831895D01*
X57362543Y-61831895D02*
X57248258Y-61869990D01*
X68696830Y-58385845D02*
X68582544Y-58423940D01*
X68582544Y-58423940D02*
X68392068Y-58423940D01*
X68392068Y-58423940D02*
X68315877Y-58385845D01*
X68315877Y-58385845D02*
X68277782Y-58347749D01*
X68277782Y-58347749D02*
X68239687Y-58271559D01*
X68239687Y-58271559D02*
X68239687Y-58195368D01*
X68239687Y-58195368D02*
X68277782Y-58119178D01*
X68277782Y-58119178D02*
X68315877Y-58081083D01*
X68315877Y-58081083D02*
X68392068Y-58042987D01*
X68392068Y-58042987D02*
X68544449Y-58004892D01*
X68544449Y-58004892D02*
X68620639Y-57966797D01*
X68620639Y-57966797D02*
X68658734Y-57928702D01*
X68658734Y-57928702D02*
X68696830Y-57852511D01*
X68696830Y-57852511D02*
X68696830Y-57776321D01*
X68696830Y-57776321D02*
X68658734Y-57700130D01*
X68658734Y-57700130D02*
X68620639Y-57662035D01*
X68620639Y-57662035D02*
X68544449Y-57623940D01*
X68544449Y-57623940D02*
X68353972Y-57623940D01*
X68353972Y-57623940D02*
X68239687Y-57662035D01*
X68087306Y-58500130D02*
X67477782Y-58500130D01*
X66830162Y-58423940D02*
X67096829Y-58042987D01*
X67287305Y-58423940D02*
X67287305Y-57623940D01*
X67287305Y-57623940D02*
X66982543Y-57623940D01*
X66982543Y-57623940D02*
X66906353Y-57662035D01*
X66906353Y-57662035D02*
X66868258Y-57700130D01*
X66868258Y-57700130D02*
X66830162Y-57776321D01*
X66830162Y-57776321D02*
X66830162Y-57890606D01*
X66830162Y-57890606D02*
X66868258Y-57966797D01*
X66868258Y-57966797D02*
X66906353Y-58004892D01*
X66906353Y-58004892D02*
X66982543Y-58042987D01*
X66982543Y-58042987D02*
X67287305Y-58042987D01*
X66563496Y-57623940D02*
X66030162Y-58423940D01*
X66030162Y-57623940D02*
X66563496Y-58423940D01*
X64506353Y-58119178D02*
X65115876Y-58119178D01*
X64963495Y-58271559D02*
X65115876Y-58119178D01*
X65115876Y-58119178D02*
X64963495Y-57966797D01*
X63515876Y-58004892D02*
X63249210Y-58004892D01*
X63134924Y-58423940D02*
X63515876Y-58423940D01*
X63515876Y-58423940D02*
X63515876Y-57623940D01*
X63515876Y-57623940D02*
X63134924Y-57623940D01*
X62830162Y-58385845D02*
X62715876Y-58423940D01*
X62715876Y-58423940D02*
X62525400Y-58423940D01*
X62525400Y-58423940D02*
X62449209Y-58385845D01*
X62449209Y-58385845D02*
X62411114Y-58347749D01*
X62411114Y-58347749D02*
X62373019Y-58271559D01*
X62373019Y-58271559D02*
X62373019Y-58195368D01*
X62373019Y-58195368D02*
X62411114Y-58119178D01*
X62411114Y-58119178D02*
X62449209Y-58081083D01*
X62449209Y-58081083D02*
X62525400Y-58042987D01*
X62525400Y-58042987D02*
X62677781Y-58004892D01*
X62677781Y-58004892D02*
X62753971Y-57966797D01*
X62753971Y-57966797D02*
X62792066Y-57928702D01*
X62792066Y-57928702D02*
X62830162Y-57852511D01*
X62830162Y-57852511D02*
X62830162Y-57776321D01*
X62830162Y-57776321D02*
X62792066Y-57700130D01*
X62792066Y-57700130D02*
X62753971Y-57662035D01*
X62753971Y-57662035D02*
X62677781Y-57623940D01*
X62677781Y-57623940D02*
X62487304Y-57623940D01*
X62487304Y-57623940D02*
X62373019Y-57662035D01*
X62030161Y-58423940D02*
X62030161Y-57623940D01*
X62030161Y-57623940D02*
X61725399Y-57623940D01*
X61725399Y-57623940D02*
X61649209Y-57662035D01*
X61649209Y-57662035D02*
X61611114Y-57700130D01*
X61611114Y-57700130D02*
X61573018Y-57776321D01*
X61573018Y-57776321D02*
X61573018Y-57890606D01*
X61573018Y-57890606D02*
X61611114Y-57966797D01*
X61611114Y-57966797D02*
X61649209Y-58004892D01*
X61649209Y-58004892D02*
X61725399Y-58042987D01*
X61725399Y-58042987D02*
X62030161Y-58042987D01*
X61420638Y-58500130D02*
X60811114Y-58500130D01*
X60734923Y-57623940D02*
X60277780Y-57623940D01*
X60506352Y-58423940D02*
X60506352Y-57623940D01*
X60087304Y-57623940D02*
X59553970Y-58423940D01*
X59553970Y-57623940D02*
X60087304Y-58423940D01*
X68696830Y-59673800D02*
X68582544Y-59711895D01*
X68582544Y-59711895D02*
X68392068Y-59711895D01*
X68392068Y-59711895D02*
X68315877Y-59673800D01*
X68315877Y-59673800D02*
X68277782Y-59635704D01*
X68277782Y-59635704D02*
X68239687Y-59559514D01*
X68239687Y-59559514D02*
X68239687Y-59483323D01*
X68239687Y-59483323D02*
X68277782Y-59407133D01*
X68277782Y-59407133D02*
X68315877Y-59369038D01*
X68315877Y-59369038D02*
X68392068Y-59330942D01*
X68392068Y-59330942D02*
X68544449Y-59292847D01*
X68544449Y-59292847D02*
X68620639Y-59254752D01*
X68620639Y-59254752D02*
X68658734Y-59216657D01*
X68658734Y-59216657D02*
X68696830Y-59140466D01*
X68696830Y-59140466D02*
X68696830Y-59064276D01*
X68696830Y-59064276D02*
X68658734Y-58988085D01*
X68658734Y-58988085D02*
X68620639Y-58949990D01*
X68620639Y-58949990D02*
X68544449Y-58911895D01*
X68544449Y-58911895D02*
X68353972Y-58911895D01*
X68353972Y-58911895D02*
X68239687Y-58949990D01*
X68087306Y-59788085D02*
X67477782Y-59788085D01*
X67401591Y-58911895D02*
X66944448Y-58911895D01*
X67173020Y-59711895D02*
X67173020Y-58911895D01*
X66753972Y-58911895D02*
X66220638Y-59711895D01*
X66220638Y-58911895D02*
X66753972Y-59711895D01*
X65306352Y-59407133D02*
X64696829Y-59407133D01*
X64849209Y-59559514D02*
X64696829Y-59407133D01*
X64696829Y-59407133D02*
X64849209Y-59254752D01*
X63706352Y-59292847D02*
X63439686Y-59292847D01*
X63325400Y-59711895D02*
X63706352Y-59711895D01*
X63706352Y-59711895D02*
X63706352Y-58911895D01*
X63706352Y-58911895D02*
X63325400Y-58911895D01*
X63020638Y-59673800D02*
X62906352Y-59711895D01*
X62906352Y-59711895D02*
X62715876Y-59711895D01*
X62715876Y-59711895D02*
X62639685Y-59673800D01*
X62639685Y-59673800D02*
X62601590Y-59635704D01*
X62601590Y-59635704D02*
X62563495Y-59559514D01*
X62563495Y-59559514D02*
X62563495Y-59483323D01*
X62563495Y-59483323D02*
X62601590Y-59407133D01*
X62601590Y-59407133D02*
X62639685Y-59369038D01*
X62639685Y-59369038D02*
X62715876Y-59330942D01*
X62715876Y-59330942D02*
X62868257Y-59292847D01*
X62868257Y-59292847D02*
X62944447Y-59254752D01*
X62944447Y-59254752D02*
X62982542Y-59216657D01*
X62982542Y-59216657D02*
X63020638Y-59140466D01*
X63020638Y-59140466D02*
X63020638Y-59064276D01*
X63020638Y-59064276D02*
X62982542Y-58988085D01*
X62982542Y-58988085D02*
X62944447Y-58949990D01*
X62944447Y-58949990D02*
X62868257Y-58911895D01*
X62868257Y-58911895D02*
X62677780Y-58911895D01*
X62677780Y-58911895D02*
X62563495Y-58949990D01*
X62220637Y-59711895D02*
X62220637Y-58911895D01*
X62220637Y-58911895D02*
X61915875Y-58911895D01*
X61915875Y-58911895D02*
X61839685Y-58949990D01*
X61839685Y-58949990D02*
X61801590Y-58988085D01*
X61801590Y-58988085D02*
X61763494Y-59064276D01*
X61763494Y-59064276D02*
X61763494Y-59178561D01*
X61763494Y-59178561D02*
X61801590Y-59254752D01*
X61801590Y-59254752D02*
X61839685Y-59292847D01*
X61839685Y-59292847D02*
X61915875Y-59330942D01*
X61915875Y-59330942D02*
X62220637Y-59330942D01*
X61611114Y-59788085D02*
X61001590Y-59788085D01*
X60353970Y-59711895D02*
X60620637Y-59330942D01*
X60811113Y-59711895D02*
X60811113Y-58911895D01*
X60811113Y-58911895D02*
X60506351Y-58911895D01*
X60506351Y-58911895D02*
X60430161Y-58949990D01*
X60430161Y-58949990D02*
X60392066Y-58988085D01*
X60392066Y-58988085D02*
X60353970Y-59064276D01*
X60353970Y-59064276D02*
X60353970Y-59178561D01*
X60353970Y-59178561D02*
X60392066Y-59254752D01*
X60392066Y-59254752D02*
X60430161Y-59292847D01*
X60430161Y-59292847D02*
X60506351Y-59330942D01*
X60506351Y-59330942D02*
X60811113Y-59330942D01*
X60087304Y-58911895D02*
X59553970Y-59711895D01*
X59553970Y-58911895D02*
X60087304Y-59711895D01*
X56438734Y-69131895D02*
X56438734Y-68331895D01*
X56438734Y-68331895D02*
X55981591Y-69131895D01*
X55981591Y-69131895D02*
X55981591Y-68331895D01*
X55143496Y-69055704D02*
X55181592Y-69093800D01*
X55181592Y-69093800D02*
X55295877Y-69131895D01*
X55295877Y-69131895D02*
X55372068Y-69131895D01*
X55372068Y-69131895D02*
X55486354Y-69093800D01*
X55486354Y-69093800D02*
X55562544Y-69017609D01*
X55562544Y-69017609D02*
X55600639Y-68941419D01*
X55600639Y-68941419D02*
X55638735Y-68789038D01*
X55638735Y-68789038D02*
X55638735Y-68674752D01*
X55638735Y-68674752D02*
X55600639Y-68522371D01*
X55600639Y-68522371D02*
X55562544Y-68446180D01*
X55562544Y-68446180D02*
X55486354Y-68369990D01*
X55486354Y-68369990D02*
X55372068Y-68331895D01*
X55372068Y-68331895D02*
X55295877Y-68331895D01*
X55295877Y-68331895D02*
X55181592Y-68369990D01*
X55181592Y-68369990D02*
X55143496Y-68408085D01*
X56438734Y-66631895D02*
X56438734Y-65831895D01*
X56438734Y-65831895D02*
X55981591Y-66631895D01*
X55981591Y-66631895D02*
X55981591Y-65831895D01*
X55143496Y-66555704D02*
X55181592Y-66593800D01*
X55181592Y-66593800D02*
X55295877Y-66631895D01*
X55295877Y-66631895D02*
X55372068Y-66631895D01*
X55372068Y-66631895D02*
X55486354Y-66593800D01*
X55486354Y-66593800D02*
X55562544Y-66517609D01*
X55562544Y-66517609D02*
X55600639Y-66441419D01*
X55600639Y-66441419D02*
X55638735Y-66289038D01*
X55638735Y-66289038D02*
X55638735Y-66174752D01*
X55638735Y-66174752D02*
X55600639Y-66022371D01*
X55600639Y-66022371D02*
X55562544Y-65946180D01*
X55562544Y-65946180D02*
X55486354Y-65869990D01*
X55486354Y-65869990D02*
X55372068Y-65831895D01*
X55372068Y-65831895D02*
X55295877Y-65831895D01*
X55295877Y-65831895D02*
X55181592Y-65869990D01*
X55181592Y-65869990D02*
X55143496Y-65908085D01*
X56476830Y-76593800D02*
X56362544Y-76631895D01*
X56362544Y-76631895D02*
X56172068Y-76631895D01*
X56172068Y-76631895D02*
X56095877Y-76593800D01*
X56095877Y-76593800D02*
X56057782Y-76555704D01*
X56057782Y-76555704D02*
X56019687Y-76479514D01*
X56019687Y-76479514D02*
X56019687Y-76403323D01*
X56019687Y-76403323D02*
X56057782Y-76327133D01*
X56057782Y-76327133D02*
X56095877Y-76289038D01*
X56095877Y-76289038D02*
X56172068Y-76250942D01*
X56172068Y-76250942D02*
X56324449Y-76212847D01*
X56324449Y-76212847D02*
X56400639Y-76174752D01*
X56400639Y-76174752D02*
X56438734Y-76136657D01*
X56438734Y-76136657D02*
X56476830Y-76060466D01*
X56476830Y-76060466D02*
X56476830Y-75984276D01*
X56476830Y-75984276D02*
X56438734Y-75908085D01*
X56438734Y-75908085D02*
X56400639Y-75869990D01*
X56400639Y-75869990D02*
X56324449Y-75831895D01*
X56324449Y-75831895D02*
X56133972Y-75831895D01*
X56133972Y-75831895D02*
X56019687Y-75869990D01*
X55295877Y-76631895D02*
X55676829Y-76631895D01*
X55676829Y-76631895D02*
X55676829Y-75831895D01*
X55219687Y-76708085D02*
X54610163Y-76708085D01*
X54533972Y-75831895D02*
X54076829Y-75831895D01*
X54305401Y-76631895D02*
X54305401Y-75831895D01*
X53886353Y-75831895D02*
X53353019Y-76631895D01*
X53353019Y-75831895D02*
X53886353Y-76631895D01*
X56057782Y-78331895D02*
X56438734Y-78331895D01*
X56438734Y-78331895D02*
X56476830Y-78712847D01*
X56476830Y-78712847D02*
X56438734Y-78674752D01*
X56438734Y-78674752D02*
X56362544Y-78636657D01*
X56362544Y-78636657D02*
X56172068Y-78636657D01*
X56172068Y-78636657D02*
X56095877Y-78674752D01*
X56095877Y-78674752D02*
X56057782Y-78712847D01*
X56057782Y-78712847D02*
X56019687Y-78789038D01*
X56019687Y-78789038D02*
X56019687Y-78979514D01*
X56019687Y-78979514D02*
X56057782Y-79055704D01*
X56057782Y-79055704D02*
X56095877Y-79093800D01*
X56095877Y-79093800D02*
X56172068Y-79131895D01*
X56172068Y-79131895D02*
X56362544Y-79131895D01*
X56362544Y-79131895D02*
X56438734Y-79093800D01*
X56438734Y-79093800D02*
X56476830Y-79055704D01*
X55791115Y-78331895D02*
X55524448Y-79131895D01*
X55524448Y-79131895D02*
X55257782Y-78331895D01*
D13*
X69718809Y-50882247D02*
X69528333Y-50882247D01*
X69528333Y-50882247D02*
X69433095Y-50929866D01*
X69433095Y-50929866D02*
X69337857Y-51025104D01*
X69337857Y-51025104D02*
X69290238Y-51215580D01*
X69290238Y-51215580D02*
X69290238Y-51548913D01*
X69290238Y-51548913D02*
X69337857Y-51739389D01*
X69337857Y-51739389D02*
X69433095Y-51834628D01*
X69433095Y-51834628D02*
X69528333Y-51882247D01*
X69528333Y-51882247D02*
X69718809Y-51882247D01*
X69718809Y-51882247D02*
X69814047Y-51834628D01*
X69814047Y-51834628D02*
X69909285Y-51739389D01*
X69909285Y-51739389D02*
X69956904Y-51548913D01*
X69956904Y-51548913D02*
X69956904Y-51215580D01*
X69956904Y-51215580D02*
X69909285Y-51025104D01*
X69909285Y-51025104D02*
X69814047Y-50929866D01*
X69814047Y-50929866D02*
X69718809Y-50882247D01*
X68861666Y-51215580D02*
X68861666Y-52215580D01*
X68861666Y-51263199D02*
X68766428Y-51215580D01*
X68766428Y-51215580D02*
X68575952Y-51215580D01*
X68575952Y-51215580D02*
X68480714Y-51263199D01*
X68480714Y-51263199D02*
X68433095Y-51310818D01*
X68433095Y-51310818D02*
X68385476Y-51406056D01*
X68385476Y-51406056D02*
X68385476Y-51691770D01*
X68385476Y-51691770D02*
X68433095Y-51787008D01*
X68433095Y-51787008D02*
X68480714Y-51834628D01*
X68480714Y-51834628D02*
X68575952Y-51882247D01*
X68575952Y-51882247D02*
X68766428Y-51882247D01*
X68766428Y-51882247D02*
X68861666Y-51834628D01*
X67575952Y-51834628D02*
X67671190Y-51882247D01*
X67671190Y-51882247D02*
X67861666Y-51882247D01*
X67861666Y-51882247D02*
X67956904Y-51834628D01*
X67956904Y-51834628D02*
X68004523Y-51739389D01*
X68004523Y-51739389D02*
X68004523Y-51358437D01*
X68004523Y-51358437D02*
X67956904Y-51263199D01*
X67956904Y-51263199D02*
X67861666Y-51215580D01*
X67861666Y-51215580D02*
X67671190Y-51215580D01*
X67671190Y-51215580D02*
X67575952Y-51263199D01*
X67575952Y-51263199D02*
X67528333Y-51358437D01*
X67528333Y-51358437D02*
X67528333Y-51453675D01*
X67528333Y-51453675D02*
X68004523Y-51548913D01*
X67099761Y-51215580D02*
X67099761Y-51882247D01*
X67099761Y-51310818D02*
X67052142Y-51263199D01*
X67052142Y-51263199D02*
X66956904Y-51215580D01*
X66956904Y-51215580D02*
X66814047Y-51215580D01*
X66814047Y-51215580D02*
X66718809Y-51263199D01*
X66718809Y-51263199D02*
X66671190Y-51358437D01*
X66671190Y-51358437D02*
X66671190Y-51882247D01*
X65861666Y-51358437D02*
X65718809Y-51406056D01*
X65718809Y-51406056D02*
X65671190Y-51453675D01*
X65671190Y-51453675D02*
X65623571Y-51548913D01*
X65623571Y-51548913D02*
X65623571Y-51691770D01*
X65623571Y-51691770D02*
X65671190Y-51787008D01*
X65671190Y-51787008D02*
X65718809Y-51834628D01*
X65718809Y-51834628D02*
X65814047Y-51882247D01*
X65814047Y-51882247D02*
X66194999Y-51882247D01*
X66194999Y-51882247D02*
X66194999Y-50882247D01*
X66194999Y-50882247D02*
X65861666Y-50882247D01*
X65861666Y-50882247D02*
X65766428Y-50929866D01*
X65766428Y-50929866D02*
X65718809Y-50977485D01*
X65718809Y-50977485D02*
X65671190Y-51072723D01*
X65671190Y-51072723D02*
X65671190Y-51167961D01*
X65671190Y-51167961D02*
X65718809Y-51263199D01*
X65718809Y-51263199D02*
X65766428Y-51310818D01*
X65766428Y-51310818D02*
X65861666Y-51358437D01*
X65861666Y-51358437D02*
X66194999Y-51358437D01*
X65194999Y-51882247D02*
X65194999Y-51215580D01*
X65194999Y-50882247D02*
X65242618Y-50929866D01*
X65242618Y-50929866D02*
X65194999Y-50977485D01*
X65194999Y-50977485D02*
X65147380Y-50929866D01*
X65147380Y-50929866D02*
X65194999Y-50882247D01*
X65194999Y-50882247D02*
X65194999Y-50977485D01*
X64718809Y-51882247D02*
X64718809Y-50882247D01*
X64623571Y-51501294D02*
X64337857Y-51882247D01*
X64337857Y-51215580D02*
X64718809Y-51596532D01*
X63528333Y-51834628D02*
X63623571Y-51882247D01*
X63623571Y-51882247D02*
X63814047Y-51882247D01*
X63814047Y-51882247D02*
X63909285Y-51834628D01*
X63909285Y-51834628D02*
X63956904Y-51739389D01*
X63956904Y-51739389D02*
X63956904Y-51358437D01*
X63956904Y-51358437D02*
X63909285Y-51263199D01*
X63909285Y-51263199D02*
X63814047Y-51215580D01*
X63814047Y-51215580D02*
X63623571Y-51215580D01*
X63623571Y-51215580D02*
X63528333Y-51263199D01*
X63528333Y-51263199D02*
X63480714Y-51358437D01*
X63480714Y-51358437D02*
X63480714Y-51453675D01*
X63480714Y-51453675D02*
X63956904Y-51548913D01*
X63099761Y-51834628D02*
X62956904Y-51882247D01*
X62956904Y-51882247D02*
X62718809Y-51882247D01*
X62718809Y-51882247D02*
X62623571Y-51834628D01*
X62623571Y-51834628D02*
X62575952Y-51787008D01*
X62575952Y-51787008D02*
X62528333Y-51691770D01*
X62528333Y-51691770D02*
X62528333Y-51596532D01*
X62528333Y-51596532D02*
X62575952Y-51501294D01*
X62575952Y-51501294D02*
X62623571Y-51453675D01*
X62623571Y-51453675D02*
X62718809Y-51406056D01*
X62718809Y-51406056D02*
X62909285Y-51358437D01*
X62909285Y-51358437D02*
X63004523Y-51310818D01*
X63004523Y-51310818D02*
X63052142Y-51263199D01*
X63052142Y-51263199D02*
X63099761Y-51167961D01*
X63099761Y-51167961D02*
X63099761Y-51072723D01*
X63099761Y-51072723D02*
X63052142Y-50977485D01*
X63052142Y-50977485D02*
X63004523Y-50929866D01*
X63004523Y-50929866D02*
X62909285Y-50882247D01*
X62909285Y-50882247D02*
X62671190Y-50882247D01*
X62671190Y-50882247D02*
X62528333Y-50929866D01*
X61718809Y-51834628D02*
X61814047Y-51882247D01*
X61814047Y-51882247D02*
X62004523Y-51882247D01*
X62004523Y-51882247D02*
X62099761Y-51834628D01*
X62099761Y-51834628D02*
X62147380Y-51739389D01*
X62147380Y-51739389D02*
X62147380Y-51358437D01*
X62147380Y-51358437D02*
X62099761Y-51263199D01*
X62099761Y-51263199D02*
X62004523Y-51215580D01*
X62004523Y-51215580D02*
X61814047Y-51215580D01*
X61814047Y-51215580D02*
X61718809Y-51263199D01*
X61718809Y-51263199D02*
X61671190Y-51358437D01*
X61671190Y-51358437D02*
X61671190Y-51453675D01*
X61671190Y-51453675D02*
X62147380Y-51548913D01*
X61242618Y-51215580D02*
X61242618Y-51882247D01*
X61242618Y-51310818D02*
X61194999Y-51263199D01*
X61194999Y-51263199D02*
X61099761Y-51215580D01*
X61099761Y-51215580D02*
X60956904Y-51215580D01*
X60956904Y-51215580D02*
X60861666Y-51263199D01*
X60861666Y-51263199D02*
X60814047Y-51358437D01*
X60814047Y-51358437D02*
X60814047Y-51882247D01*
X60385475Y-51834628D02*
X60290237Y-51882247D01*
X60290237Y-51882247D02*
X60099761Y-51882247D01*
X60099761Y-51882247D02*
X60004523Y-51834628D01*
X60004523Y-51834628D02*
X59956904Y-51739389D01*
X59956904Y-51739389D02*
X59956904Y-51691770D01*
X59956904Y-51691770D02*
X60004523Y-51596532D01*
X60004523Y-51596532D02*
X60099761Y-51548913D01*
X60099761Y-51548913D02*
X60242618Y-51548913D01*
X60242618Y-51548913D02*
X60337856Y-51501294D01*
X60337856Y-51501294D02*
X60385475Y-51406056D01*
X60385475Y-51406056D02*
X60385475Y-51358437D01*
X60385475Y-51358437D02*
X60337856Y-51263199D01*
X60337856Y-51263199D02*
X60242618Y-51215580D01*
X60242618Y-51215580D02*
X60099761Y-51215580D01*
X60099761Y-51215580D02*
X60004523Y-51263199D01*
X59385475Y-51882247D02*
X59480713Y-51834628D01*
X59480713Y-51834628D02*
X59528332Y-51787008D01*
X59528332Y-51787008D02*
X59575951Y-51691770D01*
X59575951Y-51691770D02*
X59575951Y-51406056D01*
X59575951Y-51406056D02*
X59528332Y-51310818D01*
X59528332Y-51310818D02*
X59480713Y-51263199D01*
X59480713Y-51263199D02*
X59385475Y-51215580D01*
X59385475Y-51215580D02*
X59242618Y-51215580D01*
X59242618Y-51215580D02*
X59147380Y-51263199D01*
X59147380Y-51263199D02*
X59099761Y-51310818D01*
X59099761Y-51310818D02*
X59052142Y-51406056D01*
X59052142Y-51406056D02*
X59052142Y-51691770D01*
X59052142Y-51691770D02*
X59099761Y-51787008D01*
X59099761Y-51787008D02*
X59147380Y-51834628D01*
X59147380Y-51834628D02*
X59242618Y-51882247D01*
X59242618Y-51882247D02*
X59385475Y-51882247D01*
X58623570Y-51882247D02*
X58623570Y-51215580D01*
X58623570Y-51406056D02*
X58575951Y-51310818D01*
X58575951Y-51310818D02*
X58528332Y-51263199D01*
X58528332Y-51263199D02*
X58433094Y-51215580D01*
X58433094Y-51215580D02*
X58337856Y-51215580D01*
X68647381Y-53492191D02*
X69123571Y-53492191D01*
X69123571Y-53492191D02*
X69123571Y-52492191D01*
X68314047Y-53492191D02*
X68314047Y-52825524D01*
X68314047Y-52492191D02*
X68361666Y-52539810D01*
X68361666Y-52539810D02*
X68314047Y-52587429D01*
X68314047Y-52587429D02*
X68266428Y-52539810D01*
X68266428Y-52539810D02*
X68314047Y-52492191D01*
X68314047Y-52492191D02*
X68314047Y-52587429D01*
X67980714Y-52825524D02*
X67599762Y-52825524D01*
X67837857Y-52492191D02*
X67837857Y-53349333D01*
X67837857Y-53349333D02*
X67790238Y-53444572D01*
X67790238Y-53444572D02*
X67695000Y-53492191D01*
X67695000Y-53492191D02*
X67599762Y-53492191D01*
X66885476Y-53444572D02*
X66980714Y-53492191D01*
X66980714Y-53492191D02*
X67171190Y-53492191D01*
X67171190Y-53492191D02*
X67266428Y-53444572D01*
X67266428Y-53444572D02*
X67314047Y-53349333D01*
X67314047Y-53349333D02*
X67314047Y-52968381D01*
X67314047Y-52968381D02*
X67266428Y-52873143D01*
X67266428Y-52873143D02*
X67171190Y-52825524D01*
X67171190Y-52825524D02*
X66980714Y-52825524D01*
X66980714Y-52825524D02*
X66885476Y-52873143D01*
X66885476Y-52873143D02*
X66837857Y-52968381D01*
X66837857Y-52968381D02*
X66837857Y-53063619D01*
X66837857Y-53063619D02*
X67314047Y-53158857D01*
X65171190Y-53492191D02*
X65647380Y-53492191D01*
X65647380Y-53492191D02*
X65647380Y-52492191D01*
X64837856Y-53492191D02*
X64837856Y-52825524D01*
X64837856Y-52492191D02*
X64885475Y-52539810D01*
X64885475Y-52539810D02*
X64837856Y-52587429D01*
X64837856Y-52587429D02*
X64790237Y-52539810D01*
X64790237Y-52539810D02*
X64837856Y-52492191D01*
X64837856Y-52492191D02*
X64837856Y-52587429D01*
X63933095Y-53492191D02*
X63933095Y-52492191D01*
X63933095Y-53444572D02*
X64028333Y-53492191D01*
X64028333Y-53492191D02*
X64218809Y-53492191D01*
X64218809Y-53492191D02*
X64314047Y-53444572D01*
X64314047Y-53444572D02*
X64361666Y-53396952D01*
X64361666Y-53396952D02*
X64409285Y-53301714D01*
X64409285Y-53301714D02*
X64409285Y-53016000D01*
X64409285Y-53016000D02*
X64361666Y-52920762D01*
X64361666Y-52920762D02*
X64314047Y-52873143D01*
X64314047Y-52873143D02*
X64218809Y-52825524D01*
X64218809Y-52825524D02*
X64028333Y-52825524D01*
X64028333Y-52825524D02*
X63933095Y-52873143D01*
X63028333Y-53492191D02*
X63028333Y-52968381D01*
X63028333Y-52968381D02*
X63075952Y-52873143D01*
X63075952Y-52873143D02*
X63171190Y-52825524D01*
X63171190Y-52825524D02*
X63361666Y-52825524D01*
X63361666Y-52825524D02*
X63456904Y-52873143D01*
X63028333Y-53444572D02*
X63123571Y-53492191D01*
X63123571Y-53492191D02*
X63361666Y-53492191D01*
X63361666Y-53492191D02*
X63456904Y-53444572D01*
X63456904Y-53444572D02*
X63504523Y-53349333D01*
X63504523Y-53349333D02*
X63504523Y-53254095D01*
X63504523Y-53254095D02*
X63456904Y-53158857D01*
X63456904Y-53158857D02*
X63361666Y-53111238D01*
X63361666Y-53111238D02*
X63123571Y-53111238D01*
X63123571Y-53111238D02*
X63028333Y-53063619D01*
X62552142Y-53492191D02*
X62552142Y-52825524D01*
X62552142Y-53016000D02*
X62504523Y-52920762D01*
X62504523Y-52920762D02*
X62456904Y-52873143D01*
X62456904Y-52873143D02*
X62361666Y-52825524D01*
X62361666Y-52825524D02*
X62266428Y-52825524D01*
X60980713Y-52492191D02*
X60885475Y-52492191D01*
X60885475Y-52492191D02*
X60790237Y-52539810D01*
X60790237Y-52539810D02*
X60742618Y-52587429D01*
X60742618Y-52587429D02*
X60694999Y-52682667D01*
X60694999Y-52682667D02*
X60647380Y-52873143D01*
X60647380Y-52873143D02*
X60647380Y-53111238D01*
X60647380Y-53111238D02*
X60694999Y-53301714D01*
X60694999Y-53301714D02*
X60742618Y-53396952D01*
X60742618Y-53396952D02*
X60790237Y-53444572D01*
X60790237Y-53444572D02*
X60885475Y-53492191D01*
X60885475Y-53492191D02*
X60980713Y-53492191D01*
X60980713Y-53492191D02*
X61075951Y-53444572D01*
X61075951Y-53444572D02*
X61123570Y-53396952D01*
X61123570Y-53396952D02*
X61171189Y-53301714D01*
X61171189Y-53301714D02*
X61218808Y-53111238D01*
X61218808Y-53111238D02*
X61218808Y-52873143D01*
X61218808Y-52873143D02*
X61171189Y-52682667D01*
X61171189Y-52682667D02*
X61123570Y-52587429D01*
X61123570Y-52587429D02*
X61075951Y-52539810D01*
X61075951Y-52539810D02*
X60980713Y-52492191D01*
X60218808Y-53396952D02*
X60171189Y-53444572D01*
X60171189Y-53444572D02*
X60218808Y-53492191D01*
X60218808Y-53492191D02*
X60266427Y-53444572D01*
X60266427Y-53444572D02*
X60218808Y-53396952D01*
X60218808Y-53396952D02*
X60218808Y-53492191D01*
X59218809Y-53492191D02*
X59790237Y-53492191D01*
X59504523Y-53492191D02*
X59504523Y-52492191D01*
X59504523Y-52492191D02*
X59599761Y-52635048D01*
X59599761Y-52635048D02*
X59694999Y-52730286D01*
X59694999Y-52730286D02*
X59790237Y-52777905D01*
D12*
X74476830Y-69093800D02*
X74362544Y-69131895D01*
X74362544Y-69131895D02*
X74172068Y-69131895D01*
X74172068Y-69131895D02*
X74095877Y-69093800D01*
X74095877Y-69093800D02*
X74057782Y-69055704D01*
X74057782Y-69055704D02*
X74019687Y-68979514D01*
X74019687Y-68979514D02*
X74019687Y-68903323D01*
X74019687Y-68903323D02*
X74057782Y-68827133D01*
X74057782Y-68827133D02*
X74095877Y-68789038D01*
X74095877Y-68789038D02*
X74172068Y-68750942D01*
X74172068Y-68750942D02*
X74324449Y-68712847D01*
X74324449Y-68712847D02*
X74400639Y-68674752D01*
X74400639Y-68674752D02*
X74438734Y-68636657D01*
X74438734Y-68636657D02*
X74476830Y-68560466D01*
X74476830Y-68560466D02*
X74476830Y-68484276D01*
X74476830Y-68484276D02*
X74438734Y-68408085D01*
X74438734Y-68408085D02*
X74400639Y-68369990D01*
X74400639Y-68369990D02*
X74324449Y-68331895D01*
X74324449Y-68331895D02*
X74133972Y-68331895D01*
X74133972Y-68331895D02*
X74019687Y-68369990D01*
X73219686Y-69131895D02*
X73486353Y-68750942D01*
X73676829Y-69131895D02*
X73676829Y-68331895D01*
X73676829Y-68331895D02*
X73372067Y-68331895D01*
X73372067Y-68331895D02*
X73295877Y-68369990D01*
X73295877Y-68369990D02*
X73257782Y-68408085D01*
X73257782Y-68408085D02*
X73219686Y-68484276D01*
X73219686Y-68484276D02*
X73219686Y-68598561D01*
X73219686Y-68598561D02*
X73257782Y-68674752D01*
X73257782Y-68674752D02*
X73295877Y-68712847D01*
X73295877Y-68712847D02*
X73372067Y-68750942D01*
X73372067Y-68750942D02*
X73676829Y-68750942D01*
X73067306Y-69208085D02*
X72457782Y-69208085D01*
X71810162Y-69131895D02*
X72076829Y-68750942D01*
X72267305Y-69131895D02*
X72267305Y-68331895D01*
X72267305Y-68331895D02*
X71962543Y-68331895D01*
X71962543Y-68331895D02*
X71886353Y-68369990D01*
X71886353Y-68369990D02*
X71848258Y-68408085D01*
X71848258Y-68408085D02*
X71810162Y-68484276D01*
X71810162Y-68484276D02*
X71810162Y-68598561D01*
X71810162Y-68598561D02*
X71848258Y-68674752D01*
X71848258Y-68674752D02*
X71886353Y-68712847D01*
X71886353Y-68712847D02*
X71962543Y-68750942D01*
X71962543Y-68750942D02*
X72267305Y-68750942D01*
X71543496Y-68331895D02*
X71010162Y-69131895D01*
X71010162Y-68331895D02*
X71543496Y-69131895D01*
X74476830Y-71593800D02*
X74362544Y-71631895D01*
X74362544Y-71631895D02*
X74172068Y-71631895D01*
X74172068Y-71631895D02*
X74095877Y-71593800D01*
X74095877Y-71593800D02*
X74057782Y-71555704D01*
X74057782Y-71555704D02*
X74019687Y-71479514D01*
X74019687Y-71479514D02*
X74019687Y-71403323D01*
X74019687Y-71403323D02*
X74057782Y-71327133D01*
X74057782Y-71327133D02*
X74095877Y-71289038D01*
X74095877Y-71289038D02*
X74172068Y-71250942D01*
X74172068Y-71250942D02*
X74324449Y-71212847D01*
X74324449Y-71212847D02*
X74400639Y-71174752D01*
X74400639Y-71174752D02*
X74438734Y-71136657D01*
X74438734Y-71136657D02*
X74476830Y-71060466D01*
X74476830Y-71060466D02*
X74476830Y-70984276D01*
X74476830Y-70984276D02*
X74438734Y-70908085D01*
X74438734Y-70908085D02*
X74400639Y-70869990D01*
X74400639Y-70869990D02*
X74324449Y-70831895D01*
X74324449Y-70831895D02*
X74133972Y-70831895D01*
X74133972Y-70831895D02*
X74019687Y-70869990D01*
X73219686Y-71631895D02*
X73486353Y-71250942D01*
X73676829Y-71631895D02*
X73676829Y-70831895D01*
X73676829Y-70831895D02*
X73372067Y-70831895D01*
X73372067Y-70831895D02*
X73295877Y-70869990D01*
X73295877Y-70869990D02*
X73257782Y-70908085D01*
X73257782Y-70908085D02*
X73219686Y-70984276D01*
X73219686Y-70984276D02*
X73219686Y-71098561D01*
X73219686Y-71098561D02*
X73257782Y-71174752D01*
X73257782Y-71174752D02*
X73295877Y-71212847D01*
X73295877Y-71212847D02*
X73372067Y-71250942D01*
X73372067Y-71250942D02*
X73676829Y-71250942D01*
X73067306Y-71708085D02*
X72457782Y-71708085D01*
X72381591Y-70831895D02*
X71924448Y-70831895D01*
X72153020Y-71631895D02*
X72153020Y-70831895D01*
X71733972Y-70831895D02*
X71200638Y-71631895D01*
X71200638Y-70831895D02*
X71733972Y-71631895D01*
X73019687Y-73369990D02*
X73095877Y-73331895D01*
X73095877Y-73331895D02*
X73210163Y-73331895D01*
X73210163Y-73331895D02*
X73324449Y-73369990D01*
X73324449Y-73369990D02*
X73400639Y-73446180D01*
X73400639Y-73446180D02*
X73438734Y-73522371D01*
X73438734Y-73522371D02*
X73476830Y-73674752D01*
X73476830Y-73674752D02*
X73476830Y-73789038D01*
X73476830Y-73789038D02*
X73438734Y-73941419D01*
X73438734Y-73941419D02*
X73400639Y-74017609D01*
X73400639Y-74017609D02*
X73324449Y-74093800D01*
X73324449Y-74093800D02*
X73210163Y-74131895D01*
X73210163Y-74131895D02*
X73133972Y-74131895D01*
X73133972Y-74131895D02*
X73019687Y-74093800D01*
X73019687Y-74093800D02*
X72981591Y-74055704D01*
X72981591Y-74055704D02*
X72981591Y-73789038D01*
X72981591Y-73789038D02*
X73133972Y-73789038D01*
X72638734Y-74131895D02*
X72638734Y-73331895D01*
X72638734Y-73331895D02*
X72181591Y-74131895D01*
X72181591Y-74131895D02*
X72181591Y-73331895D01*
X71800639Y-74131895D02*
X71800639Y-73331895D01*
X71800639Y-73331895D02*
X71610163Y-73331895D01*
X71610163Y-73331895D02*
X71495877Y-73369990D01*
X71495877Y-73369990D02*
X71419687Y-73446180D01*
X71419687Y-73446180D02*
X71381592Y-73522371D01*
X71381592Y-73522371D02*
X71343496Y-73674752D01*
X71343496Y-73674752D02*
X71343496Y-73789038D01*
X71343496Y-73789038D02*
X71381592Y-73941419D01*
X71381592Y-73941419D02*
X71419687Y-74017609D01*
X71419687Y-74017609D02*
X71495877Y-74093800D01*
X71495877Y-74093800D02*
X71610163Y-74131895D01*
X71610163Y-74131895D02*
X71800639Y-74131895D01*
X72057782Y-65831895D02*
X72438734Y-65831895D01*
X72438734Y-65831895D02*
X72476830Y-66212847D01*
X72476830Y-66212847D02*
X72438734Y-66174752D01*
X72438734Y-66174752D02*
X72362544Y-66136657D01*
X72362544Y-66136657D02*
X72172068Y-66136657D01*
X72172068Y-66136657D02*
X72095877Y-66174752D01*
X72095877Y-66174752D02*
X72057782Y-66212847D01*
X72057782Y-66212847D02*
X72019687Y-66289038D01*
X72019687Y-66289038D02*
X72019687Y-66479514D01*
X72019687Y-66479514D02*
X72057782Y-66555704D01*
X72057782Y-66555704D02*
X72095877Y-66593800D01*
X72095877Y-66593800D02*
X72172068Y-66631895D01*
X72172068Y-66631895D02*
X72362544Y-66631895D01*
X72362544Y-66631895D02*
X72438734Y-66593800D01*
X72438734Y-66593800D02*
X72476830Y-66555704D01*
X71791115Y-65831895D02*
X71524448Y-66631895D01*
X71524448Y-66631895D02*
X71257782Y-65831895D01*
D14*
%TO.C,SensorL1*%
X57185000Y-63675000D02*
X63155000Y-63675000D01*
X57185000Y-81295000D02*
X57185000Y-63675000D01*
X57945000Y-64435000D02*
X57945000Y-72485000D01*
X57945000Y-80535000D02*
X57945000Y-72485000D01*
X60895000Y-63685000D02*
X60895000Y-64435000D01*
X60895000Y-64435000D02*
X57945000Y-64435000D01*
X60895000Y-80535000D02*
X57945000Y-80535000D01*
X60895000Y-81285000D02*
X60895000Y-80535000D01*
X62395000Y-63685000D02*
X63145000Y-63685000D01*
X62395000Y-65485000D02*
X62395000Y-63685000D01*
X62395000Y-66985000D02*
X63145000Y-66985000D01*
X62395000Y-77985000D02*
X62395000Y-66985000D01*
X62395000Y-79485000D02*
X63145000Y-79485000D01*
X62395000Y-81285000D02*
X62395000Y-79485000D01*
X63145000Y-63685000D02*
X63145000Y-65485000D01*
X63145000Y-65485000D02*
X62395000Y-65485000D01*
X63145000Y-66985000D02*
X63145000Y-77985000D01*
X63145000Y-77985000D02*
X62395000Y-77985000D01*
X63145000Y-79485000D02*
X63145000Y-81285000D01*
X63145000Y-81285000D02*
X62395000Y-81285000D01*
X63155000Y-63675000D02*
X63155000Y-81295000D01*
X63155000Y-81295000D02*
X57185000Y-81295000D01*
X63445000Y-80335000D02*
X63445000Y-81585000D01*
X63445000Y-81585000D02*
X62195000Y-81585000D01*
%TO.C,SensorR1*%
X64445000Y-63385000D02*
X65695000Y-63385000D01*
X64445000Y-64635000D02*
X64445000Y-63385000D01*
X64735000Y-63675000D02*
X70705000Y-63675000D01*
X64735000Y-81295000D02*
X64735000Y-63675000D01*
X64745000Y-63685000D02*
X65495000Y-63685000D01*
X64745000Y-65485000D02*
X64745000Y-63685000D01*
X64745000Y-66985000D02*
X65495000Y-66985000D01*
X64745000Y-77985000D02*
X64745000Y-66985000D01*
X64745000Y-79485000D02*
X65495000Y-79485000D01*
X64745000Y-81285000D02*
X64745000Y-79485000D01*
X65495000Y-63685000D02*
X65495000Y-65485000D01*
X65495000Y-65485000D02*
X64745000Y-65485000D01*
X65495000Y-66985000D02*
X65495000Y-77985000D01*
X65495000Y-77985000D02*
X64745000Y-77985000D01*
X65495000Y-79485000D02*
X65495000Y-81285000D01*
X65495000Y-81285000D02*
X64745000Y-81285000D01*
X66995000Y-63685000D02*
X66995000Y-64435000D01*
X66995000Y-64435000D02*
X69945000Y-64435000D01*
X66995000Y-80535000D02*
X69945000Y-80535000D01*
X66995000Y-81285000D02*
X66995000Y-80535000D01*
X69945000Y-64435000D02*
X69945000Y-72485000D01*
X69945000Y-80535000D02*
X69945000Y-72485000D01*
X70705000Y-63675000D02*
X70705000Y-81295000D01*
X70705000Y-81295000D02*
X64735000Y-81295000D01*
%TD*%
M02*
