%TF.GenerationSoftware,KiCad,Pcbnew,9.0.6*%
%TF.CreationDate,2026-03-08T07:06:23+01:00*%
%TF.ProjectId,OpenBikeSensorLiteLidar,4f70656e-4269-46b6-9553-656e736f724c,0.1*%
%TF.SameCoordinates,Original*%
%TF.FileFunction,Legend,Top*%
%TF.FilePolarity,Positive*%
%FSLAX46Y46*%
G04 Gerber Fmt 4.6, Leading zero omitted, Abs format (unit mm)*
G04 Created by KiCad (PCBNEW 9.0.6) date 2026-03-08 07:06:23*
%MOMM*%
%LPD*%
G01*
G04 APERTURE LIST*
%ADD10C,0.000000*%
%ADD11C,0.150000*%
%ADD12C,0.120000*%
G04 APERTURE END LIST*
D10*
G36*
X54694603Y-86235237D02*
G01*
X54704935Y-86236131D01*
X54714898Y-86237591D01*
X54724493Y-86239591D01*
X54733721Y-86242108D01*
X54742582Y-86245117D01*
X54751079Y-86248592D01*
X54759213Y-86252509D01*
X54766984Y-86256843D01*
X54774395Y-86261571D01*
X54781446Y-86266666D01*
X54788138Y-86272104D01*
X54794474Y-86277860D01*
X54800453Y-86283911D01*
X54806078Y-86290230D01*
X54811349Y-86296793D01*
X54816049Y-86303107D01*
X54820325Y-86309485D01*
X54824196Y-86316058D01*
X54827678Y-86322955D01*
X54829277Y-86326567D01*
X54830786Y-86330309D01*
X54832205Y-86334197D01*
X54833537Y-86338248D01*
X54834784Y-86342478D01*
X54835948Y-86346904D01*
X54838036Y-86356407D01*
X54839816Y-86366888D01*
X54841305Y-86378477D01*
X54842520Y-86391304D01*
X54843477Y-86405501D01*
X54844193Y-86421197D01*
X54844684Y-86438524D01*
X54844966Y-86457611D01*
X54845057Y-86478589D01*
X54844684Y-86518333D01*
X54843477Y-86551118D01*
X54842520Y-86565223D01*
X54841305Y-86577974D01*
X54839816Y-86589502D01*
X54838036Y-86599933D01*
X54835948Y-86609398D01*
X54833537Y-86618025D01*
X54830786Y-86625943D01*
X54827677Y-86633281D01*
X54824196Y-86640167D01*
X54820325Y-86646730D01*
X54816049Y-86653100D01*
X54811349Y-86659405D01*
X54806078Y-86665968D01*
X54800453Y-86672288D01*
X54794474Y-86678338D01*
X54788138Y-86684095D01*
X54781446Y-86689533D01*
X54774395Y-86694628D01*
X54766984Y-86699355D01*
X54759213Y-86703689D01*
X54751079Y-86707607D01*
X54746876Y-86709401D01*
X54742582Y-86711082D01*
X54738197Y-86712646D01*
X54733720Y-86714090D01*
X54729153Y-86715411D01*
X54724493Y-86716607D01*
X54719742Y-86717673D01*
X54714898Y-86718607D01*
X54709963Y-86719406D01*
X54704935Y-86720067D01*
X54699815Y-86720586D01*
X54694603Y-86720961D01*
X54689297Y-86721188D01*
X54683899Y-86721264D01*
X54674880Y-86721004D01*
X54666092Y-86720232D01*
X54657524Y-86718967D01*
X54649164Y-86717223D01*
X54641003Y-86715019D01*
X54633028Y-86712370D01*
X54625229Y-86709292D01*
X54617595Y-86705803D01*
X54610114Y-86701918D01*
X54602777Y-86697655D01*
X54595571Y-86693029D01*
X54588486Y-86688057D01*
X54581510Y-86682756D01*
X54574634Y-86677142D01*
X54567845Y-86671231D01*
X54561133Y-86665040D01*
X54560789Y-87041543D01*
X54566892Y-87034737D01*
X54573254Y-87028370D01*
X54579869Y-87022442D01*
X54586730Y-87016952D01*
X54593833Y-87011901D01*
X54601172Y-87007289D01*
X54608742Y-87003115D01*
X54616536Y-86999381D01*
X54624550Y-86996086D01*
X54632779Y-86993230D01*
X54641215Y-86990813D01*
X54649855Y-86988835D01*
X54658692Y-86987297D01*
X54667721Y-86986198D01*
X54676937Y-86985538D01*
X54686333Y-86985318D01*
X54693301Y-86985486D01*
X54700312Y-86985987D01*
X54707348Y-86986820D01*
X54714392Y-86987985D01*
X54721428Y-86989479D01*
X54728437Y-86991303D01*
X54735403Y-86993454D01*
X54742308Y-86995932D01*
X54749134Y-86998735D01*
X54755865Y-87001861D01*
X54762483Y-87005311D01*
X54768970Y-87009083D01*
X54775310Y-87013175D01*
X54781485Y-87017586D01*
X54787478Y-87022315D01*
X54793271Y-87027361D01*
X54798848Y-87032723D01*
X54804190Y-87038399D01*
X54809281Y-87044388D01*
X54814102Y-87050689D01*
X54818638Y-87057301D01*
X54822870Y-87064223D01*
X54826781Y-87071454D01*
X54830354Y-87078991D01*
X54833572Y-87086835D01*
X54836417Y-87094983D01*
X54838871Y-87103435D01*
X54840919Y-87112189D01*
X54842541Y-87121245D01*
X54843721Y-87130600D01*
X54844442Y-87140255D01*
X54844687Y-87150207D01*
X54844687Y-87466013D01*
X54749119Y-87466013D01*
X54749119Y-87183042D01*
X54749002Y-87177057D01*
X54748653Y-87171234D01*
X54748079Y-87165574D01*
X54747283Y-87160079D01*
X54746271Y-87154751D01*
X54745048Y-87149592D01*
X54743619Y-87144604D01*
X54741988Y-87139789D01*
X54740161Y-87135148D01*
X54738143Y-87130683D01*
X54735938Y-87126397D01*
X54733552Y-87122291D01*
X54730990Y-87118367D01*
X54728256Y-87114626D01*
X54725355Y-87111072D01*
X54722294Y-87107705D01*
X54719075Y-87104528D01*
X54715705Y-87101542D01*
X54712189Y-87098749D01*
X54708531Y-87096152D01*
X54704737Y-87093752D01*
X54700810Y-87091550D01*
X54696757Y-87089549D01*
X54692583Y-87087751D01*
X54688292Y-87086158D01*
X54683889Y-87084770D01*
X54679379Y-87083592D01*
X54674768Y-87082623D01*
X54670059Y-87081866D01*
X54665259Y-87081323D01*
X54660372Y-87080996D01*
X54655404Y-87080887D01*
X54650351Y-87080996D01*
X54645385Y-87081323D01*
X54640512Y-87081866D01*
X54635735Y-87082623D01*
X54631060Y-87083592D01*
X54626492Y-87084770D01*
X54622034Y-87086158D01*
X54617693Y-87087751D01*
X54613473Y-87089549D01*
X54609378Y-87091550D01*
X54605414Y-87093752D01*
X54601585Y-87096152D01*
X54597896Y-87098750D01*
X54594351Y-87101542D01*
X54590957Y-87104528D01*
X54587717Y-87107705D01*
X54584636Y-87111072D01*
X54581719Y-87114627D01*
X54578971Y-87118367D01*
X54576396Y-87122291D01*
X54574000Y-87126397D01*
X54571787Y-87130683D01*
X54569762Y-87135148D01*
X54567930Y-87139789D01*
X54566295Y-87144604D01*
X54564863Y-87149592D01*
X54563638Y-87154751D01*
X54562625Y-87160079D01*
X54561829Y-87165574D01*
X54561254Y-87171234D01*
X54560906Y-87177057D01*
X54560789Y-87183042D01*
X54560789Y-87466014D01*
X54465195Y-87466014D01*
X54465195Y-86478562D01*
X54561133Y-86478562D01*
X54561508Y-86504529D01*
X54562152Y-86517548D01*
X54563256Y-86530417D01*
X54564936Y-86543006D01*
X54567310Y-86555185D01*
X54570493Y-86566822D01*
X54572425Y-86572397D01*
X54574603Y-86577788D01*
X54577042Y-86582978D01*
X54579757Y-86587952D01*
X54582761Y-86592692D01*
X54586070Y-86597184D01*
X54589699Y-86601409D01*
X54593661Y-86605353D01*
X54597971Y-86608998D01*
X54602645Y-86612329D01*
X54607695Y-86615329D01*
X54613139Y-86617982D01*
X54618988Y-86620271D01*
X54625259Y-86622181D01*
X54631966Y-86623695D01*
X54639124Y-86624796D01*
X54646746Y-86625469D01*
X54654848Y-86625697D01*
X54663034Y-86625482D01*
X54670736Y-86624848D01*
X54677967Y-86623806D01*
X54684743Y-86622372D01*
X54691078Y-86620559D01*
X54696987Y-86618381D01*
X54702485Y-86615851D01*
X54707587Y-86612984D01*
X54712307Y-86609792D01*
X54716661Y-86606291D01*
X54720662Y-86602492D01*
X54724326Y-86598411D01*
X54727667Y-86594061D01*
X54730701Y-86589456D01*
X54733441Y-86584609D01*
X54735903Y-86579534D01*
X54738102Y-86574245D01*
X54740052Y-86568756D01*
X54741767Y-86563080D01*
X54743264Y-86557231D01*
X54744556Y-86551223D01*
X54745658Y-86545070D01*
X54747352Y-86532382D01*
X54748464Y-86519277D01*
X54749113Y-86505866D01*
X54749415Y-86492257D01*
X54749490Y-86478562D01*
X54749113Y-86450938D01*
X54748464Y-86437398D01*
X54747352Y-86424185D01*
X54745658Y-86411406D01*
X54743264Y-86399170D01*
X54740052Y-86387586D01*
X54738102Y-86382071D01*
X54735903Y-86376760D01*
X54733441Y-86371666D01*
X54730701Y-86366803D01*
X54727667Y-86362184D01*
X54724326Y-86357822D01*
X54720662Y-86353731D01*
X54716661Y-86349925D01*
X54712307Y-86346418D01*
X54707587Y-86343222D01*
X54702485Y-86340351D01*
X54696987Y-86337819D01*
X54691078Y-86335639D01*
X54684743Y-86333826D01*
X54677967Y-86332392D01*
X54670736Y-86331350D01*
X54663034Y-86330716D01*
X54654848Y-86330501D01*
X54646748Y-86330729D01*
X54639128Y-86331402D01*
X54631972Y-86332504D01*
X54625267Y-86334019D01*
X54618997Y-86335930D01*
X54613148Y-86338223D01*
X54607706Y-86340879D01*
X54602656Y-86343884D01*
X54597983Y-86347221D01*
X54593673Y-86350874D01*
X54589710Y-86354827D01*
X54586082Y-86359064D01*
X54582773Y-86363568D01*
X54579768Y-86368324D01*
X54577053Y-86373316D01*
X54574613Y-86378527D01*
X54572434Y-86383941D01*
X54570502Y-86389541D01*
X54568801Y-86395313D01*
X54567316Y-86401240D01*
X54566035Y-86407305D01*
X54564941Y-86413493D01*
X54563259Y-86426172D01*
X54562154Y-86439147D01*
X54561509Y-86452290D01*
X54561207Y-86465471D01*
X54561133Y-86478562D01*
X54465195Y-86478562D01*
X54465195Y-86240569D01*
X54561133Y-86240569D01*
X54561133Y-86290232D01*
X54566920Y-86284204D01*
X54573023Y-86278436D01*
X54579427Y-86272946D01*
X54586119Y-86267750D01*
X54593085Y-86262868D01*
X54600312Y-86258317D01*
X54607785Y-86254115D01*
X54615491Y-86250280D01*
X54623417Y-86246829D01*
X54631549Y-86243780D01*
X54639873Y-86241151D01*
X54648376Y-86238961D01*
X54657043Y-86237226D01*
X54665862Y-86235964D01*
X54674819Y-86235195D01*
X54683899Y-86234934D01*
X54694603Y-86235237D01*
G37*
G36*
X58363380Y-86235134D02*
G01*
X58373074Y-86235811D01*
X58382658Y-86236931D01*
X58392118Y-86238488D01*
X58401440Y-86240478D01*
X58410611Y-86242893D01*
X58419615Y-86245728D01*
X58428438Y-86248976D01*
X58437067Y-86252632D01*
X58445488Y-86256690D01*
X58453686Y-86261144D01*
X58461647Y-86265987D01*
X58469358Y-86271214D01*
X58476804Y-86276818D01*
X58483970Y-86282795D01*
X58490843Y-86289137D01*
X58497410Y-86295839D01*
X58503654Y-86302894D01*
X58509563Y-86310298D01*
X58515123Y-86318043D01*
X58520319Y-86326124D01*
X58525137Y-86334535D01*
X58529563Y-86343269D01*
X58533584Y-86352322D01*
X58537184Y-86361686D01*
X58540349Y-86371356D01*
X58543067Y-86381325D01*
X58545322Y-86391589D01*
X58547100Y-86402140D01*
X58548388Y-86412974D01*
X58549171Y-86424083D01*
X58549435Y-86435462D01*
X58549435Y-86514175D01*
X58253340Y-86514175D01*
X58253479Y-86521355D01*
X58253893Y-86528309D01*
X58254575Y-86535039D01*
X58255520Y-86541542D01*
X58256724Y-86547820D01*
X58258180Y-86553872D01*
X58259883Y-86559698D01*
X58261828Y-86565297D01*
X58264008Y-86570670D01*
X58266419Y-86575816D01*
X58269055Y-86580735D01*
X58271911Y-86585428D01*
X58274981Y-86589893D01*
X58278260Y-86594131D01*
X58281742Y-86598141D01*
X58285421Y-86601924D01*
X58289293Y-86605478D01*
X58293351Y-86608805D01*
X58297591Y-86611903D01*
X58302007Y-86614773D01*
X58306593Y-86617414D01*
X58311343Y-86619827D01*
X58316254Y-86622011D01*
X58321318Y-86623965D01*
X58326530Y-86625690D01*
X58331886Y-86627186D01*
X58337379Y-86628452D01*
X58343004Y-86629489D01*
X58348755Y-86630295D01*
X58354628Y-86630871D01*
X58360616Y-86631217D01*
X58366714Y-86631332D01*
X58373595Y-86631135D01*
X58380519Y-86630550D01*
X58387468Y-86629583D01*
X58394421Y-86628241D01*
X58401357Y-86626531D01*
X58408256Y-86624459D01*
X58415097Y-86622034D01*
X58421860Y-86619261D01*
X58428524Y-86616147D01*
X58435070Y-86612700D01*
X58441476Y-86608927D01*
X58447721Y-86604833D01*
X58453787Y-86600427D01*
X58459651Y-86595715D01*
X58465294Y-86590704D01*
X58470696Y-86585401D01*
X58540043Y-86644403D01*
X58531104Y-86654222D01*
X58521851Y-86663307D01*
X58512300Y-86671674D01*
X58502468Y-86679335D01*
X58492371Y-86686305D01*
X58482026Y-86692596D01*
X58471449Y-86698223D01*
X58460658Y-86703200D01*
X58449669Y-86707539D01*
X58438498Y-86711256D01*
X58427162Y-86714363D01*
X58415678Y-86716875D01*
X58404063Y-86718804D01*
X58392332Y-86720165D01*
X58380503Y-86720972D01*
X58368593Y-86721238D01*
X58350162Y-86720664D01*
X58331548Y-86718843D01*
X58312940Y-86715626D01*
X58294527Y-86710867D01*
X58276499Y-86704417D01*
X58267688Y-86700511D01*
X58259045Y-86696127D01*
X58250593Y-86691246D01*
X58242355Y-86685850D01*
X58234355Y-86679920D01*
X58226618Y-86673438D01*
X58219165Y-86666384D01*
X58212022Y-86658741D01*
X58205212Y-86650491D01*
X58198759Y-86641614D01*
X58192686Y-86632091D01*
X58187016Y-86621906D01*
X58181775Y-86611038D01*
X58176984Y-86599470D01*
X58172669Y-86587184D01*
X58168852Y-86574159D01*
X58165557Y-86560379D01*
X58162808Y-86545824D01*
X58160629Y-86530476D01*
X58159044Y-86514316D01*
X58158075Y-86497326D01*
X58157747Y-86479488D01*
X58158048Y-86462547D01*
X58158936Y-86446325D01*
X58159953Y-86435488D01*
X58253340Y-86435488D01*
X58453841Y-86435488D01*
X58453464Y-86428818D01*
X58452867Y-86422347D01*
X58452053Y-86416076D01*
X58451027Y-86410005D01*
X58449793Y-86404136D01*
X58448356Y-86398470D01*
X58446720Y-86393006D01*
X58444889Y-86387746D01*
X58442868Y-86382692D01*
X58440660Y-86377842D01*
X58438270Y-86373200D01*
X58435702Y-86368765D01*
X58432961Y-86364537D01*
X58430050Y-86360519D01*
X58426974Y-86356711D01*
X58423738Y-86353114D01*
X58420346Y-86349728D01*
X58416801Y-86346554D01*
X58413108Y-86343594D01*
X58409272Y-86340847D01*
X58405296Y-86338316D01*
X58401185Y-86336000D01*
X58396944Y-86333901D01*
X58392576Y-86332019D01*
X58388086Y-86330356D01*
X58383478Y-86328911D01*
X58378756Y-86327687D01*
X58373924Y-86326683D01*
X58368988Y-86325901D01*
X58363951Y-86325341D01*
X58358817Y-86325005D01*
X58353590Y-86324893D01*
X58348361Y-86325005D01*
X58343220Y-86325341D01*
X58338170Y-86325901D01*
X58333216Y-86326683D01*
X58328365Y-86327687D01*
X58323620Y-86328911D01*
X58318985Y-86330356D01*
X58314467Y-86332019D01*
X58310070Y-86333901D01*
X58305798Y-86336000D01*
X58301657Y-86338316D01*
X58297651Y-86340847D01*
X58293785Y-86343594D01*
X58290064Y-86346554D01*
X58286493Y-86349728D01*
X58283076Y-86353114D01*
X58279818Y-86356711D01*
X58276725Y-86360519D01*
X58273800Y-86364537D01*
X58271049Y-86368764D01*
X58268477Y-86373200D01*
X58266088Y-86377842D01*
X58263887Y-86382691D01*
X58261879Y-86387746D01*
X58260069Y-86393006D01*
X58258461Y-86398469D01*
X58257061Y-86404136D01*
X58255873Y-86410005D01*
X58254902Y-86416076D01*
X58254153Y-86422347D01*
X58253631Y-86428818D01*
X58253340Y-86435488D01*
X58159953Y-86435488D01*
X58160392Y-86430808D01*
X58162393Y-86415986D01*
X58164918Y-86401847D01*
X58167946Y-86388378D01*
X58171455Y-86375568D01*
X58175425Y-86363406D01*
X58179834Y-86351878D01*
X58184661Y-86340974D01*
X58189885Y-86330682D01*
X58195484Y-86320990D01*
X58201437Y-86311886D01*
X58207724Y-86303358D01*
X58214322Y-86295394D01*
X58221210Y-86287983D01*
X58228368Y-86281112D01*
X58235773Y-86274771D01*
X58243405Y-86268947D01*
X58251243Y-86263627D01*
X58259265Y-86258802D01*
X58267450Y-86254458D01*
X58275777Y-86250584D01*
X58284224Y-86247167D01*
X58292771Y-86244197D01*
X58301395Y-86241662D01*
X58310076Y-86239549D01*
X58318793Y-86237846D01*
X58336248Y-86235626D01*
X58353591Y-86234907D01*
X58363380Y-86235134D01*
G37*
G36*
X57969625Y-86235008D02*
G01*
X57976255Y-86235308D01*
X57982798Y-86235803D01*
X57989252Y-86236490D01*
X58001896Y-86238421D01*
X58014186Y-86241070D01*
X58026119Y-86244405D01*
X58037695Y-86248395D01*
X58048912Y-86253009D01*
X58059767Y-86258214D01*
X58070261Y-86263979D01*
X58080390Y-86270273D01*
X58090153Y-86277065D01*
X58099550Y-86284322D01*
X58108577Y-86292013D01*
X58117234Y-86300108D01*
X58125519Y-86308573D01*
X58133431Y-86317378D01*
X58063157Y-86380164D01*
X58058651Y-86374818D01*
X58053910Y-86369689D01*
X58048939Y-86364793D01*
X58043746Y-86360148D01*
X58038338Y-86355772D01*
X58032723Y-86351684D01*
X58026907Y-86347900D01*
X58020897Y-86344438D01*
X58014700Y-86341317D01*
X58008324Y-86338555D01*
X58001775Y-86336168D01*
X57995061Y-86334176D01*
X57988188Y-86332595D01*
X57981164Y-86331444D01*
X57973996Y-86330740D01*
X57966690Y-86330501D01*
X57952482Y-86331021D01*
X57939041Y-86332596D01*
X57932614Y-86333787D01*
X57926387Y-86335250D01*
X57920363Y-86336988D01*
X57914543Y-86339005D01*
X57908930Y-86341303D01*
X57903527Y-86343886D01*
X57898336Y-86346755D01*
X57893361Y-86349915D01*
X57888603Y-86353368D01*
X57884065Y-86357116D01*
X57879750Y-86361163D01*
X57875661Y-86365512D01*
X57871799Y-86370166D01*
X57868167Y-86375127D01*
X57864769Y-86380399D01*
X57861606Y-86385984D01*
X57858682Y-86391885D01*
X57855998Y-86398106D01*
X57853558Y-86404648D01*
X57851364Y-86411516D01*
X57849418Y-86418712D01*
X57847723Y-86426238D01*
X57846282Y-86434099D01*
X57845097Y-86442296D01*
X57843506Y-86459712D01*
X57842971Y-86478509D01*
X57843106Y-86488003D01*
X57843507Y-86497154D01*
X57844172Y-86505964D01*
X57845098Y-86514437D01*
X57846283Y-86522575D01*
X57847725Y-86530380D01*
X57849421Y-86537857D01*
X57851367Y-86545006D01*
X57853563Y-86551832D01*
X57856004Y-86558336D01*
X57858688Y-86564522D01*
X57861613Y-86570392D01*
X57864777Y-86575949D01*
X57868176Y-86581195D01*
X57871808Y-86586134D01*
X57875671Y-86590769D01*
X57879761Y-86595101D01*
X57884076Y-86599134D01*
X57888614Y-86602870D01*
X57893373Y-86606313D01*
X57898348Y-86609464D01*
X57903539Y-86612327D01*
X57908941Y-86614904D01*
X57914554Y-86617199D01*
X57920373Y-86619213D01*
X57926397Y-86620950D01*
X57932623Y-86622412D01*
X57939048Y-86623602D01*
X57945670Y-86624522D01*
X57952486Y-86625177D01*
X57959494Y-86625567D01*
X57966690Y-86625697D01*
X57970360Y-86625637D01*
X57973996Y-86625458D01*
X57977597Y-86625164D01*
X57981163Y-86624755D01*
X57988186Y-86623603D01*
X57995057Y-86622023D01*
X58001770Y-86620030D01*
X58008317Y-86617644D01*
X58014692Y-86614881D01*
X58020887Y-86611760D01*
X58026896Y-86608299D01*
X58032711Y-86604515D01*
X58038327Y-86600426D01*
X58043735Y-86596051D01*
X58048929Y-86591406D01*
X58053902Y-86586510D01*
X58058647Y-86581380D01*
X58063157Y-86576035D01*
X58133431Y-86638820D01*
X58125524Y-86647611D01*
X58117243Y-86656065D01*
X58108589Y-86664150D01*
X58099564Y-86671834D01*
X58090170Y-86679086D01*
X58080408Y-86685873D01*
X58070280Y-86692164D01*
X58059787Y-86697928D01*
X58048931Y-86703132D01*
X58037714Y-86707745D01*
X58026136Y-86711736D01*
X58014201Y-86715072D01*
X58001908Y-86717722D01*
X57989261Y-86719654D01*
X57976260Y-86720836D01*
X57962907Y-86721238D01*
X57942422Y-86720417D01*
X57922175Y-86717921D01*
X57902314Y-86713700D01*
X57882990Y-86707701D01*
X57873575Y-86704019D01*
X57864351Y-86699873D01*
X57855336Y-86695258D01*
X57846549Y-86690167D01*
X57838007Y-86684593D01*
X57829731Y-86678530D01*
X57821739Y-86671971D01*
X57814049Y-86664911D01*
X57806680Y-86657343D01*
X57799651Y-86649260D01*
X57792980Y-86640657D01*
X57786687Y-86631526D01*
X57780790Y-86621862D01*
X57775307Y-86611657D01*
X57770258Y-86600907D01*
X57765661Y-86589603D01*
X57761535Y-86577740D01*
X57757898Y-86565312D01*
X57754769Y-86552312D01*
X57752167Y-86538734D01*
X57750111Y-86524570D01*
X57748619Y-86509816D01*
X57747710Y-86494465D01*
X57747403Y-86478509D01*
X57747710Y-86462479D01*
X57748619Y-86447057D01*
X57750111Y-86432237D01*
X57752167Y-86418012D01*
X57754769Y-86404375D01*
X57757898Y-86391321D01*
X57761535Y-86378842D01*
X57765661Y-86366933D01*
X57770258Y-86355586D01*
X57775307Y-86344795D01*
X57780790Y-86334554D01*
X57786687Y-86324855D01*
X57792980Y-86315694D01*
X57799651Y-86307062D01*
X57806680Y-86298954D01*
X57814049Y-86291363D01*
X57821739Y-86284282D01*
X57829731Y-86277706D01*
X57838007Y-86271627D01*
X57846549Y-86266038D01*
X57855336Y-86260935D01*
X57864351Y-86256309D01*
X57873575Y-86252155D01*
X57882990Y-86248466D01*
X57892575Y-86245235D01*
X57902314Y-86242456D01*
X57912187Y-86240122D01*
X57922175Y-86238227D01*
X57932259Y-86236765D01*
X57942422Y-86235729D01*
X57962907Y-86234907D01*
X57969625Y-86235008D01*
G37*
G36*
X57666588Y-86235071D02*
G01*
X57673568Y-86235555D01*
X57680405Y-86236352D01*
X57687102Y-86237454D01*
X57693666Y-86238852D01*
X57700104Y-86240539D01*
X57706420Y-86242505D01*
X57712621Y-86244743D01*
X57718713Y-86247245D01*
X57724701Y-86250002D01*
X57730591Y-86253006D01*
X57736389Y-86256250D01*
X57742102Y-86259723D01*
X57747734Y-86263420D01*
X57753292Y-86267330D01*
X57758781Y-86271447D01*
X57689434Y-86353917D01*
X57685290Y-86350877D01*
X57681279Y-86348072D01*
X57677379Y-86345498D01*
X57673566Y-86343149D01*
X57669820Y-86341018D01*
X57666117Y-86339102D01*
X57662436Y-86337394D01*
X57658755Y-86335889D01*
X57655052Y-86334582D01*
X57651304Y-86333467D01*
X57647490Y-86332538D01*
X57643587Y-86331790D01*
X57639574Y-86331218D01*
X57635427Y-86330817D01*
X57631126Y-86330579D01*
X57626648Y-86330502D01*
X57617880Y-86330855D01*
X57609201Y-86331925D01*
X57600677Y-86333725D01*
X57592375Y-86336269D01*
X57588326Y-86337824D01*
X57584358Y-86339571D01*
X57580478Y-86341510D01*
X57576694Y-86343644D01*
X57573014Y-86345974D01*
X57569448Y-86348502D01*
X57566002Y-86351230D01*
X57562685Y-86354159D01*
X57559506Y-86357291D01*
X57556472Y-86360628D01*
X57553592Y-86364172D01*
X57550874Y-86367925D01*
X57548326Y-86371887D01*
X57545957Y-86376061D01*
X57543774Y-86380448D01*
X57541786Y-86385051D01*
X57540002Y-86389871D01*
X57538428Y-86394909D01*
X57537074Y-86400168D01*
X57535948Y-86405648D01*
X57535058Y-86411353D01*
X57534412Y-86417283D01*
X57534018Y-86423440D01*
X57533885Y-86429826D01*
X57533885Y-86715603D01*
X57438291Y-86715603D01*
X57438291Y-86240543D01*
X57533885Y-86240543D01*
X57533885Y-86291132D01*
X57535738Y-86291132D01*
X57541511Y-86284326D01*
X57547585Y-86277959D01*
X57553952Y-86272031D01*
X57560601Y-86266541D01*
X57567526Y-86261490D01*
X57574718Y-86256878D01*
X57582168Y-86252705D01*
X57589868Y-86248970D01*
X57597809Y-86245675D01*
X57605984Y-86242819D01*
X57614383Y-86240402D01*
X57622999Y-86238424D01*
X57631823Y-86236886D01*
X57640846Y-86235787D01*
X57650060Y-86235127D01*
X57659457Y-86234908D01*
X57666588Y-86235071D01*
G37*
G36*
X57049566Y-86523515D02*
G01*
X57049683Y-86529495D01*
X57050031Y-86535314D01*
X57050606Y-86540971D01*
X57051403Y-86546463D01*
X57052417Y-86551788D01*
X57053642Y-86556945D01*
X57055075Y-86561931D01*
X57056710Y-86566746D01*
X57058543Y-86571386D01*
X57060569Y-86575850D01*
X57062783Y-86580136D01*
X57065180Y-86584243D01*
X57067755Y-86588167D01*
X57070504Y-86591908D01*
X57073422Y-86595464D01*
X57076503Y-86598832D01*
X57079744Y-86602010D01*
X57083139Y-86604998D01*
X57086684Y-86607792D01*
X57090373Y-86610391D01*
X57094202Y-86612793D01*
X57098167Y-86614996D01*
X57102261Y-86616999D01*
X57106481Y-86618798D01*
X57110822Y-86620393D01*
X57115278Y-86621782D01*
X57119846Y-86622962D01*
X57124520Y-86623932D01*
X57129295Y-86624690D01*
X57134166Y-86625233D01*
X57139130Y-86625561D01*
X57144180Y-86625670D01*
X57149152Y-86625561D01*
X57154041Y-86625233D01*
X57158843Y-86624690D01*
X57163553Y-86623932D01*
X57168166Y-86622962D01*
X57172678Y-86621782D01*
X57177082Y-86620393D01*
X57181375Y-86618798D01*
X57185551Y-86616999D01*
X57189605Y-86614996D01*
X57193532Y-86612793D01*
X57197328Y-86610391D01*
X57200987Y-86607792D01*
X57204504Y-86604998D01*
X57207875Y-86602010D01*
X57211094Y-86598832D01*
X57214156Y-86595464D01*
X57217057Y-86591908D01*
X57219791Y-86588167D01*
X57222354Y-86584243D01*
X57224740Y-86580136D01*
X57226945Y-86575850D01*
X57228964Y-86571386D01*
X57230791Y-86566746D01*
X57232422Y-86561931D01*
X57233851Y-86556945D01*
X57235074Y-86551788D01*
X57236086Y-86546463D01*
X57236882Y-86540971D01*
X57237457Y-86535314D01*
X57237805Y-86529495D01*
X57237922Y-86523515D01*
X57237922Y-86240543D01*
X57333463Y-86240543D01*
X57333463Y-86715655D01*
X57237922Y-86715655D01*
X57237922Y-86665014D01*
X57236070Y-86665014D01*
X57230297Y-86671819D01*
X57224224Y-86678186D01*
X57217863Y-86684115D01*
X57211222Y-86689604D01*
X57204311Y-86694655D01*
X57197141Y-86699268D01*
X57189722Y-86703441D01*
X57182062Y-86707175D01*
X57174173Y-86710470D01*
X57166063Y-86713327D01*
X57157742Y-86715744D01*
X57149222Y-86717721D01*
X57140510Y-86719260D01*
X57131618Y-86720358D01*
X57122555Y-86721018D01*
X57113330Y-86721238D01*
X57106278Y-86721070D01*
X57099189Y-86720570D01*
X57084964Y-86718572D01*
X57070794Y-86715253D01*
X57063773Y-86713102D01*
X57056816Y-86710625D01*
X57049942Y-86707822D01*
X57043167Y-86704695D01*
X57036509Y-86701245D01*
X57029985Y-86697474D01*
X57023611Y-86693382D01*
X57017406Y-86688971D01*
X57011386Y-86684242D01*
X57005569Y-86679196D01*
X56999971Y-86673834D01*
X56994609Y-86668158D01*
X56989502Y-86662169D01*
X56984666Y-86655867D01*
X56980118Y-86649255D01*
X56975875Y-86642333D01*
X56971955Y-86635103D01*
X56968375Y-86627566D01*
X56965152Y-86619722D01*
X56962303Y-86611574D01*
X56959845Y-86603122D01*
X56957795Y-86594367D01*
X56956171Y-86585312D01*
X56954990Y-86575956D01*
X56954269Y-86566302D01*
X56954024Y-86556350D01*
X56954025Y-86556350D01*
X56954025Y-86240543D01*
X57049566Y-86240543D01*
X57049566Y-86523515D01*
G37*
G36*
X56683437Y-86235000D02*
G01*
X56690119Y-86235273D01*
X56696629Y-86235720D01*
X56702970Y-86236334D01*
X56709144Y-86237110D01*
X56715153Y-86238041D01*
X56720999Y-86239121D01*
X56726686Y-86240343D01*
X56732214Y-86241701D01*
X56737587Y-86243189D01*
X56742806Y-86244800D01*
X56747873Y-86246527D01*
X56752792Y-86248366D01*
X56757564Y-86250308D01*
X56762191Y-86252348D01*
X56766676Y-86254480D01*
X56775228Y-86258993D01*
X56783238Y-86263795D01*
X56790723Y-86268835D01*
X56797702Y-86274064D01*
X56804193Y-86279430D01*
X56810213Y-86284882D01*
X56815780Y-86290369D01*
X56820913Y-86295841D01*
X56827512Y-86303401D01*
X56833617Y-86311032D01*
X56839235Y-86318827D01*
X56844376Y-86326881D01*
X56849051Y-86335285D01*
X56853269Y-86344135D01*
X56857039Y-86353522D01*
X56860372Y-86363541D01*
X56863276Y-86374285D01*
X56865762Y-86385847D01*
X56867838Y-86398321D01*
X56869516Y-86411800D01*
X56870804Y-86426378D01*
X56871712Y-86442148D01*
X56872250Y-86459203D01*
X56872427Y-86477636D01*
X56872250Y-86496224D01*
X56871712Y-86513416D01*
X56870804Y-86529304D01*
X56869516Y-86543985D01*
X56867838Y-86557553D01*
X56865762Y-86570102D01*
X56863276Y-86581727D01*
X56860372Y-86592522D01*
X56857039Y-86602582D01*
X56853269Y-86612001D01*
X56849051Y-86620875D01*
X56844376Y-86629296D01*
X56839235Y-86637361D01*
X56833617Y-86645163D01*
X56827512Y-86652797D01*
X56820913Y-86660358D01*
X56815780Y-86665829D01*
X56810213Y-86671314D01*
X56804193Y-86676764D01*
X56797702Y-86682126D01*
X56790723Y-86687351D01*
X56783238Y-86692387D01*
X56775228Y-86697184D01*
X56766676Y-86701692D01*
X56757564Y-86705859D01*
X56747873Y-86709635D01*
X56737586Y-86712969D01*
X56726686Y-86715811D01*
X56715153Y-86718109D01*
X56702970Y-86719814D01*
X56690119Y-86720874D01*
X56676582Y-86721238D01*
X56669732Y-86721146D01*
X56663055Y-86720874D01*
X56656549Y-86720427D01*
X56650212Y-86719814D01*
X56644042Y-86719039D01*
X56638036Y-86718109D01*
X56632193Y-86717031D01*
X56626509Y-86715811D01*
X56620984Y-86714455D01*
X56615614Y-86712969D01*
X56610397Y-86711361D01*
X56605331Y-86709635D01*
X56600414Y-86707799D01*
X56595644Y-86705859D01*
X56591018Y-86703821D01*
X56586534Y-86701692D01*
X56577985Y-86697185D01*
X56569976Y-86692387D01*
X56562492Y-86687351D01*
X56555514Y-86682126D01*
X56549024Y-86676764D01*
X56543005Y-86671315D01*
X56537437Y-86665829D01*
X56532305Y-86660358D01*
X56525704Y-86652797D01*
X56519598Y-86645164D01*
X56513978Y-86637363D01*
X56508833Y-86629300D01*
X56504154Y-86620880D01*
X56499932Y-86612008D01*
X56496157Y-86602590D01*
X56492819Y-86592532D01*
X56489910Y-86581738D01*
X56487420Y-86570114D01*
X56485338Y-86557565D01*
X56483657Y-86543996D01*
X56482365Y-86529314D01*
X56481455Y-86513423D01*
X56480915Y-86496229D01*
X56480738Y-86477636D01*
X56576331Y-86477636D01*
X56576399Y-86490060D01*
X56576608Y-86501380D01*
X56576969Y-86511681D01*
X56577491Y-86521046D01*
X56578183Y-86529561D01*
X56579055Y-86537307D01*
X56580117Y-86544370D01*
X56581378Y-86550833D01*
X56582849Y-86556781D01*
X56584538Y-86562296D01*
X56586455Y-86567463D01*
X56588610Y-86572365D01*
X56591012Y-86577088D01*
X56593672Y-86581713D01*
X56596598Y-86586326D01*
X56599800Y-86591010D01*
X56602609Y-86594648D01*
X56605774Y-86598160D01*
X56609276Y-86601531D01*
X56613096Y-86604746D01*
X56617213Y-86607790D01*
X56621608Y-86610648D01*
X56626263Y-86613305D01*
X56631156Y-86615746D01*
X56636270Y-86617956D01*
X56641584Y-86619920D01*
X56647078Y-86621623D01*
X56652734Y-86623050D01*
X56658532Y-86624186D01*
X56664452Y-86625015D01*
X56670476Y-86625524D01*
X56676582Y-86625697D01*
X56682697Y-86625524D01*
X56688727Y-86625014D01*
X56694652Y-86624183D01*
X56700453Y-86623046D01*
X56706111Y-86621617D01*
X56711606Y-86619913D01*
X56716921Y-86617947D01*
X56722034Y-86615736D01*
X56726928Y-86613294D01*
X56731583Y-86610636D01*
X56735979Y-86607778D01*
X56740098Y-86604735D01*
X56743921Y-86601521D01*
X56747427Y-86598153D01*
X56750599Y-86594644D01*
X56752054Y-86592842D01*
X56753417Y-86591010D01*
X56756619Y-86586327D01*
X56759543Y-86581715D01*
X56762200Y-86577094D01*
X56764599Y-86572380D01*
X56766750Y-86567491D01*
X56768663Y-86562345D01*
X56770347Y-86556858D01*
X56771812Y-86550949D01*
X56773069Y-86544535D01*
X56774126Y-86537533D01*
X56774994Y-86529862D01*
X56775682Y-86521437D01*
X56776200Y-86512177D01*
X56776558Y-86502000D01*
X56776833Y-86478563D01*
X56776766Y-86466139D01*
X56776558Y-86454817D01*
X56776200Y-86444514D01*
X56775682Y-86435145D01*
X56774994Y-86426628D01*
X56774126Y-86418878D01*
X56773069Y-86411812D01*
X56771812Y-86405346D01*
X56770347Y-86399396D01*
X56768663Y-86393880D01*
X56766750Y-86388713D01*
X56764599Y-86383811D01*
X56762200Y-86379091D01*
X56759543Y-86374470D01*
X56756619Y-86369864D01*
X56753417Y-86365188D01*
X56750599Y-86361550D01*
X56747427Y-86358038D01*
X56743921Y-86354668D01*
X56740098Y-86351453D01*
X56735979Y-86348409D01*
X56731583Y-86345551D01*
X56726928Y-86342894D01*
X56722034Y-86340453D01*
X56716921Y-86338243D01*
X56711606Y-86336279D01*
X56706111Y-86334576D01*
X56700453Y-86333149D01*
X56694652Y-86332013D01*
X56688727Y-86331183D01*
X56682697Y-86330674D01*
X56676582Y-86330501D01*
X56670476Y-86330675D01*
X56664452Y-86331184D01*
X56658532Y-86332016D01*
X56652734Y-86333153D01*
X56647078Y-86334582D01*
X56641584Y-86336286D01*
X56636270Y-86338252D01*
X56631156Y-86340463D01*
X56626263Y-86342905D01*
X56621608Y-86345563D01*
X56617213Y-86348421D01*
X56613096Y-86351464D01*
X56609276Y-86354677D01*
X56605774Y-86358046D01*
X56602609Y-86361555D01*
X56601159Y-86363357D01*
X56599800Y-86365188D01*
X56596598Y-86369863D01*
X56593672Y-86374468D01*
X56591012Y-86379085D01*
X56588610Y-86383796D01*
X56586455Y-86388684D01*
X56584538Y-86393831D01*
X56582849Y-86399319D01*
X56581378Y-86405230D01*
X56580117Y-86411647D01*
X56579055Y-86418652D01*
X56578183Y-86426327D01*
X56577491Y-86434755D01*
X56576969Y-86444017D01*
X56576608Y-86454197D01*
X56576331Y-86477636D01*
X56480738Y-86477636D01*
X56480915Y-86459203D01*
X56481455Y-86442149D01*
X56482365Y-86426380D01*
X56483657Y-86411804D01*
X56485338Y-86398327D01*
X56487420Y-86385854D01*
X56489910Y-86374294D01*
X56492819Y-86363551D01*
X56496157Y-86353533D01*
X56499932Y-86344146D01*
X56504154Y-86335297D01*
X56508833Y-86326892D01*
X56513978Y-86318837D01*
X56519598Y-86311039D01*
X56525704Y-86303405D01*
X56532305Y-86295841D01*
X56537437Y-86290369D01*
X56543005Y-86284882D01*
X56549024Y-86279430D01*
X56555514Y-86274064D01*
X56562492Y-86268836D01*
X56569977Y-86263795D01*
X56577985Y-86258993D01*
X56586535Y-86254480D01*
X56595644Y-86250308D01*
X56605331Y-86246527D01*
X56615614Y-86243189D01*
X56626509Y-86240343D01*
X56638036Y-86238041D01*
X56650212Y-86236334D01*
X56663055Y-86235273D01*
X56676582Y-86234908D01*
X56683437Y-86235000D01*
G37*
G36*
X56243975Y-86235255D02*
G01*
X56258694Y-86236126D01*
X56272827Y-86237557D01*
X56286400Y-86239532D01*
X56299439Y-86242035D01*
X56311971Y-86245048D01*
X56324022Y-86248556D01*
X56335617Y-86252542D01*
X56346784Y-86256989D01*
X56357548Y-86261881D01*
X56367936Y-86267202D01*
X56377973Y-86272934D01*
X56387687Y-86279062D01*
X56397103Y-86285568D01*
X56406248Y-86292437D01*
X56415148Y-86299651D01*
X56356145Y-86368946D01*
X56349106Y-86364135D01*
X56342026Y-86359534D01*
X56334888Y-86355156D01*
X56327673Y-86351016D01*
X56320364Y-86347128D01*
X56312944Y-86343504D01*
X56305393Y-86340161D01*
X56297696Y-86337110D01*
X56289832Y-86334366D01*
X56281786Y-86331943D01*
X56273539Y-86329855D01*
X56265074Y-86328115D01*
X56256372Y-86326738D01*
X56247415Y-86325737D01*
X56238187Y-86325126D01*
X56228669Y-86324919D01*
X56223079Y-86324990D01*
X56217721Y-86325201D01*
X56212592Y-86325549D01*
X56207688Y-86326031D01*
X56203006Y-86326645D01*
X56198541Y-86327386D01*
X56194291Y-86328253D01*
X56190252Y-86329243D01*
X56186420Y-86330351D01*
X56182791Y-86331577D01*
X56179363Y-86332916D01*
X56176130Y-86334365D01*
X56173091Y-86335922D01*
X56170241Y-86337584D01*
X56167576Y-86339348D01*
X56165093Y-86341211D01*
X56162788Y-86343170D01*
X56160659Y-86345221D01*
X56158700Y-86347363D01*
X56156909Y-86349592D01*
X56155282Y-86351905D01*
X56153816Y-86354300D01*
X56152506Y-86356773D01*
X56151349Y-86359321D01*
X56150342Y-86361942D01*
X56149481Y-86364632D01*
X56148762Y-86367389D01*
X56148182Y-86370209D01*
X56147737Y-86373090D01*
X56147424Y-86376029D01*
X56147238Y-86379023D01*
X56147177Y-86382069D01*
X56147357Y-86385930D01*
X56147914Y-86389765D01*
X56148874Y-86393552D01*
X56150264Y-86397265D01*
X56152109Y-86400879D01*
X56154436Y-86404369D01*
X56157270Y-86407712D01*
X56158886Y-86409320D01*
X56160638Y-86410882D01*
X56162531Y-86412395D01*
X56164566Y-86413855D01*
X56166748Y-86415260D01*
X56169080Y-86416607D01*
X56171566Y-86417891D01*
X56174207Y-86419111D01*
X56179972Y-86421345D01*
X56186401Y-86423283D01*
X56193521Y-86424900D01*
X56201357Y-86426172D01*
X56209937Y-86427075D01*
X56288650Y-86432658D01*
X56297705Y-86433428D01*
X56306417Y-86434505D01*
X56314790Y-86435881D01*
X56322827Y-86437550D01*
X56330533Y-86439505D01*
X56337911Y-86441738D01*
X56344963Y-86444243D01*
X56351695Y-86447013D01*
X56358110Y-86450041D01*
X56364211Y-86453320D01*
X56370001Y-86456843D01*
X56375486Y-86460604D01*
X56380667Y-86464596D01*
X56385549Y-86468811D01*
X56390136Y-86473243D01*
X56394431Y-86477885D01*
X56398437Y-86482730D01*
X56402158Y-86487771D01*
X56405599Y-86493001D01*
X56408762Y-86498413D01*
X56411651Y-86504002D01*
X56414270Y-86509758D01*
X56416622Y-86515677D01*
X56418711Y-86521750D01*
X56420541Y-86527971D01*
X56422115Y-86534333D01*
X56424511Y-86547453D01*
X56425927Y-86561055D01*
X56426392Y-86575083D01*
X56426142Y-86583666D01*
X56425397Y-86592016D01*
X56424170Y-86600130D01*
X56422472Y-86608005D01*
X56420314Y-86615639D01*
X56417708Y-86623029D01*
X56414665Y-86630174D01*
X56411196Y-86637069D01*
X56407312Y-86643713D01*
X56403025Y-86650104D01*
X56398346Y-86656237D01*
X56393287Y-86662112D01*
X56387858Y-86667725D01*
X56382072Y-86673074D01*
X56375939Y-86678157D01*
X56369470Y-86682970D01*
X56362678Y-86687511D01*
X56355573Y-86691778D01*
X56340471Y-86699478D01*
X56324254Y-86706049D01*
X56307014Y-86711472D01*
X56288839Y-86715726D01*
X56269822Y-86718789D01*
X56250053Y-86720642D01*
X56229622Y-86721265D01*
X56215282Y-86720935D01*
X56201081Y-86719945D01*
X56187025Y-86718292D01*
X56173121Y-86715977D01*
X56159376Y-86712997D01*
X56145797Y-86709352D01*
X56132391Y-86705039D01*
X56119165Y-86700058D01*
X56106125Y-86694408D01*
X56093279Y-86688086D01*
X56080634Y-86681092D01*
X56068195Y-86673424D01*
X56055971Y-86665081D01*
X56043968Y-86656062D01*
X56032194Y-86646365D01*
X56020654Y-86635989D01*
X56087170Y-86570426D01*
X56094947Y-86577755D01*
X56102834Y-86584619D01*
X56110853Y-86591018D01*
X56119025Y-86596950D01*
X56127374Y-86602414D01*
X56135920Y-86607409D01*
X56144686Y-86611934D01*
X56153693Y-86615987D01*
X56162964Y-86619568D01*
X56172521Y-86622675D01*
X56182384Y-86625308D01*
X56192578Y-86627464D01*
X56203122Y-86629143D01*
X56214040Y-86630344D01*
X56225353Y-86631065D01*
X56237083Y-86631306D01*
X56242131Y-86631246D01*
X56247087Y-86631065D01*
X56251947Y-86630764D01*
X56256705Y-86630343D01*
X56261359Y-86629802D01*
X56265902Y-86629141D01*
X56270332Y-86628360D01*
X56274642Y-86627460D01*
X56278829Y-86626441D01*
X56282888Y-86625302D01*
X56286816Y-86624045D01*
X56290606Y-86622668D01*
X56294255Y-86621173D01*
X56297759Y-86619559D01*
X56301112Y-86617827D01*
X56304310Y-86615977D01*
X56307350Y-86614009D01*
X56310226Y-86611922D01*
X56312934Y-86609718D01*
X56315469Y-86607397D01*
X56317827Y-86604958D01*
X56320003Y-86602402D01*
X56321994Y-86599728D01*
X56323794Y-86596938D01*
X56325399Y-86594031D01*
X56326805Y-86591008D01*
X56328006Y-86587868D01*
X56329000Y-86584611D01*
X56329780Y-86581239D01*
X56330343Y-86577750D01*
X56330684Y-86574146D01*
X56330799Y-86570426D01*
X56330725Y-86567331D01*
X56330507Y-86564371D01*
X56330147Y-86561542D01*
X56329649Y-86558841D01*
X56329015Y-86556266D01*
X56328250Y-86553813D01*
X56327357Y-86551480D01*
X56326337Y-86549263D01*
X56325196Y-86547161D01*
X56323936Y-86545169D01*
X56322560Y-86543286D01*
X56321072Y-86541508D01*
X56319475Y-86539832D01*
X56317772Y-86538255D01*
X56315966Y-86536775D01*
X56314060Y-86535389D01*
X56312059Y-86534093D01*
X56309964Y-86532885D01*
X56305509Y-86530720D01*
X56300721Y-86528872D01*
X56295627Y-86527318D01*
X56290251Y-86526033D01*
X56284620Y-86524996D01*
X56278759Y-86524182D01*
X56272696Y-86523568D01*
X56188347Y-86516080D01*
X56173843Y-86514379D01*
X56159877Y-86511741D01*
X56153113Y-86510073D01*
X56146504Y-86508174D01*
X56140056Y-86506045D01*
X56133777Y-86503688D01*
X56127674Y-86501102D01*
X56121753Y-86498290D01*
X56116022Y-86495252D01*
X56110486Y-86491989D01*
X56105154Y-86488502D01*
X56100032Y-86484793D01*
X56095126Y-86480862D01*
X56090444Y-86476710D01*
X56085993Y-86472339D01*
X56081779Y-86467750D01*
X56077809Y-86462943D01*
X56074091Y-86457919D01*
X56070630Y-86452681D01*
X56067434Y-86447228D01*
X56064511Y-86441562D01*
X56061865Y-86435683D01*
X56059505Y-86429594D01*
X56057438Y-86423294D01*
X56055670Y-86416785D01*
X56054207Y-86410069D01*
X56053058Y-86403145D01*
X56052229Y-86396015D01*
X56051726Y-86388681D01*
X56051557Y-86381143D01*
X56051781Y-86372231D01*
X56052445Y-86363595D01*
X56053539Y-86355234D01*
X56055054Y-86347150D01*
X56056981Y-86339342D01*
X56059309Y-86331811D01*
X56062028Y-86324557D01*
X56065129Y-86317582D01*
X56068602Y-86310886D01*
X56072437Y-86304469D01*
X56076625Y-86298331D01*
X56081155Y-86292474D01*
X56086018Y-86286897D01*
X56091204Y-86281602D01*
X56096703Y-86276588D01*
X56102506Y-86271857D01*
X56108603Y-86267408D01*
X56114983Y-86263243D01*
X56121637Y-86259361D01*
X56128556Y-86255764D01*
X56135730Y-86252452D01*
X56143148Y-86249425D01*
X56158680Y-86244228D01*
X56175074Y-86240180D01*
X56192251Y-86237283D01*
X56210133Y-86235542D01*
X56228643Y-86234961D01*
X56243975Y-86235255D01*
G37*
G36*
X55610849Y-86235075D02*
G01*
X55617860Y-86235576D01*
X55631941Y-86237574D01*
X55645986Y-86240892D01*
X55659856Y-86245522D01*
X55666683Y-86248325D01*
X55673413Y-86251452D01*
X55680031Y-86254902D01*
X55686519Y-86258675D01*
X55692859Y-86262767D01*
X55699034Y-86267179D01*
X55705027Y-86271909D01*
X55710820Y-86276956D01*
X55716396Y-86282319D01*
X55721738Y-86287997D01*
X55726829Y-86293988D01*
X55731651Y-86300291D01*
X55736186Y-86306905D01*
X55740419Y-86313829D01*
X55744330Y-86321062D01*
X55747903Y-86328602D01*
X55751121Y-86336449D01*
X55753965Y-86344600D01*
X55756420Y-86353055D01*
X55758467Y-86361814D01*
X55760090Y-86370873D01*
X55761270Y-86380233D01*
X55761991Y-86389892D01*
X55762235Y-86399849D01*
X55762235Y-86715603D01*
X55666668Y-86715603D01*
X55666668Y-86432684D01*
X55666550Y-86426699D01*
X55666202Y-86420876D01*
X55665627Y-86415216D01*
X55664832Y-86409721D01*
X55663820Y-86404394D01*
X55662597Y-86399235D01*
X55661167Y-86394246D01*
X55659537Y-86389431D01*
X55657710Y-86384790D01*
X55655691Y-86380325D01*
X55653487Y-86376039D01*
X55651101Y-86371933D01*
X55648538Y-86368009D01*
X55645804Y-86364269D01*
X55642904Y-86360714D01*
X55639842Y-86357347D01*
X55636624Y-86354170D01*
X55633254Y-86351184D01*
X55629738Y-86348392D01*
X55626080Y-86345794D01*
X55622285Y-86343394D01*
X55618359Y-86341192D01*
X55614306Y-86339191D01*
X55610132Y-86337393D01*
X55605840Y-86335800D01*
X55601437Y-86334412D01*
X55596928Y-86333233D01*
X55592316Y-86332265D01*
X55587608Y-86331508D01*
X55582808Y-86330965D01*
X55577921Y-86330638D01*
X55572952Y-86330528D01*
X55567899Y-86330638D01*
X55562933Y-86330965D01*
X55558060Y-86331508D01*
X55553282Y-86332265D01*
X55548607Y-86333233D01*
X55544038Y-86334412D01*
X55539580Y-86335799D01*
X55535237Y-86337393D01*
X55531016Y-86339191D01*
X55526920Y-86341192D01*
X55522955Y-86343393D01*
X55519125Y-86345794D01*
X55515435Y-86348391D01*
X55511889Y-86351184D01*
X55508493Y-86354170D01*
X55505252Y-86357347D01*
X55502170Y-86360714D01*
X55499252Y-86364268D01*
X55496502Y-86368009D01*
X55493926Y-86371933D01*
X55491529Y-86376039D01*
X55489315Y-86380325D01*
X55487289Y-86384790D01*
X55485456Y-86389431D01*
X55483821Y-86394246D01*
X55482388Y-86399234D01*
X55481162Y-86404393D01*
X55480148Y-86409721D01*
X55479352Y-86415216D01*
X55478776Y-86420876D01*
X55478428Y-86426699D01*
X55478311Y-86432684D01*
X55478311Y-86715603D01*
X55382743Y-86715603D01*
X55382743Y-86240543D01*
X55478311Y-86240543D01*
X55478311Y-86291132D01*
X55480216Y-86291132D01*
X55485984Y-86284326D01*
X55492054Y-86277959D01*
X55498415Y-86272031D01*
X55505060Y-86266541D01*
X55511980Y-86261490D01*
X55519168Y-86256878D01*
X55526614Y-86252705D01*
X55534310Y-86248970D01*
X55542248Y-86245675D01*
X55550419Y-86242819D01*
X55558816Y-86240402D01*
X55567429Y-86238424D01*
X55576251Y-86236886D01*
X55585272Y-86235787D01*
X55594485Y-86235127D01*
X55603882Y-86234908D01*
X55610849Y-86235075D01*
G37*
G36*
X55115148Y-86235134D02*
G01*
X55124846Y-86235811D01*
X55134433Y-86236931D01*
X55143896Y-86238488D01*
X55153220Y-86240478D01*
X55162391Y-86242893D01*
X55171396Y-86245728D01*
X55180220Y-86248976D01*
X55188849Y-86252632D01*
X55197269Y-86256690D01*
X55205466Y-86261144D01*
X55213426Y-86265987D01*
X55221134Y-86271214D01*
X55228578Y-86276818D01*
X55235742Y-86282795D01*
X55242613Y-86289137D01*
X55249177Y-86295839D01*
X55255419Y-86302894D01*
X55261325Y-86310298D01*
X55266882Y-86318043D01*
X55272075Y-86326124D01*
X55276891Y-86334535D01*
X55281314Y-86343269D01*
X55285332Y-86352322D01*
X55288930Y-86361686D01*
X55292093Y-86371356D01*
X55294809Y-86381325D01*
X55297062Y-86391589D01*
X55298839Y-86402140D01*
X55300126Y-86412974D01*
X55300908Y-86424083D01*
X55301172Y-86435462D01*
X55301172Y-86514175D01*
X55005077Y-86514175D01*
X55005216Y-86521355D01*
X55005630Y-86528309D01*
X55006312Y-86535039D01*
X55007258Y-86541542D01*
X55008463Y-86547820D01*
X55009919Y-86553872D01*
X55011623Y-86559698D01*
X55013568Y-86565297D01*
X55015750Y-86570670D01*
X55018162Y-86575816D01*
X55020799Y-86580735D01*
X55023656Y-86585428D01*
X55026727Y-86589893D01*
X55030007Y-86594131D01*
X55033490Y-86598141D01*
X55037171Y-86601924D01*
X55041044Y-86605478D01*
X55045104Y-86608805D01*
X55049345Y-86611903D01*
X55053761Y-86614773D01*
X55058348Y-86617414D01*
X55063100Y-86619827D01*
X55068012Y-86622011D01*
X55073077Y-86623965D01*
X55078290Y-86625690D01*
X55083646Y-86627186D01*
X55089140Y-86628452D01*
X55094766Y-86629489D01*
X55100518Y-86630295D01*
X55106391Y-86630871D01*
X55112379Y-86631217D01*
X55118477Y-86631332D01*
X55125358Y-86631135D01*
X55132284Y-86630550D01*
X55139234Y-86629583D01*
X55146188Y-86628241D01*
X55153126Y-86626531D01*
X55160026Y-86624459D01*
X55166869Y-86622034D01*
X55173633Y-86619261D01*
X55180299Y-86616147D01*
X55186845Y-86612700D01*
X55193250Y-86608927D01*
X55199496Y-86604833D01*
X55205560Y-86600427D01*
X55211422Y-86595715D01*
X55217062Y-86590704D01*
X55222459Y-86585401D01*
X55291806Y-86644403D01*
X55282859Y-86654222D01*
X55273599Y-86663307D01*
X55264043Y-86671674D01*
X55254208Y-86679335D01*
X55244109Y-86686305D01*
X55233764Y-86692596D01*
X55223188Y-86698223D01*
X55212398Y-86703200D01*
X55201410Y-86707539D01*
X55190241Y-86711256D01*
X55178906Y-86714363D01*
X55167423Y-86716875D01*
X55155807Y-86718804D01*
X55144076Y-86720165D01*
X55132244Y-86720972D01*
X55120329Y-86721238D01*
X55101903Y-86720664D01*
X55083293Y-86718843D01*
X55064689Y-86715626D01*
X55046279Y-86710867D01*
X55028253Y-86704417D01*
X55019444Y-86700511D01*
X55010802Y-86696127D01*
X55002350Y-86691246D01*
X54994113Y-86685850D01*
X54986114Y-86679920D01*
X54978377Y-86673438D01*
X54970926Y-86666384D01*
X54963783Y-86658741D01*
X54956974Y-86650491D01*
X54950521Y-86641614D01*
X54944448Y-86632091D01*
X54938779Y-86621906D01*
X54933537Y-86611038D01*
X54928747Y-86599470D01*
X54924431Y-86587184D01*
X54920615Y-86574159D01*
X54917320Y-86560379D01*
X54914571Y-86545824D01*
X54912392Y-86530476D01*
X54910807Y-86514316D01*
X54909838Y-86497326D01*
X54909510Y-86479488D01*
X54909811Y-86462547D01*
X54910700Y-86446325D01*
X54911716Y-86435488D01*
X55005077Y-86435488D01*
X55205605Y-86435488D01*
X55205230Y-86428818D01*
X55204634Y-86422347D01*
X55203822Y-86416076D01*
X55202798Y-86410005D01*
X55201566Y-86404136D01*
X55200130Y-86398470D01*
X55198494Y-86393006D01*
X55196664Y-86387746D01*
X55194643Y-86382692D01*
X55192435Y-86377842D01*
X55190045Y-86373200D01*
X55187477Y-86368765D01*
X55184735Y-86364537D01*
X55181824Y-86360519D01*
X55178748Y-86356711D01*
X55175512Y-86353114D01*
X55172118Y-86349728D01*
X55168573Y-86346554D01*
X55164879Y-86343594D01*
X55161042Y-86340847D01*
X55157066Y-86338316D01*
X55152954Y-86336000D01*
X55148712Y-86333901D01*
X55144343Y-86332019D01*
X55139852Y-86330356D01*
X55135244Y-86328911D01*
X55130521Y-86327687D01*
X55125689Y-86326683D01*
X55120752Y-86325901D01*
X55115715Y-86325341D01*
X55110580Y-86325005D01*
X55105354Y-86324893D01*
X55100125Y-86325005D01*
X55094983Y-86325341D01*
X55089933Y-86325901D01*
X55084980Y-86326683D01*
X55080128Y-86327687D01*
X55075383Y-86328911D01*
X55070749Y-86330356D01*
X55066231Y-86332019D01*
X55061833Y-86333901D01*
X55057561Y-86336000D01*
X55053420Y-86338316D01*
X55049413Y-86340847D01*
X55045547Y-86343594D01*
X55041825Y-86346554D01*
X55038254Y-86349728D01*
X55034836Y-86353114D01*
X55031578Y-86356711D01*
X55028483Y-86360519D01*
X55025558Y-86364537D01*
X55022806Y-86368764D01*
X55020233Y-86373200D01*
X55017843Y-86377842D01*
X55015641Y-86382691D01*
X55013631Y-86387746D01*
X55011820Y-86393006D01*
X55010211Y-86398469D01*
X55008809Y-86404136D01*
X55007619Y-86410005D01*
X55006646Y-86416076D01*
X55005895Y-86422347D01*
X55005370Y-86428818D01*
X55005077Y-86435488D01*
X54911716Y-86435488D01*
X54912156Y-86430808D01*
X54914157Y-86415986D01*
X54916682Y-86401847D01*
X54919711Y-86388378D01*
X54923221Y-86375568D01*
X54927192Y-86363406D01*
X54931602Y-86351878D01*
X54936430Y-86340974D01*
X54941654Y-86330682D01*
X54947254Y-86320990D01*
X54953208Y-86311886D01*
X54959495Y-86303358D01*
X54966094Y-86295394D01*
X54972983Y-86287983D01*
X54980141Y-86281112D01*
X54987547Y-86274771D01*
X54995180Y-86268947D01*
X55003018Y-86263627D01*
X55011040Y-86258802D01*
X55019225Y-86254458D01*
X55027552Y-86250584D01*
X55035999Y-86247167D01*
X55044544Y-86244197D01*
X55053168Y-86241662D01*
X55061849Y-86239549D01*
X55070564Y-86237846D01*
X55088016Y-86235626D01*
X55105354Y-86234907D01*
X55115148Y-86235134D01*
G37*
G36*
X54195000Y-86235000D02*
G01*
X54201677Y-86235273D01*
X54208183Y-86235720D01*
X54214521Y-86236334D01*
X54220692Y-86237110D01*
X54226698Y-86238041D01*
X54232542Y-86239121D01*
X54238227Y-86240343D01*
X54243753Y-86241701D01*
X54249124Y-86243189D01*
X54254342Y-86244800D01*
X54259409Y-86246527D01*
X54264327Y-86248366D01*
X54269098Y-86250308D01*
X54273725Y-86252348D01*
X54278210Y-86254480D01*
X54286763Y-86258993D01*
X54294773Y-86263795D01*
X54302260Y-86268835D01*
X54309240Y-86274064D01*
X54315731Y-86279430D01*
X54321752Y-86284882D01*
X54327320Y-86290369D01*
X54332453Y-86295841D01*
X54339054Y-86303401D01*
X54345159Y-86311032D01*
X54350778Y-86318827D01*
X54355921Y-86326881D01*
X54360598Y-86335285D01*
X54364818Y-86344135D01*
X54368591Y-86353522D01*
X54371926Y-86363541D01*
X54374833Y-86374285D01*
X54377321Y-86385847D01*
X54379400Y-86398321D01*
X54381079Y-86411800D01*
X54382369Y-86426378D01*
X54383278Y-86442148D01*
X54383817Y-86459203D01*
X54383994Y-86477636D01*
X54383817Y-86496224D01*
X54383278Y-86513416D01*
X54382369Y-86529304D01*
X54381079Y-86543985D01*
X54379400Y-86557553D01*
X54377321Y-86570102D01*
X54374833Y-86581727D01*
X54371926Y-86592522D01*
X54368591Y-86602582D01*
X54364818Y-86612001D01*
X54360598Y-86620875D01*
X54355921Y-86629296D01*
X54350778Y-86637361D01*
X54345159Y-86645163D01*
X54339054Y-86652797D01*
X54332453Y-86660358D01*
X54327320Y-86665829D01*
X54321752Y-86671314D01*
X54315731Y-86676764D01*
X54309240Y-86682126D01*
X54302260Y-86687351D01*
X54294773Y-86692387D01*
X54286763Y-86697184D01*
X54278210Y-86701692D01*
X54269098Y-86705859D01*
X54259409Y-86709635D01*
X54249124Y-86712969D01*
X54238227Y-86715811D01*
X54226698Y-86718109D01*
X54214521Y-86719814D01*
X54201677Y-86720874D01*
X54188150Y-86721238D01*
X54181297Y-86721146D01*
X54174617Y-86720874D01*
X54168109Y-86720427D01*
X54161770Y-86719814D01*
X54155597Y-86719039D01*
X54149589Y-86718109D01*
X54143743Y-86717031D01*
X54138057Y-86715811D01*
X54132529Y-86714455D01*
X54127157Y-86712969D01*
X54121938Y-86711361D01*
X54116870Y-86709635D01*
X54111951Y-86707799D01*
X54107179Y-86705859D01*
X54102551Y-86703821D01*
X54098066Y-86701692D01*
X54089512Y-86697185D01*
X54081501Y-86692387D01*
X54074014Y-86687351D01*
X54067033Y-86682126D01*
X54060541Y-86676764D01*
X54054520Y-86671315D01*
X54048952Y-86665829D01*
X54043819Y-86660358D01*
X54037219Y-86652797D01*
X54031115Y-86645164D01*
X54025497Y-86637363D01*
X54020355Y-86629300D01*
X54015680Y-86620880D01*
X54011463Y-86612008D01*
X54007692Y-86602590D01*
X54004360Y-86592532D01*
X54001456Y-86581738D01*
X53998970Y-86570114D01*
X53996893Y-86557565D01*
X53995216Y-86543996D01*
X53993928Y-86529314D01*
X53993020Y-86513423D01*
X53992482Y-86496229D01*
X53992305Y-86477636D01*
X54087872Y-86477636D01*
X54087940Y-86490060D01*
X54088149Y-86501380D01*
X54088510Y-86511681D01*
X54089031Y-86521046D01*
X54089723Y-86529561D01*
X54090595Y-86537307D01*
X54091656Y-86544370D01*
X54092916Y-86550833D01*
X54094385Y-86556781D01*
X54096072Y-86562296D01*
X54097987Y-86567463D01*
X54100140Y-86572365D01*
X54102539Y-86577088D01*
X54105195Y-86581713D01*
X54108117Y-86586326D01*
X54111315Y-86591010D01*
X54114132Y-86594648D01*
X54117304Y-86598160D01*
X54120811Y-86601531D01*
X54124633Y-86604746D01*
X54128753Y-86607790D01*
X54133149Y-86610648D01*
X54137804Y-86613305D01*
X54142697Y-86615746D01*
X54147811Y-86617956D01*
X54153125Y-86619920D01*
X54158621Y-86621623D01*
X54164279Y-86623050D01*
X54170080Y-86624186D01*
X54176005Y-86625015D01*
X54182034Y-86625524D01*
X54188150Y-86625697D01*
X54194260Y-86625524D01*
X54200286Y-86625014D01*
X54206207Y-86624183D01*
X54212005Y-86623046D01*
X54217661Y-86621617D01*
X54223155Y-86619913D01*
X54228469Y-86617947D01*
X54233582Y-86615736D01*
X54238476Y-86613294D01*
X54243131Y-86610636D01*
X54247530Y-86607778D01*
X54251651Y-86604735D01*
X54255476Y-86601521D01*
X54258986Y-86598153D01*
X54262162Y-86594644D01*
X54263619Y-86592842D01*
X54264985Y-86591010D01*
X54268182Y-86586327D01*
X54271103Y-86581715D01*
X54273758Y-86577094D01*
X54276155Y-86572380D01*
X54278306Y-86567491D01*
X54280219Y-86562345D01*
X54281903Y-86556858D01*
X54283370Y-86550949D01*
X54284628Y-86544535D01*
X54285686Y-86537533D01*
X54286556Y-86529862D01*
X54287246Y-86521437D01*
X54287765Y-86512177D01*
X54288124Y-86502000D01*
X54288400Y-86478563D01*
X54288333Y-86466139D01*
X54288124Y-86454817D01*
X54287765Y-86444514D01*
X54287246Y-86435145D01*
X54286556Y-86426628D01*
X54285686Y-86418878D01*
X54284628Y-86411812D01*
X54283370Y-86405346D01*
X54281903Y-86399396D01*
X54280219Y-86393880D01*
X54278306Y-86388713D01*
X54276155Y-86383811D01*
X54273758Y-86379091D01*
X54271103Y-86374470D01*
X54268182Y-86369864D01*
X54264985Y-86365188D01*
X54262162Y-86361550D01*
X54258986Y-86358038D01*
X54255476Y-86354668D01*
X54251651Y-86351453D01*
X54247530Y-86348409D01*
X54243131Y-86345551D01*
X54238476Y-86342894D01*
X54233582Y-86340453D01*
X54228469Y-86338243D01*
X54223155Y-86336279D01*
X54217661Y-86334576D01*
X54212005Y-86333149D01*
X54206207Y-86332013D01*
X54200286Y-86331183D01*
X54194260Y-86330674D01*
X54188150Y-86330501D01*
X54182034Y-86330675D01*
X54176005Y-86331184D01*
X54170080Y-86332016D01*
X54164279Y-86333153D01*
X54158621Y-86334582D01*
X54153125Y-86336286D01*
X54147811Y-86338252D01*
X54142697Y-86340463D01*
X54137804Y-86342905D01*
X54133149Y-86345563D01*
X54128753Y-86348421D01*
X54124633Y-86351464D01*
X54120811Y-86354677D01*
X54117304Y-86358046D01*
X54114132Y-86361555D01*
X54112678Y-86363357D01*
X54111315Y-86365188D01*
X54108117Y-86369863D01*
X54105195Y-86374468D01*
X54102539Y-86379085D01*
X54100140Y-86383796D01*
X54097987Y-86388684D01*
X54096072Y-86393831D01*
X54094385Y-86399319D01*
X54092916Y-86405230D01*
X54091656Y-86411647D01*
X54090595Y-86418652D01*
X54089723Y-86426327D01*
X54089031Y-86434755D01*
X54088510Y-86444017D01*
X54088149Y-86454197D01*
X54087872Y-86477636D01*
X53992305Y-86477636D01*
X53992482Y-86459203D01*
X53993020Y-86442149D01*
X53993928Y-86426380D01*
X53995216Y-86411804D01*
X53996893Y-86398327D01*
X53998970Y-86385854D01*
X54001456Y-86374294D01*
X54004360Y-86363551D01*
X54007692Y-86353533D01*
X54011463Y-86344146D01*
X54015680Y-86335297D01*
X54020355Y-86326892D01*
X54025497Y-86318837D01*
X54031115Y-86311039D01*
X54037219Y-86303405D01*
X54043819Y-86295841D01*
X54048952Y-86290369D01*
X54054520Y-86284882D01*
X54060541Y-86279430D01*
X54067033Y-86274064D01*
X54074014Y-86268836D01*
X54081501Y-86263795D01*
X54089512Y-86258993D01*
X54098066Y-86254480D01*
X54107179Y-86250308D01*
X54116870Y-86246527D01*
X54127157Y-86243189D01*
X54138057Y-86240343D01*
X54149589Y-86238041D01*
X54161770Y-86236334D01*
X54174617Y-86235273D01*
X54188150Y-86234908D01*
X54195000Y-86235000D01*
G37*
G36*
X57847765Y-86985519D02*
G01*
X57857462Y-86986195D01*
X57867049Y-86987315D01*
X57876511Y-86988873D01*
X57885835Y-86990863D01*
X57895005Y-86993277D01*
X57904009Y-86996112D01*
X57912832Y-86999360D01*
X57921460Y-87003016D01*
X57929879Y-87007073D01*
X57938075Y-87011526D01*
X57946034Y-87016369D01*
X57953741Y-87021595D01*
X57961184Y-87027199D01*
X57968347Y-87033174D01*
X57975217Y-87039515D01*
X57981779Y-87046216D01*
X57988020Y-87053270D01*
X57993925Y-87060672D01*
X57999481Y-87068415D01*
X58004673Y-87076494D01*
X58009487Y-87084902D01*
X58013910Y-87093634D01*
X58017926Y-87102684D01*
X58021523Y-87112045D01*
X58024686Y-87121712D01*
X58027401Y-87131678D01*
X58029653Y-87141938D01*
X58031430Y-87152486D01*
X58032716Y-87163315D01*
X58033499Y-87174419D01*
X58033762Y-87185793D01*
X58033762Y-87264560D01*
X57737720Y-87264560D01*
X57737859Y-87271735D01*
X57738272Y-87278685D01*
X57738955Y-87285410D01*
X57739900Y-87291910D01*
X57741104Y-87298184D01*
X57742560Y-87304233D01*
X57744263Y-87310055D01*
X57746208Y-87315652D01*
X57748388Y-87321022D01*
X57750799Y-87326166D01*
X57753435Y-87331083D01*
X57756291Y-87335773D01*
X57759361Y-87340237D01*
X57762640Y-87344473D01*
X57766122Y-87348482D01*
X57769801Y-87352263D01*
X57773673Y-87355816D01*
X57777731Y-87359142D01*
X57781971Y-87362239D01*
X57786387Y-87365108D01*
X57790973Y-87367749D01*
X57795723Y-87370161D01*
X57800633Y-87372344D01*
X57805698Y-87374299D01*
X57810910Y-87376024D01*
X57816266Y-87377519D01*
X57821759Y-87378785D01*
X57827383Y-87379821D01*
X57833135Y-87380628D01*
X57839008Y-87381204D01*
X57844996Y-87381549D01*
X57851094Y-87381665D01*
X57857966Y-87381469D01*
X57864884Y-87380885D01*
X57871828Y-87379920D01*
X57878779Y-87378581D01*
X57885713Y-87376874D01*
X57892612Y-87374806D01*
X57899455Y-87372383D01*
X57906220Y-87369613D01*
X57912887Y-87366502D01*
X57919436Y-87363056D01*
X57925845Y-87359283D01*
X57932094Y-87355188D01*
X57938162Y-87350779D01*
X57944029Y-87346063D01*
X57949673Y-87341045D01*
X57955075Y-87335733D01*
X58024422Y-87394788D01*
X58015475Y-87404607D01*
X58006215Y-87413693D01*
X57996660Y-87422059D01*
X57986825Y-87429721D01*
X57976727Y-87436690D01*
X57966382Y-87442981D01*
X57955807Y-87448609D01*
X57945018Y-87453585D01*
X57934031Y-87457925D01*
X57922864Y-87461642D01*
X57911531Y-87464749D01*
X57900051Y-87467260D01*
X57888438Y-87469190D01*
X57876710Y-87470551D01*
X57864883Y-87471358D01*
X57852973Y-87471623D01*
X57834542Y-87471049D01*
X57815928Y-87469228D01*
X57797320Y-87466012D01*
X57778907Y-87461252D01*
X57760879Y-87454801D01*
X57752068Y-87450895D01*
X57743425Y-87446510D01*
X57734973Y-87441628D01*
X57726735Y-87436231D01*
X57718735Y-87430300D01*
X57710997Y-87423816D01*
X57703545Y-87416762D01*
X57696402Y-87409117D01*
X57689592Y-87400865D01*
X57683139Y-87391986D01*
X57677066Y-87382462D01*
X57671396Y-87372274D01*
X57666155Y-87361404D01*
X57661364Y-87349833D01*
X57657049Y-87337543D01*
X57653232Y-87324516D01*
X57649937Y-87310732D01*
X57647188Y-87296173D01*
X57645009Y-87280821D01*
X57643424Y-87264657D01*
X57642455Y-87247663D01*
X57642126Y-87229820D01*
X57642428Y-87212880D01*
X57643317Y-87196657D01*
X57644334Y-87185820D01*
X57737720Y-87185820D01*
X57938221Y-87185820D01*
X57937849Y-87179154D01*
X57937255Y-87172687D01*
X57936445Y-87166420D01*
X57935422Y-87160352D01*
X57934191Y-87154486D01*
X57932756Y-87148821D01*
X57931122Y-87143359D01*
X57929292Y-87138100D01*
X57927271Y-87133046D01*
X57925063Y-87128197D01*
X57922673Y-87123555D01*
X57920105Y-87119119D01*
X57917364Y-87114892D01*
X57914452Y-87110873D01*
X57911376Y-87107064D01*
X57908138Y-87103465D01*
X57904744Y-87100078D01*
X57901198Y-87096903D01*
X57897504Y-87093941D01*
X57893666Y-87091193D01*
X57889689Y-87088660D01*
X57885576Y-87086342D01*
X57881333Y-87084242D01*
X57876964Y-87082358D01*
X57872472Y-87080693D01*
X57867862Y-87079247D01*
X57863139Y-87078022D01*
X57858307Y-87077017D01*
X57853370Y-87076234D01*
X57848332Y-87075673D01*
X57843197Y-87075337D01*
X57837971Y-87075224D01*
X57832742Y-87075337D01*
X57827600Y-87075673D01*
X57822550Y-87076234D01*
X57817597Y-87077017D01*
X57812745Y-87078022D01*
X57808000Y-87079247D01*
X57803366Y-87080693D01*
X57798848Y-87082358D01*
X57794450Y-87084242D01*
X57790179Y-87086342D01*
X57786037Y-87088660D01*
X57782031Y-87091193D01*
X57778165Y-87093941D01*
X57774444Y-87096903D01*
X57770873Y-87100078D01*
X57767456Y-87103465D01*
X57764198Y-87107064D01*
X57761105Y-87110873D01*
X57758180Y-87114892D01*
X57755429Y-87119119D01*
X57752857Y-87123555D01*
X57750468Y-87128197D01*
X57748267Y-87133046D01*
X57746259Y-87138100D01*
X57744449Y-87143359D01*
X57742842Y-87148821D01*
X57741441Y-87154485D01*
X57740254Y-87160352D01*
X57739283Y-87166420D01*
X57738534Y-87172687D01*
X57738011Y-87179154D01*
X57737720Y-87185820D01*
X57644334Y-87185820D01*
X57644773Y-87181142D01*
X57646775Y-87166321D01*
X57649301Y-87152182D01*
X57652330Y-87138715D01*
X57655841Y-87125907D01*
X57659813Y-87113746D01*
X57664223Y-87102221D01*
X57669052Y-87091319D01*
X57674277Y-87081029D01*
X57679878Y-87071339D01*
X57685833Y-87062237D01*
X57692121Y-87053711D01*
X57698720Y-87045750D01*
X57705610Y-87038341D01*
X57712769Y-87031473D01*
X57720175Y-87025134D01*
X57727808Y-87019312D01*
X57735647Y-87013996D01*
X57743669Y-87009172D01*
X57751854Y-87004830D01*
X57760180Y-87000958D01*
X57768627Y-86997544D01*
X57777172Y-86994576D01*
X57785795Y-86992042D01*
X57794474Y-86989930D01*
X57803188Y-86988229D01*
X57820637Y-86986011D01*
X57837971Y-86985292D01*
X57847765Y-86985519D01*
G37*
G36*
X57548152Y-86985482D02*
G01*
X57555127Y-86985966D01*
X57561961Y-86986764D01*
X57568659Y-86987865D01*
X57575226Y-86989264D01*
X57581667Y-86990950D01*
X57587988Y-86992917D01*
X57594193Y-86995155D01*
X57600290Y-86997656D01*
X57606282Y-87000413D01*
X57612176Y-87003418D01*
X57617977Y-87006661D01*
X57623689Y-87010135D01*
X57629319Y-87013831D01*
X57634872Y-87017741D01*
X57640353Y-87021858D01*
X57571006Y-87104329D01*
X57566863Y-87101279D01*
X57562852Y-87098466D01*
X57558951Y-87095885D01*
X57555138Y-87093529D01*
X57551392Y-87091394D01*
X57547689Y-87089473D01*
X57544008Y-87087762D01*
X57540327Y-87086254D01*
X57536624Y-87084945D01*
X57532876Y-87083828D01*
X57529062Y-87082898D01*
X57525159Y-87082150D01*
X57521146Y-87081577D01*
X57517000Y-87081175D01*
X57512698Y-87080938D01*
X57508220Y-87080860D01*
X57499452Y-87081214D01*
X57490774Y-87082286D01*
X57482250Y-87084088D01*
X57473947Y-87086635D01*
X57469899Y-87088192D01*
X57465930Y-87089940D01*
X57462050Y-87091881D01*
X57458266Y-87094016D01*
X57454587Y-87096348D01*
X57451020Y-87098877D01*
X57447574Y-87101607D01*
X57444257Y-87104537D01*
X57441078Y-87107671D01*
X57438044Y-87111009D01*
X57435164Y-87114553D01*
X57432446Y-87118306D01*
X57429898Y-87122269D01*
X57427529Y-87126443D01*
X57425346Y-87130830D01*
X57423359Y-87135432D01*
X57421574Y-87140250D01*
X57420001Y-87145287D01*
X57418647Y-87150544D01*
X57417520Y-87156022D01*
X57416630Y-87161723D01*
X57415984Y-87167650D01*
X57415591Y-87173803D01*
X57415458Y-87180185D01*
X57415458Y-87466014D01*
X57319917Y-87466014D01*
X57319917Y-86990954D01*
X57415458Y-86990954D01*
X57415458Y-87041543D01*
X57417363Y-87041543D01*
X57423136Y-87034737D01*
X57429208Y-87028371D01*
X57435572Y-87022442D01*
X57442218Y-87016952D01*
X57449139Y-87011901D01*
X57456326Y-87007289D01*
X57463771Y-87003116D01*
X57471466Y-86999382D01*
X57479403Y-86996086D01*
X57487573Y-86993230D01*
X57495968Y-86990813D01*
X57504579Y-86988835D01*
X57513400Y-86987297D01*
X57522420Y-86986198D01*
X57531632Y-86985539D01*
X57541029Y-86985319D01*
X57548152Y-86985482D01*
G37*
G36*
X57038699Y-86985790D02*
G01*
X57059298Y-86987239D01*
X57078912Y-86989724D01*
X57088330Y-86991372D01*
X57097478Y-86993300D01*
X57106347Y-86995515D01*
X57114930Y-86998024D01*
X57123218Y-87000834D01*
X57131203Y-87003951D01*
X57138878Y-87007384D01*
X57146233Y-87011139D01*
X57153262Y-87015222D01*
X57159956Y-87019642D01*
X57166307Y-87024405D01*
X57172306Y-87029518D01*
X57177947Y-87034988D01*
X57183220Y-87040822D01*
X57188117Y-87047028D01*
X57192631Y-87053611D01*
X57196754Y-87060580D01*
X57200477Y-87067941D01*
X57203792Y-87075701D01*
X57206691Y-87083868D01*
X57209167Y-87092448D01*
X57211210Y-87101448D01*
X57212814Y-87110876D01*
X57213969Y-87120738D01*
X57214668Y-87131042D01*
X57214903Y-87141794D01*
X57214903Y-87466014D01*
X57119309Y-87466014D01*
X57119283Y-87466014D01*
X57119283Y-87423839D01*
X57117431Y-87423839D01*
X57113581Y-87429787D01*
X57109396Y-87435321D01*
X57104848Y-87440445D01*
X57099910Y-87445162D01*
X57094554Y-87449478D01*
X57088754Y-87453396D01*
X57082481Y-87456922D01*
X57075709Y-87460058D01*
X57068410Y-87462809D01*
X57060558Y-87465180D01*
X57052123Y-87467174D01*
X57043080Y-87468797D01*
X57033401Y-87470051D01*
X57023058Y-87470942D01*
X57012025Y-87471473D01*
X57000273Y-87471650D01*
X56990476Y-87471467D01*
X56980940Y-87470924D01*
X56971668Y-87470030D01*
X56962665Y-87468791D01*
X56953932Y-87467216D01*
X56945473Y-87465312D01*
X56937292Y-87463088D01*
X56929392Y-87460551D01*
X56921776Y-87457709D01*
X56914448Y-87454571D01*
X56907409Y-87451143D01*
X56900665Y-87447435D01*
X56894218Y-87443453D01*
X56888072Y-87439206D01*
X56882229Y-87434702D01*
X56876693Y-87429948D01*
X56871467Y-87424953D01*
X56866555Y-87419724D01*
X56861959Y-87414269D01*
X56857684Y-87408596D01*
X56853732Y-87402713D01*
X56850106Y-87396627D01*
X56846810Y-87390348D01*
X56843847Y-87383882D01*
X56841221Y-87377238D01*
X56838934Y-87370423D01*
X56836990Y-87363446D01*
X56835392Y-87356313D01*
X56834144Y-87349034D01*
X56833248Y-87341616D01*
X56832708Y-87334066D01*
X56832527Y-87326394D01*
X56832629Y-87321710D01*
X56922539Y-87321710D01*
X56922839Y-87327629D01*
X56923753Y-87333425D01*
X56925301Y-87339062D01*
X56927505Y-87344506D01*
X56928859Y-87347144D01*
X56930384Y-87349720D01*
X56932083Y-87352229D01*
X56933959Y-87354668D01*
X56936014Y-87357031D01*
X56938250Y-87359314D01*
X56940671Y-87361513D01*
X56943279Y-87363623D01*
X56946076Y-87365640D01*
X56949064Y-87367560D01*
X56952248Y-87369377D01*
X56955628Y-87371087D01*
X56959208Y-87372687D01*
X56962991Y-87374170D01*
X56966978Y-87375534D01*
X56971172Y-87376773D01*
X56980193Y-87378859D01*
X56990073Y-87380394D01*
X57000835Y-87381341D01*
X57012497Y-87381665D01*
X57026821Y-87381552D01*
X57039952Y-87381159D01*
X57051927Y-87380400D01*
X57062784Y-87379193D01*
X57067805Y-87378395D01*
X57072560Y-87377453D01*
X57077054Y-87376357D01*
X57081291Y-87375097D01*
X57085276Y-87373662D01*
X57089015Y-87372041D01*
X57092510Y-87370224D01*
X57095768Y-87368201D01*
X57098792Y-87365960D01*
X57101588Y-87363492D01*
X57104160Y-87360787D01*
X57106512Y-87357833D01*
X57108649Y-87354620D01*
X57110577Y-87351137D01*
X57112298Y-87347375D01*
X57113819Y-87343323D01*
X57115144Y-87338969D01*
X57116277Y-87334305D01*
X57117223Y-87329318D01*
X57117986Y-87324000D01*
X57118572Y-87318339D01*
X57118985Y-87312324D01*
X57119229Y-87305946D01*
X57119309Y-87299194D01*
X57119309Y-87264507D01*
X57005009Y-87264507D01*
X56999826Y-87264573D01*
X56994817Y-87264768D01*
X56989983Y-87265092D01*
X56985323Y-87265542D01*
X56980836Y-87266117D01*
X56976520Y-87266814D01*
X56972376Y-87267631D01*
X56968404Y-87268567D01*
X56964601Y-87269620D01*
X56960968Y-87270788D01*
X56957503Y-87272069D01*
X56954207Y-87273460D01*
X56951078Y-87274961D01*
X56948116Y-87276570D01*
X56945320Y-87278284D01*
X56942690Y-87280101D01*
X56940224Y-87282020D01*
X56937922Y-87284038D01*
X56935784Y-87286155D01*
X56933808Y-87288367D01*
X56931994Y-87290674D01*
X56930342Y-87293072D01*
X56928850Y-87295561D01*
X56927518Y-87298138D01*
X56926345Y-87300802D01*
X56925331Y-87303550D01*
X56924475Y-87306381D01*
X56923776Y-87309293D01*
X56923234Y-87312284D01*
X56922847Y-87315351D01*
X56922616Y-87318494D01*
X56922539Y-87321710D01*
X56832629Y-87321710D01*
X56832681Y-87319314D01*
X56833142Y-87312310D01*
X56833910Y-87305391D01*
X56834983Y-87298567D01*
X56836363Y-87291847D01*
X56838047Y-87285243D01*
X56840036Y-87278762D01*
X56842329Y-87272416D01*
X56844925Y-87266214D01*
X56847824Y-87260165D01*
X56851026Y-87254280D01*
X56854529Y-87248568D01*
X56858334Y-87243040D01*
X56862439Y-87237704D01*
X56866845Y-87232571D01*
X56871550Y-87227651D01*
X56876554Y-87222953D01*
X56881857Y-87218487D01*
X56887458Y-87214263D01*
X56893357Y-87210290D01*
X56899552Y-87206579D01*
X56906044Y-87203140D01*
X56912832Y-87199981D01*
X56919915Y-87197114D01*
X56927294Y-87194547D01*
X56934966Y-87192290D01*
X56942932Y-87190354D01*
X56951191Y-87188748D01*
X56959743Y-87187482D01*
X56968587Y-87186565D01*
X56977723Y-87186008D01*
X56987150Y-87185820D01*
X57119283Y-87185820D01*
X57119283Y-87136158D01*
X57118940Y-87128066D01*
X57118508Y-87124268D01*
X57117901Y-87120634D01*
X57117116Y-87117159D01*
X57116151Y-87113842D01*
X57115004Y-87110681D01*
X57113675Y-87107673D01*
X57112159Y-87104816D01*
X57110457Y-87102106D01*
X57108565Y-87099543D01*
X57106483Y-87097124D01*
X57104207Y-87094846D01*
X57101737Y-87092706D01*
X57099070Y-87090703D01*
X57096205Y-87088834D01*
X57093139Y-87087097D01*
X57089870Y-87085489D01*
X57082719Y-87082652D01*
X57074736Y-87080303D01*
X57065906Y-87078424D01*
X57056213Y-87076996D01*
X57045643Y-87075999D01*
X57034181Y-87075415D01*
X57021811Y-87075224D01*
X57012802Y-87075337D01*
X57004380Y-87075682D01*
X56996516Y-87076273D01*
X56989182Y-87077121D01*
X56985704Y-87077645D01*
X56982347Y-87078238D01*
X56979108Y-87078902D01*
X56975983Y-87079638D01*
X56972969Y-87080447D01*
X56970062Y-87081331D01*
X56967259Y-87082292D01*
X56964555Y-87083331D01*
X56961947Y-87084449D01*
X56959431Y-87085649D01*
X56957005Y-87086931D01*
X56954664Y-87088297D01*
X56952404Y-87089749D01*
X56950223Y-87091289D01*
X56948115Y-87092917D01*
X56946079Y-87094635D01*
X56944110Y-87096446D01*
X56942205Y-87098349D01*
X56940359Y-87100348D01*
X56938570Y-87102443D01*
X56936834Y-87104635D01*
X56935147Y-87106928D01*
X56933505Y-87109321D01*
X56931905Y-87111817D01*
X56856922Y-87054666D01*
X56863961Y-87045542D01*
X56871379Y-87037147D01*
X56879178Y-87029462D01*
X56887365Y-87022466D01*
X56895942Y-87016142D01*
X56904913Y-87010470D01*
X56914282Y-87005430D01*
X56924053Y-87001002D01*
X56934231Y-86997168D01*
X56944819Y-86993908D01*
X56955821Y-86991203D01*
X56967241Y-86989033D01*
X56979083Y-86987379D01*
X56991351Y-86986222D01*
X57004048Y-86985541D01*
X57017180Y-86985319D01*
X57038699Y-86985790D01*
G37*
G36*
X56344451Y-87323588D02*
G01*
X56346329Y-87323588D01*
X56454068Y-86990954D01*
X56523415Y-86990954D01*
X56631153Y-87323588D01*
X56633085Y-87323588D01*
X56723916Y-86990954D01*
X56825146Y-86990954D01*
X56673381Y-87466014D01*
X56589005Y-87466014D01*
X56489680Y-87133353D01*
X56487802Y-87133353D01*
X56388478Y-87466014D01*
X56304155Y-87466014D01*
X56152363Y-86990954D01*
X56253540Y-86990954D01*
X56344451Y-87323588D01*
G37*
G36*
X56101219Y-87466014D02*
G01*
X56005652Y-87466014D01*
X56005652Y-87416351D01*
X55999868Y-87422370D01*
X55993769Y-87428132D01*
X55987367Y-87433618D01*
X55980676Y-87438810D01*
X55973711Y-87443691D01*
X55966485Y-87448242D01*
X55959011Y-87452446D01*
X55951303Y-87456284D01*
X55943376Y-87459737D01*
X55935243Y-87462789D01*
X55926917Y-87465421D01*
X55918413Y-87467615D01*
X55909744Y-87469353D01*
X55900923Y-87470617D01*
X55891966Y-87471388D01*
X55882885Y-87471649D01*
X55877485Y-87471573D01*
X55872178Y-87471346D01*
X55866964Y-87470971D01*
X55861843Y-87470452D01*
X55856814Y-87469791D01*
X55851879Y-87468992D01*
X55847036Y-87468058D01*
X55842284Y-87466992D01*
X55837625Y-87465796D01*
X55833058Y-87464475D01*
X55828583Y-87463031D01*
X55824199Y-87461467D01*
X55819906Y-87459786D01*
X55815705Y-87457992D01*
X55807575Y-87454074D01*
X55799807Y-87449740D01*
X55792401Y-87445013D01*
X55785353Y-87439918D01*
X55778665Y-87434480D01*
X55772332Y-87428723D01*
X55766355Y-87422673D01*
X55760732Y-87416353D01*
X55755462Y-87409790D01*
X55750758Y-87403476D01*
X55746477Y-87397098D01*
X55742602Y-87390526D01*
X55739118Y-87383629D01*
X55736007Y-87376276D01*
X55733254Y-87368338D01*
X55730841Y-87359683D01*
X55728752Y-87350182D01*
X55726971Y-87339704D01*
X55725481Y-87328119D01*
X55724265Y-87315296D01*
X55723307Y-87301104D01*
X55722100Y-87268095D01*
X55721727Y-87228048D01*
X55817295Y-87228048D01*
X55817369Y-87241905D01*
X55817672Y-87255655D01*
X55818320Y-87269187D01*
X55819432Y-87282394D01*
X55821126Y-87295168D01*
X55822229Y-87301358D01*
X55823521Y-87307399D01*
X55825017Y-87313278D01*
X55826733Y-87318980D01*
X55828683Y-87324493D01*
X55830881Y-87329803D01*
X55833343Y-87334896D01*
X55836084Y-87339758D01*
X55839117Y-87344376D01*
X55842459Y-87348737D01*
X55846123Y-87352827D01*
X55850124Y-87356633D01*
X55854477Y-87360140D01*
X55859197Y-87363336D01*
X55864299Y-87366206D01*
X55869797Y-87368738D01*
X55875707Y-87370917D01*
X55882042Y-87372731D01*
X55888818Y-87374165D01*
X55896049Y-87375206D01*
X55903750Y-87375841D01*
X55911936Y-87376055D01*
X55920038Y-87375827D01*
X55927661Y-87375155D01*
X55934818Y-87374054D01*
X55941525Y-87372540D01*
X55947796Y-87370630D01*
X55953646Y-87368339D01*
X55959089Y-87365684D01*
X55964140Y-87362681D01*
X55968813Y-87359346D01*
X55973124Y-87355695D01*
X55977086Y-87351744D01*
X55980714Y-87347510D01*
X55984023Y-87343008D01*
X55987028Y-87338254D01*
X55989742Y-87333265D01*
X55992181Y-87328057D01*
X55994359Y-87322645D01*
X55996291Y-87317047D01*
X55999475Y-87305353D01*
X56001849Y-87293104D01*
X56003529Y-87280430D01*
X56004633Y-87267458D01*
X56005277Y-87254318D01*
X56005652Y-87228048D01*
X56005578Y-87215119D01*
X56005277Y-87202079D01*
X56004633Y-87189057D01*
X56003529Y-87176184D01*
X56001849Y-87163591D01*
X56000756Y-87157441D01*
X55999475Y-87151409D01*
X55997992Y-87145512D01*
X55996291Y-87139767D01*
X55994359Y-87134189D01*
X55992181Y-87128796D01*
X55989742Y-87123603D01*
X55987028Y-87118627D01*
X55984023Y-87113884D01*
X55980714Y-87109390D01*
X55977086Y-87105162D01*
X55973124Y-87101217D01*
X55968813Y-87097569D01*
X55964140Y-87094236D01*
X55959089Y-87091234D01*
X55953646Y-87088580D01*
X55947796Y-87086289D01*
X55941525Y-87084378D01*
X55934818Y-87082863D01*
X55927661Y-87081761D01*
X55920038Y-87081088D01*
X55911936Y-87080860D01*
X55903750Y-87081075D01*
X55896049Y-87081709D01*
X55888818Y-87082751D01*
X55882042Y-87084185D01*
X55875707Y-87085998D01*
X55869797Y-87088176D01*
X55864299Y-87090706D01*
X55859197Y-87093574D01*
X55854477Y-87096766D01*
X55850124Y-87100268D01*
X55846123Y-87104067D01*
X55842459Y-87108148D01*
X55839117Y-87112499D01*
X55836084Y-87117106D01*
X55833343Y-87121954D01*
X55830881Y-87127030D01*
X55828683Y-87132320D01*
X55826733Y-87137811D01*
X55823521Y-87149339D01*
X55821126Y-87161504D01*
X55819432Y-87174197D01*
X55818320Y-87187308D01*
X55817672Y-87200727D01*
X55817295Y-87228048D01*
X55721727Y-87228048D01*
X55721818Y-87207223D01*
X55722100Y-87188271D01*
X55722591Y-87171062D01*
X55723307Y-87155466D01*
X55724265Y-87141355D01*
X55725481Y-87128599D01*
X55726971Y-87117069D01*
X55728752Y-87106637D01*
X55730841Y-87097173D01*
X55732006Y-87092763D01*
X55733254Y-87088547D01*
X55734587Y-87084508D01*
X55736007Y-87080631D01*
X55737517Y-87076899D01*
X55739118Y-87073296D01*
X55742602Y-87066412D01*
X55746477Y-87059851D01*
X55750758Y-87053483D01*
X55755462Y-87047178D01*
X55760732Y-87040606D01*
X55766355Y-87034280D01*
X55772332Y-87028226D01*
X55778665Y-87022466D01*
X55785353Y-87017027D01*
X55792401Y-87011932D01*
X55799807Y-87007206D01*
X55807575Y-87002874D01*
X55815705Y-86998960D01*
X55824199Y-86995488D01*
X55833058Y-86992483D01*
X55842284Y-86989969D01*
X55851879Y-86987971D01*
X55861843Y-86986514D01*
X55872178Y-86985622D01*
X55882885Y-86985319D01*
X55891904Y-86985580D01*
X55900692Y-86986351D01*
X55909261Y-86987617D01*
X55917620Y-86989360D01*
X55925782Y-86991565D01*
X55933757Y-86994214D01*
X55941556Y-86997291D01*
X55949190Y-87000781D01*
X55956670Y-87004665D01*
X55964008Y-87008929D01*
X55971214Y-87013555D01*
X55978299Y-87018526D01*
X55985274Y-87023828D01*
X55992151Y-87029442D01*
X55998940Y-87035352D01*
X56005652Y-87041543D01*
X56005652Y-86798814D01*
X56101219Y-86798814D01*
X56101219Y-87466014D01*
G37*
G36*
X55627577Y-86985482D02*
G01*
X55634559Y-86985966D01*
X55641397Y-86986764D01*
X55648098Y-86987865D01*
X55654665Y-86989264D01*
X55661106Y-86990950D01*
X55667426Y-86992917D01*
X55673630Y-86995155D01*
X55679723Y-86997656D01*
X55685713Y-87000413D01*
X55691603Y-87003418D01*
X55697400Y-87006661D01*
X55703110Y-87010135D01*
X55708738Y-87013831D01*
X55714289Y-87017741D01*
X55719769Y-87021858D01*
X55650449Y-87104329D01*
X55646305Y-87101279D01*
X55642293Y-87098466D01*
X55638392Y-87095885D01*
X55634577Y-87093529D01*
X55630829Y-87091394D01*
X55627125Y-87089473D01*
X55623443Y-87087762D01*
X55619760Y-87086254D01*
X55616056Y-87084945D01*
X55612308Y-87083828D01*
X55608493Y-87082898D01*
X55604591Y-87082150D01*
X55600579Y-87081577D01*
X55596435Y-87081175D01*
X55592137Y-87080938D01*
X55587663Y-87080860D01*
X55578899Y-87081214D01*
X55570223Y-87082286D01*
X55561700Y-87084088D01*
X55553397Y-87086635D01*
X55549348Y-87088192D01*
X55545379Y-87089940D01*
X55541497Y-87091881D01*
X55537712Y-87094016D01*
X55534031Y-87096348D01*
X55530463Y-87098877D01*
X55527015Y-87101607D01*
X55523697Y-87104537D01*
X55520515Y-87107671D01*
X55517480Y-87111009D01*
X55514598Y-87114553D01*
X55511878Y-87118306D01*
X55509328Y-87122269D01*
X55506957Y-87126443D01*
X55504772Y-87130830D01*
X55502783Y-87135432D01*
X55500996Y-87140250D01*
X55499421Y-87145287D01*
X55498066Y-87150544D01*
X55496939Y-87156022D01*
X55496048Y-87161723D01*
X55495401Y-87167650D01*
X55495007Y-87173803D01*
X55494874Y-87180185D01*
X55494874Y-87466014D01*
X55399306Y-87466014D01*
X55399306Y-86990954D01*
X55494874Y-86990954D01*
X55494874Y-87041543D01*
X55496752Y-87041543D01*
X55502526Y-87034737D01*
X55508599Y-87028371D01*
X55514964Y-87022442D01*
X55521612Y-87016952D01*
X55528535Y-87011901D01*
X55535724Y-87007289D01*
X55543172Y-87003116D01*
X55550869Y-86999382D01*
X55558808Y-86996086D01*
X55566981Y-86993230D01*
X55575378Y-86990813D01*
X55583992Y-86988835D01*
X55592813Y-86987297D01*
X55601835Y-86986198D01*
X55611048Y-86985539D01*
X55620445Y-86985319D01*
X55627577Y-86985482D01*
G37*
G36*
X55118119Y-86985790D02*
G01*
X55138722Y-86987239D01*
X55158338Y-86989724D01*
X55167757Y-86991372D01*
X55176905Y-86993300D01*
X55185775Y-86995515D01*
X55194358Y-86998024D01*
X55202646Y-87000834D01*
X55210631Y-87003951D01*
X55218305Y-87007384D01*
X55225660Y-87011139D01*
X55232689Y-87015222D01*
X55239382Y-87019642D01*
X55245732Y-87024405D01*
X55251731Y-87029518D01*
X55257371Y-87034988D01*
X55262643Y-87040822D01*
X55267540Y-87047028D01*
X55272053Y-87053611D01*
X55276175Y-87060580D01*
X55279897Y-87067941D01*
X55283211Y-87075701D01*
X55286110Y-87083868D01*
X55288585Y-87092448D01*
X55290628Y-87101448D01*
X55292231Y-87110876D01*
X55293386Y-87120738D01*
X55294085Y-87131042D01*
X55294319Y-87141794D01*
X55294319Y-87466014D01*
X55198726Y-87466014D01*
X55198726Y-87423839D01*
X55196847Y-87423839D01*
X55193002Y-87429787D01*
X55188822Y-87435321D01*
X55184279Y-87440445D01*
X55179345Y-87445162D01*
X55173994Y-87449478D01*
X55168197Y-87453396D01*
X55161928Y-87456922D01*
X55155159Y-87460058D01*
X55147862Y-87462809D01*
X55140011Y-87465180D01*
X55131577Y-87467174D01*
X55122533Y-87468797D01*
X55112853Y-87470051D01*
X55102508Y-87470942D01*
X55091472Y-87471473D01*
X55079716Y-87471650D01*
X55069919Y-87471467D01*
X55060383Y-87470924D01*
X55051112Y-87470030D01*
X55042108Y-87468791D01*
X55033376Y-87467216D01*
X55024918Y-87465312D01*
X55016738Y-87463088D01*
X55008839Y-87460551D01*
X55001224Y-87457709D01*
X54993896Y-87454571D01*
X54986860Y-87451143D01*
X54980117Y-87447435D01*
X54973671Y-87443453D01*
X54967525Y-87439206D01*
X54961684Y-87434702D01*
X54956149Y-87429948D01*
X54950925Y-87424953D01*
X54946013Y-87419724D01*
X54941419Y-87414269D01*
X54937145Y-87408596D01*
X54933194Y-87402713D01*
X54929569Y-87396627D01*
X54926274Y-87390348D01*
X54923313Y-87383882D01*
X54920687Y-87377238D01*
X54918401Y-87370423D01*
X54916458Y-87363446D01*
X54914860Y-87356313D01*
X54913612Y-87349034D01*
X54912717Y-87341616D01*
X54912177Y-87334066D01*
X54911997Y-87326394D01*
X54912098Y-87321710D01*
X55001929Y-87321710D01*
X55002229Y-87327629D01*
X55003143Y-87333425D01*
X55004691Y-87339062D01*
X55006895Y-87344506D01*
X55008249Y-87347144D01*
X55009775Y-87349720D01*
X55011474Y-87352229D01*
X55013350Y-87354668D01*
X55015405Y-87357031D01*
X55017642Y-87359314D01*
X55020064Y-87361513D01*
X55022672Y-87363623D01*
X55025469Y-87365640D01*
X55028459Y-87367560D01*
X55031643Y-87369377D01*
X55035025Y-87371087D01*
X55038606Y-87372687D01*
X55042389Y-87374170D01*
X55046377Y-87375534D01*
X55050573Y-87376773D01*
X55059597Y-87378859D01*
X55069481Y-87380394D01*
X55080246Y-87381341D01*
X55091913Y-87381665D01*
X55106237Y-87381552D01*
X55119368Y-87381159D01*
X55131344Y-87380400D01*
X55142201Y-87379193D01*
X55147221Y-87378395D01*
X55151976Y-87377453D01*
X55156470Y-87376357D01*
X55160707Y-87375097D01*
X55164693Y-87373662D01*
X55168431Y-87372041D01*
X55171927Y-87370224D01*
X55175184Y-87368201D01*
X55178209Y-87365960D01*
X55181004Y-87363492D01*
X55183576Y-87360787D01*
X55185928Y-87357833D01*
X55188066Y-87354620D01*
X55189993Y-87351137D01*
X55191715Y-87347375D01*
X55193236Y-87343323D01*
X55194560Y-87338969D01*
X55195693Y-87334305D01*
X55196639Y-87329318D01*
X55197402Y-87324000D01*
X55197988Y-87318339D01*
X55198401Y-87312324D01*
X55198645Y-87305946D01*
X55198726Y-87299194D01*
X55198726Y-87264507D01*
X55084426Y-87264507D01*
X55079240Y-87264573D01*
X55074229Y-87264768D01*
X55069393Y-87265092D01*
X55064731Y-87265542D01*
X55060241Y-87266117D01*
X55055924Y-87266814D01*
X55051779Y-87267631D01*
X55047805Y-87268567D01*
X55044001Y-87269620D01*
X55040366Y-87270788D01*
X55036901Y-87272069D01*
X55033604Y-87273460D01*
X55030474Y-87274961D01*
X55027511Y-87276570D01*
X55024714Y-87278284D01*
X55022083Y-87280101D01*
X55019617Y-87282020D01*
X55017314Y-87284038D01*
X55015176Y-87286155D01*
X55013199Y-87288367D01*
X55011385Y-87290674D01*
X55009733Y-87293072D01*
X55008241Y-87295561D01*
X55006908Y-87298138D01*
X55005736Y-87300802D01*
X55004721Y-87303550D01*
X55003865Y-87306381D01*
X55003166Y-87309293D01*
X55002624Y-87312284D01*
X55002237Y-87315351D01*
X55002006Y-87318494D01*
X55001929Y-87321710D01*
X54912098Y-87321710D01*
X54912150Y-87319314D01*
X54912611Y-87312310D01*
X54913378Y-87305391D01*
X54914451Y-87298567D01*
X54915829Y-87291847D01*
X54917512Y-87285243D01*
X54919499Y-87278762D01*
X54921790Y-87272416D01*
X54924385Y-87266214D01*
X54927282Y-87260165D01*
X54930482Y-87254280D01*
X54933983Y-87248568D01*
X54937786Y-87243040D01*
X54941889Y-87237704D01*
X54946293Y-87232571D01*
X54950996Y-87227651D01*
X54955999Y-87222953D01*
X54961300Y-87218487D01*
X54966899Y-87214263D01*
X54972797Y-87210290D01*
X54978991Y-87206579D01*
X54985482Y-87203140D01*
X54992269Y-87199981D01*
X54999351Y-87197114D01*
X55006729Y-87194547D01*
X55014401Y-87192290D01*
X55022368Y-87190354D01*
X55030628Y-87188748D01*
X55039181Y-87187482D01*
X55048026Y-87186565D01*
X55057164Y-87186008D01*
X55066593Y-87185820D01*
X55198726Y-87185820D01*
X55198726Y-87136158D01*
X55198383Y-87128066D01*
X55197951Y-87124268D01*
X55197344Y-87120634D01*
X55196559Y-87117159D01*
X55195594Y-87113842D01*
X55194447Y-87110681D01*
X55193118Y-87107673D01*
X55191603Y-87104816D01*
X55189900Y-87102106D01*
X55188009Y-87099543D01*
X55185927Y-87097124D01*
X55183652Y-87094846D01*
X55181182Y-87092706D01*
X55178516Y-87090703D01*
X55175651Y-87088834D01*
X55172585Y-87087097D01*
X55169318Y-87085489D01*
X55162168Y-87082652D01*
X55154187Y-87080303D01*
X55145360Y-87078424D01*
X55135670Y-87076996D01*
X55125103Y-87075999D01*
X55113645Y-87075415D01*
X55101280Y-87075224D01*
X55092270Y-87075337D01*
X55083847Y-87075682D01*
X55075981Y-87076273D01*
X55068642Y-87077121D01*
X55065162Y-87077645D01*
X55061804Y-87078238D01*
X55058563Y-87078902D01*
X55055436Y-87079638D01*
X55052419Y-87080447D01*
X55049510Y-87081331D01*
X55046704Y-87082292D01*
X55043997Y-87083331D01*
X55041387Y-87084449D01*
X55038869Y-87085649D01*
X55036440Y-87086931D01*
X55034097Y-87088297D01*
X55031835Y-87089749D01*
X55029651Y-87091289D01*
X55027542Y-87092917D01*
X55025504Y-87094635D01*
X55023533Y-87096446D01*
X55021626Y-87098349D01*
X55019779Y-87100348D01*
X55017989Y-87102443D01*
X55016251Y-87104635D01*
X55014563Y-87106928D01*
X55012921Y-87109321D01*
X55011321Y-87111817D01*
X54936365Y-87054666D01*
X54943403Y-87045542D01*
X54950819Y-87037147D01*
X54958616Y-87029462D01*
X54966800Y-87022466D01*
X54975373Y-87016142D01*
X54984340Y-87010470D01*
X54993705Y-87005430D01*
X55003473Y-87001002D01*
X55013647Y-86997168D01*
X55024232Y-86993908D01*
X55035232Y-86991203D01*
X55046650Y-86989033D01*
X55058492Y-86987379D01*
X55070760Y-86986222D01*
X55083461Y-86985541D01*
X55096596Y-86985319D01*
X55118119Y-86985790D01*
G37*
G36*
X56495745Y-82682875D02*
G01*
X56496752Y-82682950D01*
X56497754Y-82683073D01*
X56498750Y-82683244D01*
X56499738Y-82683460D01*
X56500716Y-82683721D01*
X56501684Y-82684025D01*
X56502638Y-82684372D01*
X56503579Y-82684759D01*
X56504505Y-82685187D01*
X56505413Y-82685652D01*
X56506304Y-82686155D01*
X56507174Y-82686694D01*
X56508023Y-82687268D01*
X56508848Y-82687876D01*
X56509650Y-82688515D01*
X56510426Y-82689186D01*
X56511174Y-82689887D01*
X56511893Y-82690616D01*
X56512582Y-82691373D01*
X56513239Y-82692156D01*
X56513863Y-82692963D01*
X56514452Y-82693795D01*
X56515004Y-82694648D01*
X56515519Y-82695523D01*
X56515995Y-82696418D01*
X56516429Y-82697332D01*
X56516822Y-82698263D01*
X56517170Y-82699211D01*
X56517473Y-82700173D01*
X56517730Y-82701149D01*
X56517938Y-82702138D01*
X56601679Y-83152009D01*
X56601890Y-83153006D01*
X56602147Y-83154006D01*
X56602791Y-83156010D01*
X56603599Y-83158008D01*
X56604560Y-83159986D01*
X56605662Y-83161932D01*
X56606895Y-83163832D01*
X56608246Y-83165674D01*
X56609706Y-83167444D01*
X56611261Y-83169130D01*
X56612902Y-83170718D01*
X56614617Y-83172195D01*
X56616394Y-83173548D01*
X56618223Y-83174765D01*
X56620092Y-83175831D01*
X56621037Y-83176304D01*
X56621989Y-83176735D01*
X56622945Y-83177121D01*
X56623904Y-83177462D01*
X56925423Y-83300890D01*
X56927296Y-83301715D01*
X56929283Y-83302404D01*
X56931365Y-83302958D01*
X56933526Y-83303378D01*
X56935748Y-83303667D01*
X56938013Y-83303824D01*
X56940304Y-83303852D01*
X56942604Y-83303751D01*
X56944895Y-83303523D01*
X56947159Y-83303168D01*
X56949379Y-83302688D01*
X56951538Y-83302085D01*
X56953618Y-83301358D01*
X56955602Y-83300511D01*
X56957472Y-83299543D01*
X56959210Y-83298456D01*
X57335051Y-83040540D01*
X57335897Y-83039989D01*
X57336769Y-83039480D01*
X57337664Y-83039014D01*
X57338580Y-83038591D01*
X57339515Y-83038210D01*
X57340468Y-83037872D01*
X57341436Y-83037575D01*
X57342418Y-83037321D01*
X57343412Y-83037108D01*
X57344415Y-83036936D01*
X57346443Y-83036717D01*
X57348487Y-83036662D01*
X57350532Y-83036770D01*
X57352563Y-83037039D01*
X57354563Y-83037467D01*
X57356518Y-83038055D01*
X57357474Y-83038407D01*
X57358413Y-83038799D01*
X57359333Y-83039229D01*
X57360232Y-83039699D01*
X57361108Y-83040207D01*
X57361960Y-83040753D01*
X57362785Y-83041337D01*
X57363581Y-83041960D01*
X57364347Y-83042620D01*
X57365081Y-83043318D01*
X57681602Y-83359839D01*
X57682300Y-83360573D01*
X57682960Y-83361339D01*
X57683582Y-83362136D01*
X57684165Y-83362962D01*
X57684711Y-83363814D01*
X57685217Y-83364691D01*
X57686114Y-83366511D01*
X57686855Y-83368408D01*
X57687439Y-83370366D01*
X57687865Y-83372369D01*
X57688131Y-83374401D01*
X57688236Y-83376449D01*
X57688180Y-83378495D01*
X57687961Y-83380526D01*
X57687577Y-83382524D01*
X57687029Y-83384476D01*
X57686692Y-83385430D01*
X57686314Y-83386366D01*
X57685894Y-83387282D01*
X57685431Y-83388177D01*
X57684927Y-83389049D01*
X57684380Y-83389896D01*
X57430962Y-83759254D01*
X57429872Y-83761000D01*
X57428905Y-83762873D01*
X57428061Y-83764856D01*
X57427342Y-83766931D01*
X57426749Y-83769082D01*
X57426283Y-83771292D01*
X57425945Y-83773544D01*
X57425736Y-83775821D01*
X57425658Y-83778105D01*
X57425711Y-83780380D01*
X57425896Y-83782629D01*
X57426214Y-83784834D01*
X57426667Y-83786979D01*
X57427256Y-83789047D01*
X57427982Y-83791021D01*
X57428845Y-83792883D01*
X57562169Y-84103927D01*
X57562930Y-84105837D01*
X57563867Y-84107729D01*
X57564964Y-84109593D01*
X57566210Y-84111417D01*
X57567591Y-84113189D01*
X57569094Y-84114899D01*
X57570705Y-84116535D01*
X57572412Y-84118086D01*
X57574201Y-84119540D01*
X57576059Y-84120886D01*
X57577972Y-84122114D01*
X57579928Y-84123211D01*
X57581914Y-84124167D01*
X57583915Y-84124970D01*
X57585919Y-84125609D01*
X57587913Y-84126073D01*
X58022861Y-84206956D01*
X58023848Y-84207169D01*
X58024822Y-84207429D01*
X58025782Y-84207737D01*
X58026728Y-84208089D01*
X58027657Y-84208484D01*
X58028569Y-84208921D01*
X58029462Y-84209399D01*
X58030335Y-84209916D01*
X58032018Y-84211061D01*
X58033605Y-84212345D01*
X58035089Y-84213755D01*
X58036458Y-84215280D01*
X58037702Y-84216909D01*
X58038813Y-84218629D01*
X58039779Y-84220428D01*
X58040205Y-84221354D01*
X58040591Y-84222296D01*
X58040936Y-84223252D01*
X58041238Y-84224220D01*
X58041497Y-84225200D01*
X58041712Y-84226189D01*
X58041880Y-84227186D01*
X58042001Y-84228190D01*
X58042074Y-84229199D01*
X58042097Y-84230212D01*
X58042044Y-84677861D01*
X58042018Y-84678872D01*
X58041943Y-84679880D01*
X58041820Y-84680883D01*
X58041649Y-84681879D01*
X58041432Y-84682868D01*
X58041171Y-84683848D01*
X58040866Y-84684817D01*
X58040518Y-84685773D01*
X58040130Y-84686716D01*
X58039702Y-84687643D01*
X58039235Y-84688554D01*
X58038731Y-84689446D01*
X58038192Y-84690318D01*
X58037617Y-84691169D01*
X58037009Y-84691997D01*
X58036368Y-84692800D01*
X58035697Y-84693577D01*
X58034996Y-84694327D01*
X58034266Y-84695048D01*
X58033509Y-84695739D01*
X58032727Y-84696397D01*
X58031919Y-84697022D01*
X58031088Y-84697612D01*
X58030234Y-84698165D01*
X58029360Y-84698680D01*
X58028466Y-84699155D01*
X58027553Y-84699590D01*
X58026623Y-84699981D01*
X58025677Y-84700329D01*
X58024716Y-84700631D01*
X58023742Y-84700885D01*
X58022756Y-84701091D01*
X57598496Y-84780043D01*
X57597497Y-84780248D01*
X57596497Y-84780499D01*
X57595495Y-84780795D01*
X57594495Y-84781134D01*
X57592503Y-84781937D01*
X57590535Y-84782896D01*
X57588603Y-84783999D01*
X57586719Y-84785235D01*
X57584896Y-84786593D01*
X57583147Y-84788060D01*
X57581484Y-84789625D01*
X57579921Y-84791277D01*
X57578470Y-84793003D01*
X57577143Y-84794792D01*
X57575953Y-84796633D01*
X57574913Y-84798513D01*
X57574036Y-84800422D01*
X57573662Y-84801383D01*
X57573334Y-84802347D01*
X57440884Y-85133209D01*
X57440065Y-85135091D01*
X57439381Y-85137084D01*
X57438833Y-85139171D01*
X57438419Y-85141334D01*
X57438136Y-85143557D01*
X57437985Y-85145822D01*
X57437963Y-85148112D01*
X57438069Y-85150410D01*
X57438302Y-85152698D01*
X57438661Y-85154959D01*
X57439144Y-85157176D01*
X57439749Y-85159332D01*
X57440476Y-85161409D01*
X57441323Y-85163390D01*
X57442288Y-85165258D01*
X57443371Y-85166996D01*
X57684380Y-85518178D01*
X57684931Y-85519024D01*
X57685440Y-85519897D01*
X57685905Y-85520792D01*
X57686329Y-85521709D01*
X57686709Y-85522646D01*
X57687048Y-85523600D01*
X57687345Y-85524570D01*
X57687599Y-85525553D01*
X57687812Y-85526549D01*
X57687984Y-85527554D01*
X57688203Y-85529587D01*
X57688258Y-85531636D01*
X57688150Y-85533686D01*
X57687881Y-85535721D01*
X57687452Y-85537726D01*
X57686865Y-85539686D01*
X57686513Y-85540644D01*
X57686121Y-85541585D01*
X57685690Y-85542506D01*
X57685221Y-85543407D01*
X57684713Y-85544285D01*
X57684167Y-85545137D01*
X57683583Y-85545963D01*
X57682960Y-85546761D01*
X57682300Y-85547527D01*
X57681602Y-85548261D01*
X57365028Y-85864782D01*
X57364299Y-85865475D01*
X57363537Y-85866131D01*
X57362744Y-85866749D01*
X57361922Y-85867330D01*
X57361073Y-85867873D01*
X57360198Y-85868377D01*
X57358382Y-85869271D01*
X57356488Y-85870011D01*
X57354533Y-85870595D01*
X57352531Y-85871022D01*
X57350499Y-85871291D01*
X57348451Y-85871399D01*
X57346404Y-85871346D01*
X57344372Y-85871130D01*
X57342372Y-85870750D01*
X57340419Y-85870204D01*
X57339465Y-85869869D01*
X57338529Y-85869492D01*
X57337612Y-85869072D01*
X57336716Y-85868611D01*
X57335844Y-85868107D01*
X57334998Y-85867560D01*
X56990007Y-85630784D01*
X56988273Y-85629705D01*
X56986416Y-85628758D01*
X56984452Y-85627945D01*
X56982399Y-85627265D01*
X56980273Y-85626720D01*
X56978092Y-85626308D01*
X56975872Y-85626032D01*
X56973630Y-85625890D01*
X56971383Y-85625883D01*
X56969148Y-85626012D01*
X56966941Y-85626276D01*
X56964781Y-85626677D01*
X56962683Y-85627214D01*
X56960665Y-85627888D01*
X56958743Y-85628699D01*
X56956934Y-85629647D01*
X56804799Y-85710874D01*
X56803889Y-85711306D01*
X56802972Y-85711687D01*
X56802049Y-85712015D01*
X56801121Y-85712293D01*
X56800191Y-85712519D01*
X56799259Y-85712696D01*
X56798328Y-85712824D01*
X56797398Y-85712903D01*
X56796473Y-85712933D01*
X56795552Y-85712916D01*
X56794638Y-85712852D01*
X56793732Y-85712742D01*
X56792836Y-85712585D01*
X56791952Y-85712383D01*
X56791080Y-85712137D01*
X56790224Y-85711846D01*
X56789383Y-85711512D01*
X56788560Y-85711135D01*
X56787757Y-85710715D01*
X56786974Y-85710254D01*
X56786215Y-85709751D01*
X56785479Y-85709208D01*
X56784769Y-85708624D01*
X56784086Y-85708001D01*
X56783432Y-85707340D01*
X56782808Y-85706640D01*
X56782217Y-85705902D01*
X56781659Y-85705127D01*
X56781137Y-85704315D01*
X56780651Y-85703467D01*
X56780203Y-85702584D01*
X56779796Y-85701666D01*
X56466132Y-84943688D01*
X56465769Y-84942745D01*
X56465455Y-84941788D01*
X56465188Y-84940818D01*
X56464967Y-84939838D01*
X56464793Y-84938848D01*
X56464665Y-84937852D01*
X56464581Y-84936850D01*
X56464542Y-84935845D01*
X56464547Y-84934838D01*
X56464595Y-84933831D01*
X56464685Y-84932826D01*
X56464818Y-84931825D01*
X56464992Y-84930829D01*
X56465206Y-84929840D01*
X56465461Y-84928861D01*
X56465755Y-84927892D01*
X56466088Y-84926937D01*
X56466460Y-84925995D01*
X56466869Y-84925070D01*
X56467315Y-84924164D01*
X56467798Y-84923277D01*
X56468316Y-84922411D01*
X56468870Y-84921570D01*
X56469458Y-84920754D01*
X56470081Y-84919964D01*
X56470737Y-84919204D01*
X56471425Y-84918475D01*
X56472146Y-84917778D01*
X56472899Y-84917115D01*
X56473682Y-84916488D01*
X56474496Y-84915900D01*
X56475340Y-84915351D01*
X56513413Y-84892041D01*
X56516154Y-84890296D01*
X56519079Y-84888304D01*
X56522135Y-84886109D01*
X56525267Y-84883753D01*
X56528417Y-84881281D01*
X56531533Y-84878736D01*
X56534558Y-84876161D01*
X56537437Y-84873600D01*
X56562641Y-84856348D01*
X56586695Y-84837617D01*
X56609533Y-84817472D01*
X56631089Y-84795978D01*
X56651298Y-84773200D01*
X56670094Y-84749204D01*
X56687412Y-84724054D01*
X56703186Y-84697817D01*
X56717349Y-84670558D01*
X56729838Y-84642341D01*
X56740585Y-84613232D01*
X56749525Y-84583296D01*
X56756593Y-84552599D01*
X56761723Y-84521205D01*
X56764849Y-84489180D01*
X56765905Y-84456590D01*
X56765261Y-84431114D01*
X56763349Y-84405972D01*
X56760201Y-84381196D01*
X56755848Y-84356816D01*
X56750320Y-84332865D01*
X56743649Y-84309372D01*
X56735866Y-84286369D01*
X56727002Y-84263888D01*
X56717088Y-84241958D01*
X56706156Y-84220612D01*
X56694236Y-84199880D01*
X56681359Y-84179794D01*
X56667557Y-84160385D01*
X56652861Y-84141683D01*
X56637302Y-84123720D01*
X56620910Y-84106527D01*
X56603718Y-84090135D01*
X56585756Y-84074575D01*
X56567055Y-84059878D01*
X56547646Y-84046076D01*
X56527561Y-84033199D01*
X56506830Y-84021279D01*
X56485485Y-84010346D01*
X56463557Y-84000432D01*
X56441077Y-83991568D01*
X56418076Y-83983785D01*
X56394585Y-83977114D01*
X56370635Y-83971586D01*
X56346257Y-83967232D01*
X56321483Y-83964084D01*
X56296344Y-83962172D01*
X56270870Y-83961528D01*
X56245396Y-83962172D01*
X56220256Y-83964084D01*
X56195482Y-83967232D01*
X56171104Y-83971586D01*
X56147153Y-83977114D01*
X56123661Y-83983785D01*
X56100659Y-83991568D01*
X56078178Y-84000432D01*
X56056249Y-84010346D01*
X56034903Y-84021279D01*
X56014172Y-84033199D01*
X55994085Y-84046076D01*
X55974675Y-84059878D01*
X55955973Y-84074575D01*
X55938010Y-84090135D01*
X55920816Y-84106527D01*
X55904423Y-84123720D01*
X55888863Y-84141683D01*
X55874165Y-84160385D01*
X55860362Y-84179794D01*
X55847485Y-84199880D01*
X55835564Y-84220612D01*
X55824630Y-84241958D01*
X55814715Y-84263888D01*
X55805851Y-84286369D01*
X55798067Y-84309372D01*
X55791395Y-84332865D01*
X55785867Y-84356816D01*
X55781513Y-84381196D01*
X55778364Y-84405972D01*
X55776452Y-84431114D01*
X55775808Y-84456590D01*
X55776074Y-84472952D01*
X55776865Y-84489180D01*
X55778174Y-84505268D01*
X55779992Y-84521205D01*
X55782311Y-84536985D01*
X55785123Y-84552599D01*
X55788419Y-84568038D01*
X55792192Y-84583296D01*
X55796433Y-84598363D01*
X55801134Y-84613232D01*
X55806286Y-84627894D01*
X55811882Y-84642341D01*
X55817914Y-84656565D01*
X55824372Y-84670558D01*
X55838537Y-84697817D01*
X55854312Y-84724055D01*
X55871630Y-84749204D01*
X55890427Y-84773200D01*
X55910635Y-84795978D01*
X55932190Y-84817472D01*
X55955026Y-84837617D01*
X55979076Y-84856348D01*
X56004276Y-84873600D01*
X56007171Y-84876161D01*
X56010207Y-84878736D01*
X56013329Y-84881281D01*
X56016483Y-84883753D01*
X56019616Y-84886109D01*
X56022675Y-84888304D01*
X56025605Y-84890296D01*
X56028353Y-84892041D01*
X56066426Y-84915351D01*
X56067275Y-84915900D01*
X56068093Y-84916488D01*
X56068880Y-84917115D01*
X56069636Y-84917778D01*
X56070360Y-84918475D01*
X56071051Y-84919204D01*
X56072334Y-84920754D01*
X56073479Y-84922411D01*
X56074481Y-84924164D01*
X56075337Y-84925995D01*
X56076041Y-84927892D01*
X56076588Y-84929840D01*
X56076974Y-84931825D01*
X56077194Y-84933831D01*
X56077243Y-84935845D01*
X56077116Y-84937852D01*
X56076985Y-84938848D01*
X56076809Y-84939838D01*
X56076586Y-84940818D01*
X56076316Y-84941788D01*
X56075999Y-84942745D01*
X56075634Y-84943688D01*
X55761944Y-85701640D01*
X55761537Y-85702558D01*
X55761089Y-85703441D01*
X55760603Y-85704289D01*
X55760080Y-85705101D01*
X55759521Y-85705877D01*
X55758929Y-85706616D01*
X55758305Y-85707316D01*
X55757650Y-85707979D01*
X55756967Y-85708603D01*
X55756256Y-85709187D01*
X55755519Y-85709731D01*
X55754759Y-85710234D01*
X55753975Y-85710697D01*
X55753171Y-85711117D01*
X55752348Y-85711495D01*
X55751506Y-85711830D01*
X55750649Y-85712121D01*
X55749777Y-85712368D01*
X55748892Y-85712570D01*
X55747996Y-85712727D01*
X55747090Y-85712838D01*
X55746176Y-85712902D01*
X55745256Y-85712919D01*
X55744330Y-85712888D01*
X55743401Y-85712808D01*
X55742471Y-85712680D01*
X55741540Y-85712502D01*
X55740611Y-85712274D01*
X55739685Y-85711995D01*
X55738764Y-85711665D01*
X55737848Y-85711282D01*
X55736941Y-85710848D01*
X55584806Y-85629620D01*
X55583001Y-85628673D01*
X55581083Y-85627863D01*
X55579067Y-85627190D01*
X55576970Y-85626654D01*
X55574810Y-85626255D01*
X55572604Y-85625992D01*
X55570368Y-85625865D01*
X55568120Y-85625873D01*
X55565877Y-85626016D01*
X55563655Y-85626294D01*
X55561472Y-85626705D01*
X55559345Y-85627250D01*
X55557290Y-85627929D01*
X55555325Y-85628740D01*
X55553467Y-85629683D01*
X55551733Y-85630758D01*
X55206769Y-85867534D01*
X55205920Y-85868080D01*
X55205046Y-85868584D01*
X55204148Y-85869046D01*
X55203230Y-85869465D01*
X55202292Y-85869843D01*
X55201337Y-85870178D01*
X55200367Y-85870472D01*
X55199382Y-85870724D01*
X55198387Y-85870934D01*
X55197382Y-85871104D01*
X55195350Y-85871319D01*
X55193302Y-85871373D01*
X55191254Y-85871264D01*
X55189222Y-85870996D01*
X55187220Y-85870569D01*
X55185264Y-85869985D01*
X55184308Y-85869635D01*
X55183369Y-85869245D01*
X55182450Y-85868817D01*
X55181552Y-85868351D01*
X55180676Y-85867846D01*
X55179826Y-85867304D01*
X55179002Y-85866723D01*
X55178208Y-85866105D01*
X55177444Y-85865449D01*
X55176712Y-85864756D01*
X54860138Y-85548234D01*
X54859443Y-85547501D01*
X54858784Y-85546734D01*
X54858164Y-85545937D01*
X54857582Y-85545111D01*
X54857037Y-85544258D01*
X54856531Y-85543381D01*
X54855634Y-85541558D01*
X54854892Y-85539660D01*
X54854306Y-85537700D01*
X54853878Y-85535695D01*
X54853610Y-85533659D01*
X54853502Y-85531609D01*
X54853556Y-85529560D01*
X54853773Y-85527528D01*
X54854155Y-85525527D01*
X54854704Y-85523574D01*
X54855041Y-85522619D01*
X54855420Y-85521683D01*
X54855841Y-85520766D01*
X54856305Y-85519870D01*
X54856811Y-85518998D01*
X54857360Y-85518151D01*
X55098343Y-85166970D01*
X55099434Y-85165232D01*
X55100407Y-85163364D01*
X55101260Y-85161383D01*
X55101991Y-85159306D01*
X55102600Y-85157150D01*
X55103084Y-85154933D01*
X55103444Y-85152672D01*
X55103677Y-85150384D01*
X55103783Y-85148086D01*
X55103761Y-85145796D01*
X55103608Y-85143531D01*
X55103325Y-85141308D01*
X55102909Y-85139145D01*
X55102360Y-85137058D01*
X55101676Y-85135065D01*
X55100856Y-85133183D01*
X54968406Y-84802321D01*
X54968080Y-84801357D01*
X54967707Y-84800396D01*
X54966832Y-84798487D01*
X54965792Y-84796606D01*
X54964600Y-84794766D01*
X54963270Y-84792976D01*
X54961815Y-84791250D01*
X54960247Y-84789599D01*
X54958580Y-84788034D01*
X54956826Y-84786567D01*
X54954999Y-84785209D01*
X54953111Y-84783973D01*
X54951175Y-84782869D01*
X54949205Y-84781910D01*
X54947213Y-84781108D01*
X54945213Y-84780473D01*
X54944214Y-84780222D01*
X54943217Y-84780017D01*
X54518958Y-84701065D01*
X54517969Y-84700859D01*
X54516993Y-84700605D01*
X54516031Y-84700303D01*
X54515083Y-84699955D01*
X54514152Y-84699563D01*
X54513238Y-84699129D01*
X54512343Y-84698654D01*
X54511468Y-84698139D01*
X54510614Y-84697585D01*
X54509783Y-84696996D01*
X54508193Y-84695712D01*
X54506707Y-84694301D01*
X54505335Y-84692774D01*
X54504088Y-84691142D01*
X54502975Y-84689420D01*
X54502007Y-84687617D01*
X54501192Y-84685747D01*
X54500845Y-84684790D01*
X54500541Y-84683822D01*
X54500280Y-84682842D01*
X54500064Y-84681853D01*
X54499893Y-84680856D01*
X54499770Y-84679853D01*
X54499695Y-84678846D01*
X54499670Y-84677835D01*
X54499643Y-84230186D01*
X54499669Y-84229175D01*
X54499743Y-84228168D01*
X54499866Y-84227166D01*
X54500036Y-84226171D01*
X54500252Y-84225184D01*
X54500512Y-84224206D01*
X54500816Y-84223239D01*
X54501162Y-84222285D01*
X54501548Y-84221345D01*
X54501975Y-84220420D01*
X54502440Y-84219512D01*
X54502942Y-84218622D01*
X54503480Y-84217752D01*
X54504053Y-84216904D01*
X54504660Y-84216078D01*
X54505299Y-84215277D01*
X54505969Y-84214501D01*
X54506669Y-84213753D01*
X54507398Y-84213033D01*
X54508155Y-84212343D01*
X54508937Y-84211685D01*
X54509745Y-84211060D01*
X54510577Y-84210470D01*
X54511431Y-84209916D01*
X54512306Y-84209399D01*
X54513202Y-84208921D01*
X54514117Y-84208484D01*
X54515049Y-84208088D01*
X54515998Y-84207737D01*
X54516962Y-84207429D01*
X54517940Y-84207169D01*
X54518932Y-84206956D01*
X54953854Y-84126073D01*
X54954853Y-84125863D01*
X54955857Y-84125609D01*
X54957868Y-84124970D01*
X54959875Y-84124167D01*
X54961865Y-84123211D01*
X54963824Y-84122114D01*
X54965739Y-84120886D01*
X54967597Y-84119540D01*
X54969385Y-84118086D01*
X54971090Y-84116535D01*
X54972699Y-84114899D01*
X54974198Y-84113189D01*
X54975575Y-84111417D01*
X54976817Y-84109593D01*
X54977910Y-84107729D01*
X54978841Y-84105837D01*
X54979242Y-84104883D01*
X54979598Y-84103927D01*
X55112948Y-83792883D01*
X55113806Y-83791021D01*
X55114528Y-83789047D01*
X55115114Y-83786979D01*
X55115564Y-83784834D01*
X55115881Y-83782629D01*
X55116065Y-83780380D01*
X55116118Y-83778105D01*
X55116040Y-83775821D01*
X55115833Y-83773544D01*
X55115498Y-83771292D01*
X55115035Y-83769082D01*
X55114447Y-83766931D01*
X55113734Y-83764856D01*
X55112897Y-83762873D01*
X55111938Y-83761000D01*
X55110857Y-83759254D01*
X54857413Y-83389896D01*
X54856862Y-83389049D01*
X54856353Y-83388177D01*
X54855888Y-83387282D01*
X54855465Y-83386366D01*
X54855085Y-83385430D01*
X54854747Y-83384476D01*
X54854451Y-83383507D01*
X54854197Y-83382524D01*
X54853985Y-83381530D01*
X54853814Y-83380526D01*
X54853597Y-83378495D01*
X54853544Y-83376449D01*
X54853653Y-83374401D01*
X54853923Y-83372369D01*
X54854352Y-83370366D01*
X54854939Y-83368408D01*
X54855292Y-83367451D01*
X54855683Y-83366511D01*
X54856113Y-83365591D01*
X54856581Y-83364691D01*
X54857088Y-83363814D01*
X54857633Y-83362962D01*
X54858216Y-83362136D01*
X54858837Y-83361339D01*
X54859495Y-83360573D01*
X54860191Y-83359839D01*
X55176739Y-83043318D01*
X55177470Y-83042620D01*
X55178234Y-83041960D01*
X55179029Y-83041337D01*
X55179852Y-83040753D01*
X55180703Y-83040207D01*
X55181578Y-83039699D01*
X55183396Y-83038799D01*
X55185291Y-83038055D01*
X55187247Y-83037468D01*
X55189249Y-83037039D01*
X55191281Y-83036770D01*
X55193329Y-83036662D01*
X55195376Y-83036717D01*
X55197408Y-83036936D01*
X55199409Y-83037321D01*
X55201364Y-83037872D01*
X55202319Y-83038210D01*
X55203257Y-83038591D01*
X55204175Y-83039014D01*
X55205072Y-83039480D01*
X55205947Y-83039989D01*
X55206796Y-83040540D01*
X55582610Y-83298456D01*
X55584343Y-83299543D01*
X55586209Y-83300511D01*
X55588189Y-83301358D01*
X55590266Y-83302085D01*
X55592423Y-83302688D01*
X55594642Y-83303168D01*
X55596905Y-83303523D01*
X55599196Y-83303751D01*
X55601496Y-83303852D01*
X55603788Y-83303824D01*
X55606055Y-83303667D01*
X55608279Y-83303379D01*
X55610442Y-83302958D01*
X55612528Y-83302404D01*
X55614519Y-83301715D01*
X55616397Y-83300890D01*
X55917943Y-83177462D01*
X55919862Y-83176735D01*
X55921762Y-83175831D01*
X55923633Y-83174765D01*
X55925463Y-83173548D01*
X55927241Y-83172195D01*
X55928956Y-83170718D01*
X55930596Y-83169130D01*
X55932151Y-83167444D01*
X55933608Y-83165674D01*
X55934958Y-83163832D01*
X55936189Y-83161932D01*
X55937290Y-83159986D01*
X55938249Y-83158008D01*
X55939056Y-83156010D01*
X55939699Y-83154006D01*
X55940167Y-83152009D01*
X56023882Y-82702138D01*
X56024090Y-82701149D01*
X56024346Y-82700173D01*
X56024650Y-82699211D01*
X56024998Y-82698263D01*
X56025390Y-82697332D01*
X56025825Y-82696418D01*
X56026300Y-82695523D01*
X56026815Y-82694648D01*
X56027367Y-82693795D01*
X56027956Y-82692963D01*
X56029236Y-82691373D01*
X56030644Y-82689887D01*
X56032166Y-82688515D01*
X56033792Y-82687268D01*
X56035510Y-82686155D01*
X56037306Y-82685187D01*
X56038230Y-82684759D01*
X56039170Y-82684372D01*
X56040123Y-82684025D01*
X56041089Y-82683721D01*
X56042066Y-82683460D01*
X56043052Y-82683244D01*
X56044046Y-82683073D01*
X56045046Y-82682950D01*
X56046051Y-82682875D01*
X56047059Y-82682850D01*
X56494734Y-82682850D01*
X56495745Y-82682875D01*
G37*
D11*
X63031779Y-96189819D02*
X63031779Y-96999342D01*
X63031779Y-96999342D02*
X63079398Y-97094580D01*
X63079398Y-97094580D02*
X63127017Y-97142200D01*
X63127017Y-97142200D02*
X63222255Y-97189819D01*
X63222255Y-97189819D02*
X63412731Y-97189819D01*
X63412731Y-97189819D02*
X63507969Y-97142200D01*
X63507969Y-97142200D02*
X63555588Y-97094580D01*
X63555588Y-97094580D02*
X63603207Y-96999342D01*
X63603207Y-96999342D02*
X63603207Y-96189819D01*
X64031779Y-97142200D02*
X64174636Y-97189819D01*
X64174636Y-97189819D02*
X64412731Y-97189819D01*
X64412731Y-97189819D02*
X64507969Y-97142200D01*
X64507969Y-97142200D02*
X64555588Y-97094580D01*
X64555588Y-97094580D02*
X64603207Y-96999342D01*
X64603207Y-96999342D02*
X64603207Y-96904104D01*
X64603207Y-96904104D02*
X64555588Y-96808866D01*
X64555588Y-96808866D02*
X64507969Y-96761247D01*
X64507969Y-96761247D02*
X64412731Y-96713628D01*
X64412731Y-96713628D02*
X64222255Y-96666009D01*
X64222255Y-96666009D02*
X64127017Y-96618390D01*
X64127017Y-96618390D02*
X64079398Y-96570771D01*
X64079398Y-96570771D02*
X64031779Y-96475533D01*
X64031779Y-96475533D02*
X64031779Y-96380295D01*
X64031779Y-96380295D02*
X64079398Y-96285057D01*
X64079398Y-96285057D02*
X64127017Y-96237438D01*
X64127017Y-96237438D02*
X64222255Y-96189819D01*
X64222255Y-96189819D02*
X64460350Y-96189819D01*
X64460350Y-96189819D02*
X64603207Y-96237438D01*
X65365112Y-96666009D02*
X65507969Y-96713628D01*
X65507969Y-96713628D02*
X65555588Y-96761247D01*
X65555588Y-96761247D02*
X65603207Y-96856485D01*
X65603207Y-96856485D02*
X65603207Y-96999342D01*
X65603207Y-96999342D02*
X65555588Y-97094580D01*
X65555588Y-97094580D02*
X65507969Y-97142200D01*
X65507969Y-97142200D02*
X65412731Y-97189819D01*
X65412731Y-97189819D02*
X65031779Y-97189819D01*
X65031779Y-97189819D02*
X65031779Y-96189819D01*
X65031779Y-96189819D02*
X65365112Y-96189819D01*
X65365112Y-96189819D02*
X65460350Y-96237438D01*
X65460350Y-96237438D02*
X65507969Y-96285057D01*
X65507969Y-96285057D02*
X65555588Y-96380295D01*
X65555588Y-96380295D02*
X65555588Y-96475533D01*
X65555588Y-96475533D02*
X65507969Y-96570771D01*
X65507969Y-96570771D02*
X65460350Y-96618390D01*
X65460350Y-96618390D02*
X65365112Y-96666009D01*
X65365112Y-96666009D02*
X65031779Y-96666009D01*
D12*
%TO.C,J1*%
X60335000Y-82625000D02*
X61555000Y-82625000D01*
X60335000Y-89825000D02*
X61555000Y-89825000D01*
X60335000Y-91045000D02*
X60335000Y-82625000D01*
X61555000Y-82625000D02*
X61555000Y-84825000D01*
X61555000Y-84825000D02*
X60335000Y-84825000D01*
X61555000Y-89825000D02*
X61555000Y-84825000D01*
X62625000Y-85825000D02*
X62945000Y-85825000D01*
X62625000Y-89245000D02*
X62625000Y-85825000D01*
X62945000Y-85825000D02*
X63265000Y-85825000D01*
X62945000Y-89325000D02*
X62625000Y-89245000D01*
X63265000Y-85825000D02*
X63265000Y-89245000D01*
X63265000Y-89245000D02*
X62945000Y-89325000D01*
X64275000Y-84825000D02*
X64115000Y-84825000D01*
X65125000Y-85825000D02*
X65445000Y-85825000D01*
X65125000Y-89245000D02*
X65125000Y-85825000D01*
X65145000Y-82135000D02*
X65445000Y-82735000D01*
X65445000Y-82735000D02*
X65745000Y-82135000D01*
X65445000Y-85825000D02*
X65765000Y-85825000D01*
X65445000Y-89325000D02*
X65125000Y-89245000D01*
X65745000Y-82135000D02*
X65145000Y-82135000D01*
X65765000Y-85825000D02*
X65765000Y-89245000D01*
X65765000Y-89245000D02*
X65445000Y-89325000D01*
X66835000Y-82625000D02*
X68055000Y-82625000D01*
X66835000Y-84825000D02*
X66835000Y-82625000D01*
X66835000Y-84825000D02*
X68055000Y-84825000D01*
X66835000Y-85825000D02*
X61555000Y-85825000D01*
X66835000Y-89825000D02*
X66835000Y-84825000D01*
X68055000Y-82625000D02*
X68055000Y-91045000D01*
X68055000Y-89825000D02*
X66835000Y-89825000D01*
X68055000Y-91045000D02*
X60335000Y-91045000D01*
%TO.C,U1*%
X53019000Y-90318000D02*
X49971000Y-90318000D01*
X49971000Y-52218000D01*
X53019000Y-52218000D01*
X53019000Y-90318000D01*
X78419000Y-52218000D02*
X75371000Y-52218000D01*
X75371000Y-90318000D01*
X78419000Y-90318000D01*
X78419000Y-52218000D01*
%TD*%
M02*
