%TF.GenerationSoftware,KiCad,Pcbnew,9.0.6*%
%TF.CreationDate,2026-03-08T07:06:23+01:00*%
%TF.ProjectId,OpenBikeSensorLiteLidar,4f70656e-4269-46b6-9553-656e736f724c,0.1*%
%TF.SameCoordinates,Original*%
%TF.FileFunction,Soldermask,Top*%
%TF.FilePolarity,Negative*%
%FSLAX46Y46*%
G04 Gerber Fmt 4.6, Leading zero omitted, Abs format (unit mm)*
G04 Created by KiCad (PCBNEW 9.0.6) date 2026-03-08 07:06:23*
%MOMM*%
%LPD*%
G01*
G04 APERTURE LIST*
G04 Aperture macros list*
%AMRoundRect*
0 Rectangle with rounded corners*
0 $1 Rounding radius*
0 $2 $3 $4 $5 $6 $7 $8 $9 X,Y pos of 4 corners*
0 Add a 4 corners polygon primitive as box body*
4,1,4,$2,$3,$4,$5,$6,$7,$8,$9,$2,$3,0*
0 Add four circle primitives for the rounded corners*
1,1,$1+$1,$2,$3*
1,1,$1+$1,$4,$5*
1,1,$1+$1,$6,$7*
1,1,$1+$1,$8,$9*
0 Add four rect primitives between the rounded corners*
20,1,$1+$1,$2,$3,$4,$5,0*
20,1,$1+$1,$4,$5,$6,$7,0*
20,1,$1+$1,$6,$7,$8,$9,0*
20,1,$1+$1,$8,$9,$2,$3,0*%
G04 Aperture macros list end*
%ADD10RoundRect,0.250000X0.600000X0.750000X-0.600000X0.750000X-0.600000X-0.750000X0.600000X-0.750000X0*%
%ADD11O,1.700000X2.000000*%
%ADD12RoundRect,0.557743X-0.592257X-0.292257X0.592257X-0.292257X0.592257X0.292257X-0.592257X0.292257X0*%
%ADD13RoundRect,0.250000X0.725000X-0.600000X0.725000X0.600000X-0.725000X0.600000X-0.725000X-0.600000X0*%
%ADD14O,1.950000X1.700000*%
%ADD15RoundRect,0.250000X-0.725000X0.600000X-0.725000X-0.600000X0.725000X-0.600000X0.725000X0.600000X0*%
G04 APERTURE END LIST*
D10*
%TO.C,J1*%
X65445000Y-84235000D03*
D11*
X62945000Y-84235000D03*
%TD*%
D12*
%TO.C,U1*%
X51495000Y-53540000D03*
X51495000Y-56080000D03*
X51495000Y-58620000D03*
X51495000Y-61160000D03*
X51495000Y-63700000D03*
X51495000Y-66240000D03*
X51495000Y-68780000D03*
X51495000Y-71320000D03*
X51495000Y-73860000D03*
X51495000Y-76400000D03*
X51495000Y-78940000D03*
X51495000Y-81480000D03*
X51495000Y-84020000D03*
X51495000Y-86560000D03*
X51495000Y-89100000D03*
X76895000Y-89100000D03*
X76895000Y-86560000D03*
X76895000Y-84020000D03*
X76895000Y-81480000D03*
X76895000Y-78940000D03*
X76895000Y-76400000D03*
X76895000Y-73860000D03*
X76895000Y-71320000D03*
X76895000Y-68780000D03*
X76895000Y-66240000D03*
X76895000Y-63700000D03*
X76895000Y-61160000D03*
X76895000Y-58620000D03*
X76895000Y-56080000D03*
X76895000Y-53540000D03*
%TD*%
D13*
%TO.C,SensorL1*%
X60695000Y-78735000D03*
D14*
X60695000Y-76235000D03*
X60695000Y-73735000D03*
X60695000Y-71235000D03*
X60695000Y-68735000D03*
X60695000Y-66235000D03*
%TD*%
D15*
%TO.C,SensorR1*%
X67195000Y-66235000D03*
D14*
X67195000Y-68735000D03*
X67195000Y-71235000D03*
X67195000Y-73735000D03*
X67195000Y-76235000D03*
X67195000Y-78735000D03*
%TD*%
M02*
