M48
; DRILL file {KiCad 9.0.6} date 2026-03-08T07:06:25+0100
; FORMAT={-:-/ absolute / metric / decimal}
; #@! TF.CreationDate,2026-03-08T07:06:25+01:00
; #@! TF.GenerationSoftware,Kicad,Pcbnew,9.0.6
; #@! TF.FileFunction,Plated,1,2,PTH
FMAT,2
METRIC
; #@! TA.AperFunction,Plated,PTH,ComponentDrill
T1C0.950
; #@! TA.AperFunction,Plated,PTH,ComponentDrill
T2C1.000
%
G90
G05
T1
X60.695Y-66.235
X60.695Y-68.735
X60.695Y-71.235
X60.695Y-73.735
X60.695Y-76.235
X60.695Y-78.735
X67.195Y-66.235
X67.195Y-68.735
X67.195Y-71.235
X67.195Y-73.735
X67.195Y-76.235
X67.195Y-78.735
T2
X51.495Y-53.54
X51.495Y-56.08
X51.495Y-58.62
X51.495Y-61.16
X51.495Y-63.7
X51.495Y-66.24
X51.495Y-68.78
X51.495Y-71.32
X51.495Y-73.86
X51.495Y-76.4
X51.495Y-78.94
X51.495Y-81.48
X51.495Y-84.02
X51.495Y-86.56
X51.495Y-89.1
X62.945Y-84.235
X65.445Y-84.235
X76.895Y-53.54
X76.895Y-56.08
X76.895Y-58.62
X76.895Y-61.16
X76.895Y-63.7
X76.895Y-66.24
X76.895Y-68.78
X76.895Y-71.32
X76.895Y-73.86
X76.895Y-76.4
X76.895Y-78.94
X76.895Y-81.48
X76.895Y-84.02
X76.895Y-86.56
X76.895Y-89.1
M30
